<?xml version="1.0" standalone="no"?>
<!DOCTYPE svg PUBLIC "-//W3C//DTD SVG 20010904//EN"
 "http://www.w3.org/TR/2001/REC-SVG-20010904/DTD/svg10.dtd">
<svg version="1.0" xmlns="http://www.w3.org/2000/svg"
 width="300.000000pt" height="169.000000pt" viewBox="0 0 300.000000 169.000000"
 preserveAspectRatio="xMidYMid meet">
<metadata>
Created by potrace 1.10, written by Peter Selinger 2001-2011
</metadata>
<g transform="translate(0.000000,169.000000) scale(0.100000,-0.100000)"
fill="#000000" stroke="none">
<path d="M298 1678 c-16 -5 -28 -13 -28 -17 0 -3 -21 -18 -47 -31 -27 -14 -49
-28 -51 -32 -2 -4 -41 -28 -88 -54 -46 -25 -84 -50 -84 -56 0 -5 7 -17 16 -25
14 -15 16 -14 12 8 -2 18 1 24 14 23 10 -1 16 2 13 6 -3 5 -1 11 5 15 5 3 10
1 10 -6 0 -7 6 -4 14 7 15 19 15 19 30 -1 8 -11 16 -16 16 -11 0 5 -7 18 -17
28 -17 19 -6 25 15 8 6 -6 10 -7 7 -3 -9 12 79 63 108 63 9 -1 37 26 39 37 1
12 39 36 45 29 4 -3 1 -6 -6 -6 -9 0 -9 -5 -1 -20 6 -11 7 -20 3 -20 -4 0 -2
-5 4 -11 8 -8 17 -8 32 1 17 9 25 8 37 -5 20 -19 30 -19 38 1 3 8 9 13 14 10
4 -2 6 10 4 29 -3 26 0 34 15 38 10 3 4 5 -15 6 -26 1 -32 -3 -30 -16 2 -10
-3 -17 -9 -15 -7 1 -13 -5 -13 -14 0 -11 -6 -15 -20 -11 -11 3 -18 1 -14 -4 3
-5 0 -9 -5 -9 -6 0 -11 5 -11 11 0 5 -4 7 -10 4 -12 -8 -13 5 -1 24 5 7 14 10
20 7 6 -4 18 0 27 8 14 15 12 16 -23 15 -21 0 -50 -5 -65 -11z"/>
<path d="M520 1675 c0 -12 4 -13 19 -5 29 15 35 12 20 -7 -13 -16 -12 -17 4
-4 25 20 21 31 -13 31 -20 0 -30 -5 -30 -15z"/>
<path d="M717 1683 c-4 -3 -19 -8 -34 -9 -15 -2 -32 -9 -38 -16 -5 -7 -21 -12
-35 -11 l-25 3 23 -12 c18 -9 26 -8 40 5 10 10 27 17 38 17 22 0 51 16 43 24
-3 4 -9 3 -12 -1z"/>
<path d="M880 1675 c-6 -7 -21 -15 -34 -17 -19 -4 -23 -1 -18 11 5 13 3 14
-10 4 -8 -7 -18 -10 -21 -6 -4 3 -7 1 -7 -6 0 -8 -7 -10 -19 -6 -11 3 -22 1
-26 -5 -3 -6 -11 -8 -16 -5 -5 4 -9 1 -9 -6 0 -7 -10 -9 -25 -7 -13 3 -22 1
-19 -3 3 -5 -1 -9 -8 -10 -57 -3 -85 -13 -111 -39 -35 -36 -26 -38 28 -5 22
14 44 25 48 25 16 0 -5 -21 -41 -40 -27 -14 -32 -19 -17 -20 19 -1 19 -1 2
-11 -10 -6 -31 -7 -47 -4 -26 6 -30 4 -30 -14 0 -20 2 -20 75 3 19 7 19 7 1
-6 -53 -36 -74 -78 -40 -78 10 0 14 6 10 15 -3 10 1 15 13 15 11 0 26 17 41
44 15 30 27 43 37 39 9 -4 16 2 20 16 3 11 12 21 20 21 10 0 13 -6 8 -17 -5
-14 -4 -15 6 -6 10 10 9 16 -2 29 -13 16 -12 17 12 12 20 -4 31 1 45 19 10 14
23 21 32 18 9 -3 19 0 24 7 6 10 8 10 8 0 0 -14 46 -7 69 12 11 8 15 8 18 -1
7 -21 20 -15 25 10 5 26 -23 35 -42 12z"/>
<path d="M1113 1679 c1 -6 -14 -17 -33 -24 -19 -8 -27 -14 -18 -14 18 -1 14
-31 -4 -31 -5 0 -6 5 -3 10 8 13 4 13 -40 -6 -28 -11 -36 -20 -32 -34 4 -16 0
-18 -28 -13 -24 4 -34 1 -39 -12 -10 -27 19 -64 46 -59 21 4 21 4 3 -4 -29
-13 -154 -24 -135 -12 8 5 12 12 8 15 -3 4 -16 -3 -28 -15 -17 -17 -24 -19
-30 -10 -4 7 -13 9 -20 5 -7 -4 -17 -1 -22 6 -8 11 -9 10 -5 -3 7 -19 -11 -28
-57 -28 -18 0 -36 -4 -42 -9 -5 -5 -34 -11 -64 -13 -52 -3 -74 -13 -64 -29 4
-6 32 -2 153 22 30 6 72 13 92 15 21 2 82 12 136 23 54 11 116 22 138 25 22 3
62 10 88 16 26 5 60 9 75 9 34 -3 142 20 142 29 -1 25 -17 31 -44 17 -31 -17
-72 -21 -47 -6 21 13 -5 24 -28 11 -26 -13 -98 -13 -106 1 -4 5 13 30 37 53
70 70 73 76 43 76 -15 0 -25 -6 -25 -14 0 -8 -5 -18 -12 -22 -8 -5 -9 0 -6 14
5 17 2 22 -13 22 -10 0 -18 -5 -16 -11z m5 -46 c-2 -10 -14 -28 -28 -40 -18
-16 -21 -23 -10 -23 10 0 7 -7 -10 -21 l-25 -21 35 6 c23 4 31 3 24 -4 -11
-11 -103 -30 -102 -21 2 19 -4 22 -18 11 -12 -11 -18 -10 -32 3 -12 13 -13 20
-4 29 9 9 18 7 42 -10 38 -29 44 -28 24 3 -9 14 -12 25 -8 25 5 0 2 5 -6 10
-11 7 -6 10 20 10 26 0 31 3 20 10 -20 13 -4 13 20 0 15 -8 20 -5 29 20 11 32
34 42 29 13z"/>
<path d="M1494 1680 c-10 -10 -56 -13 -104 -7 -14 2 -29 1 -35 -2 -19 -10 -35
-9 -35 2 0 7 -5 4 -11 -5 -5 -10 -19 -18 -29 -18 -10 0 -22 -5 -26 -11 -4 -7
2 -9 17 -7 32 5 69 -34 69 -73 0 -19 5 -29 15 -29 8 0 15 -4 15 -10 0 -5 -22
-12 -50 -16 l-50 -7 0 -41 c0 -39 -2 -43 -37 -56 -21 -7 -33 -15 -26 -17 6 -2
25 3 42 11 19 10 32 12 36 6 3 -6 1 -10 -5 -10 -6 0 -8 -5 -4 -11 5 -8 8 -8
13 0 4 6 20 10 36 10 35 -1 113 15 123 25 4 4 -11 6 -33 4 -35 -3 -40 0 -38
17 1 11 3 39 4 61 l3 42 55 7 c31 3 85 9 121 11 36 3 80 10 99 15 18 6 54 9
80 6 25 -3 38 -3 29 0 -18 5 -22 14 -18 47 1 10 -1 29 -4 42 -5 19 -13 24 -39
23 -27 0 -29 -2 -12 -9 12 -4 27 -15 34 -23 11 -14 8 -19 -21 -37 -18 -11 -47
-20 -64 -20 -18 0 -67 -6 -110 -14 -135 -25 -177 -29 -169 -17 3 6 17 11 31
11 20 0 24 4 19 19 -5 15 1 19 36 24 23 3 51 15 63 27 17 17 18 20 3 14 -13
-5 -16 -2 -11 10 7 18 3 21 -12 6z m-74 -25 c0 -23 -26 -53 -45 -51 -13 0 -21
4 -19 7 2 3 -9 12 -24 19 -22 11 -24 14 -10 17 10 3 25 -3 34 -11 21 -21 31
-20 39 4 5 17 25 29 25 15z m-60 -215 c0 -15 -27 -23 -47 -15 -17 7 -16 8 2
15 28 12 45 12 45 0z"/>
<path d="M1847 1659 c15 -30 15 -33 -1 -45 -15 -10 -10 -13 34 -19 28 -4 54
-4 57 -1 4 3 -4 6 -16 6 -21 0 -51 21 -51 35 0 4 9 14 21 24 19 15 19 17 2 17
-10 0 -28 4 -40 8 -22 7 -22 7 -6 -25z"/>
<path d="M1984 1666 c-18 -17 -19 -23 -8 -33 7 -7 20 -13 28 -13 12 0 14 7 9
33 -3 17 -6 32 -7 33 -1 0 -11 -9 -22 -20z"/>
<path d="M2149 1683 c-20 -3 -26 -9 -22 -23 3 -10 -1 -20 -9 -23 -7 -2 -4 -3
7 -1 11 2 30 4 43 4 17 0 22 6 22 25 0 14 -3 24 -7 24 -5 -1 -20 -4 -34 -6z"/>
<path d="M2334 1679 c-3 -6 -17 -8 -31 -4 -16 4 -22 2 -18 -5 10 -16 65 -12
65 5 0 18 -6 19 -16 4z"/>
<path d="M2885 1678 c-7 -16 -87 -22 -95 -7 -9 14 -72 -2 -78 -20 -3 -10 5
-12 32 -9 20 2 36 1 36 -2 0 -3 18 -6 40 -7 22 -1 40 2 40 8 0 5 7 9 15 9 7 0
19 8 25 18 8 14 9 12 4 -10 -5 -23 -3 -28 14 -28 17 0 31 23 32 53 0 12 -60 8
-65 -5z"/>
<path d="M2975 1590 l-20 -105 -55 -6 c-51 -5 -56 -8 -30 -14 6 -1 13 -3 18
-4 4 -1 -3 -6 -16 -11 -12 -5 -30 -6 -39 -3 -9 4 -14 2 -11 -3 3 -5 0 -14 -7
-21 -10 -9 -14 -8 -18 6 -2 10 -1 24 3 32 7 11 -2 14 -46 13 -30 0 -57 -4 -61
-7 -3 -4 4 -7 16 -7 27 0 46 -41 24 -53 -8 -5 -20 -4 -27 2 -10 9 -15 8 -20
-4 -13 -35 -53 0 -45 41 7 41 -17 57 -51 33 -13 -10 -13 -10 1 -6 21 7 38 -23
28 -50 -11 -29 -25 -36 -49 -23 -22 12 -26 40 -8 58 9 9 9 12 0 12 -15 0 -47
-36 -47 -53 0 -7 -11 -13 -25 -15 -22 -2 -23 -1 -7 8 27 17 20 32 -12 25 -22
-5 -34 -1 -50 16 -13 15 -26 19 -38 14 -16 -6 -16 -8 5 -16 27 -10 30 -33 3
-24 -11 3 -23 0 -27 -6 -5 -9 -2 -10 9 -6 18 7 33 -8 18 -17 -16 -10 -41 5
-41 25 0 16 -5 18 -25 13 -27 -7 -33 4 -13 24 9 9 5 12 -18 12 -19 0 -25 -3
-16 -9 8 -4 14 -12 14 -17 0 -5 3 -15 5 -21 3 -7 2 -21 -2 -30 -8 -17 -8 -17
-12 0 -3 9 -9 17 -14 17 -6 0 -7 -5 -3 -11 4 -7 -1 -9 -12 -7 -13 3 -18 11
-17 26 4 29 -7 28 -52 -8 -43 -35 -48 -36 -66 -14 -11 13 -9 14 17 9 28 -6 28
-6 10 9 -18 15 -22 14 -43 -6 -18 -16 -20 -24 -11 -30 9 -6 4 -8 -12 -6 -17 2
-26 10 -28 26 -4 27 -22 29 -29 2 -3 -11 -10 -20 -15 -20 -5 0 -7 4 -3 9 3 5
1 12 -4 16 -5 3 -14 -2 -19 -11 -8 -15 -10 -15 -15 0 -4 9 -13 13 -22 10 -8
-3 -12 -10 -9 -15 3 -5 -2 -9 -10 -9 -8 0 -18 9 -21 20 -9 27 -24 25 -35 -5
-16 -42 -46 -28 -51 25 l-4 35 110 3 c61 2 138 3 173 2 35 0 61 4 58 8 -5 9
-6 9 149 16 66 3 138 8 160 11 22 2 90 7 150 11 61 3 116 6 123 6 6 1 12 5 12
10 0 6 -16 8 -35 5 -40 -5 -40 -6 -24 77 6 32 8 60 6 62 -2 2 -141 -11 -308
-30 -715 -82 -715 -82 -586 -99 31 -4 46 -3 42 3 -6 10 15 12 137 13 42 1 63
4 55 10 -7 5 15 7 53 4 39 -3 57 -2 45 3 -15 6 -7 9 28 9 34 1 46 4 41 13 -5
8 -2 9 12 4 23 -9 295 14 288 25 -2 4 1 11 7 15 8 5 9 3 4 -6 -7 -11 8 -12 76
-8 48 4 71 3 54 -2 l-30 -8 34 -1 c61 -2 29 -9 -99 -20 -69 -7 -143 -14 -165
-16 -22 -2 -65 -6 -95 -9 -113 -11 -170 -17 -362 -36 -227 -23 -250 -24 -228
-10 8 5 26 7 40 4 18 -4 21 -3 10 4 -8 5 -29 13 -46 16 -29 7 -32 5 -38 -25
-10 -50 -7 -91 5 -83 6 3 37 8 69 10 52 3 60 1 65 -18 5 -13 1 -26 -9 -36 -14
-15 -17 -14 -30 3 -8 11 -12 23 -10 27 3 5 1 8 -5 8 -5 0 -13 -4 -16 -10 -3
-5 -1 -10 4 -10 6 0 11 -5 11 -11 0 -6 -7 -8 -17 -5 -9 4 -19 2 -23 -3 -3 -6
-20 -11 -38 -13 -18 -1 -31 -7 -29 -12 4 -13 39 -17 53 -5 6 5 19 6 29 3 13
-5 14 -9 3 -15 -11 -8 -11 -11 1 -18 22 -14 2 -33 -26 -26 -20 5 -24 3 -20 -9
4 -10 -3 -17 -22 -21 -22 -5 -29 -12 -28 -31 0 -13 3 -27 8 -30 5 -3 9 2 9 10
0 24 39 46 65 36 14 -5 26 -5 33 2 6 6 24 7 43 3 l33 -7 -22 -18 c-12 -10 -22
-25 -22 -34 0 -9 -7 -16 -16 -16 -10 0 -14 5 -10 16 3 8 2 12 -3 9 -6 -3 -14
3 -20 12 -9 15 -10 13 -11 -14 0 -26 -4 -33 -20 -33 -11 0 -20 7 -20 15 0 9
-6 12 -16 8 -8 -3 -13 -11 -11 -17 3 -8 -6 -11 -27 -10 -17 2 -23 1 -13 -2 9
-3 17 -10 17 -15 0 -5 7 -9 15 -9 19 0 19 -14 2 -32 -12 -11 -12 -16 0 -26 9
-9 11 -22 6 -40 -4 -15 -7 -40 -8 -57 0 -29 1 -30 48 -30 26 0 47 -3 47 -7 0
-4 7 -5 15 -2 8 4 22 4 30 0 21 -8 -2 -56 -27 -56 -28 0 -58 18 -58 35 0 8 -6
12 -14 9 -9 -3 -12 -12 -9 -22 5 -11 2 -14 -10 -9 -18 7 -42 -12 -64 -50 -10
-18 -9 -22 8 -26 26 -7 25 -48 -3 -74 -14 -12 -36 -19 -57 -19 -31 1 -36 5
-45 36 l-10 35 -4 -37 c-3 -34 -6 -37 -31 -35 -15 2 -31 6 -37 9 -15 10 -29
-4 -32 -32 -1 -13 -8 -29 -14 -35 -8 -7 -9 -6 -3 4 5 9 -1 7 -19 -4 -31 -20
-58 -14 -50 12 4 13 3 14 -3 5 -5 -7 -28 -16 -52 -20 -23 -4 -42 -11 -41 -17
0 -11 50 -27 50 -17 0 4 14 7 30 7 23 0 30 -4 30 -20 0 -14 -3 -16 -9 -7 -6
10 -10 10 -21 -3 -10 -12 -10 -18 0 -30 10 -12 9 -15 -4 -15 -28 0 -56 20 -66
46 -5 13 -15 24 -22 24 -9 0 -9 -3 0 -12 18 -18 15 -28 -9 -28 -11 0 -18 4
-15 8 6 10 -3 23 -29 42 -16 11 -17 11 -7 0 6 -8 12 -17 12 -21 0 -9 -52 -1
-60 9 -10 14 -50 32 -71 32 -18 0 -21 5 -17 29 3 21 1 28 -9 24 -7 -3 -13 -11
-13 -19 0 -22 -30 -16 -39 8 -5 14 -10 17 -15 10 -12 -20 -44 -13 -52 11 -7
21 -7 21 -14 3 -6 -19 -7 -19 -26 0 -10 10 -29 18 -41 16 -26 -4 -30 13 -8 34
17 18 20 34 5 34 -5 0 -10 -5 -10 -10 0 -6 -12 -8 -27 -5 -26 5 -27 5 -5 -5
26 -11 21 -30 -9 -30 -11 0 -19 7 -19 17 0 14 -2 15 -12 4 -18 -17 6 -33 96
-67 86 -32 93 -38 73 -58 -12 -13 -21 -14 -43 -6 -15 6 -29 8 -32 5 -3 -3 -1
-5 3 -5 5 0 -4 -13 -20 -30 -27 -28 -53 -42 -41 -21 4 5 -4 7 -16 4 -19 -5
-21 -3 -10 8 7 8 27 19 45 26 27 10 28 12 9 12 -12 1 -40 -8 -62 -19 -47 -24
-60 -25 -60 -5 0 8 -7 15 -16 15 -9 0 -12 5 -8 12 4 7 3 8 -5 4 -20 -13 -60
-16 -66 -6 -8 14 -52 13 -61 -1 -5 -8 1 -10 19 -5 19 4 29 1 35 -11 6 -10 22
-16 40 -16 17 0 33 -6 36 -14 3 -7 20 -13 38 -13 l33 -1 -42 -20 c-24 -11 -43
-27 -43 -35 0 -10 -6 -14 -15 -10 -8 3 -15 2 -15 -2 -1 -24 -18 -32 -46 -22
-27 9 -27 8 11 -25 l40 -34 17 22 c24 30 23 45 -1 16 -11 -13 -23 -21 -27 -16
-10 10 54 72 86 82 14 4 36 15 49 24 14 9 32 15 41 13 10 -1 22 4 29 12 7 8
18 13 26 10 8 -3 16 4 20 16 5 16 10 19 20 10 8 -7 24 -9 37 -5 18 5 20 4 8
-4 -10 -7 -11 -11 -2 -11 6 0 12 -5 12 -11 0 -6 -6 -9 -13 -6 -7 3 -21 -2 -32
-9 -18 -13 -16 -14 18 -12 37 3 37 3 38 48 1 25 1 47 1 50 0 3 7 6 17 7 18 2
47 -50 37 -66 -4 -5 -2 -12 3 -15 5 -3 6 -16 3 -29 -5 -21 -5 -21 12 -5 10 10
32 18 49 19 l32 0 -33 16 c-17 9 -32 22 -32 30 0 9 13 7 53 -8 213 -85 244
-96 305 -104 18 -3 47 -12 63 -21 24 -12 28 -18 19 -29 -7 -9 -8 -15 0 -20 5
-3 10 1 10 10 0 11 7 15 23 13 14 -2 22 -10 22 -22 0 -10 10 -22 22 -27 19 -7
21 -13 16 -50 -5 -37 -4 -42 11 -36 10 4 21 7 24 7 4 0 0 5 -8 10 -12 8 -10
10 10 9 14 0 54 -15 89 -33 53 -27 60 -34 43 -38 -12 -4 -22 -2 -22 3 0 5 -8
9 -17 8 -10 0 -13 -3 -6 -5 13 -6 6 -34 -9 -34 -5 0 -7 4 -4 8 2 4 0 14 -5 22
-8 11 -10 9 -6 -12 3 -23 2 -25 -14 -15 -14 9 -22 7 -37 -6 -10 -9 -26 -17
-36 -17 -9 0 -25 -4 -34 -9 -9 -4 -32 -11 -51 -15 -49 -9 -25 15 37 37 56 21
126 67 100 67 -9 0 -19 -4 -22 -8 -5 -8 -20 -8 -96 0 -14 2 -25 -1 -26 -7 0
-5 7 -9 16 -7 10 1 17 -4 17 -13 0 -8 -6 -15 -13 -15 -7 0 -20 -7 -29 -16 -8
-9 -22 -13 -31 -10 -9 3 -17 -1 -21 -12 -11 -30 -117 -117 -131 -108 -5 3 -29
2 -53 -3 -42 -8 -43 -9 -19 -19 23 -9 24 -11 6 -18 -14 -5 -24 -1 -38 16 -18
22 -20 22 -36 7 -13 -14 -14 -17 -2 -18 8 -1 18 -1 23 0 4 0 6 -4 5 -10 -2 -6
7 -15 19 -20 18 -6 29 -2 55 24 17 18 29 24 25 15 -11 -30 27 -8 105 62 40 35
67 57 60 48 -13 -16 -2 -34 12 -20 7 6 42 12 99 15 15 1 27 5 27 10 0 4 11 7
24 7 13 0 26 5 28 10 2 6 14 12 27 15 14 2 29 9 35 15 17 17 35 11 29 -10 -3
-11 -10 -17 -17 -13 -6 3 -5 0 3 -8 11 -12 14 -12 18 0 3 7 14 22 24 32 17 17
21 17 56 3 20 -9 43 -23 51 -33 7 -9 10 -10 6 -2 -4 9 -2 12 7 9 21 -7 18 -62
-4 -66 -12 -3 -20 4 -24 17 -3 12 -9 21 -14 21 -5 0 -6 6 -3 14 6 17 -12 31
-21 16 -3 -5 -17 -10 -31 -10 -19 0 -24 -5 -24 -25 0 -13 7 -28 16 -33 11 -6
15 -17 12 -30 -4 -15 0 -23 13 -27 12 -4 19 -16 19 -32 0 -21 -3 -24 -22 -19
-13 3 -27 6 -31 6 -5 0 -7 12 -5 28 2 19 -2 27 -12 27 -8 0 -16 -6 -16 -12 -1
-7 -2 -17 -3 -23 -2 -15 -37 -12 -51 5 -19 22 6 48 38 40 19 -5 23 -3 19 8 -3
8 0 20 6 26 8 8 5 11 -11 11 -12 0 -22 -5 -22 -11 0 -7 -10 -9 -25 -7 -14 3
-25 1 -25 -3 0 -5 -7 -9 -15 -9 -8 0 -15 5 -15 11 0 5 -5 7 -10 4 -11 -7 12
-35 28 -35 5 0 12 -8 15 -17 2 -10 8 -25 11 -34 9 -21 -19 -33 -44 -19 -15 8
-18 17 -14 38 5 23 2 28 -15 28 -12 0 -21 -4 -21 -8 0 -4 5 -8 10 -8 6 0 10
-7 10 -15 0 -16 -34 -38 -44 -28 -3 3 -6 1 -6 -4 0 -6 6 -14 13 -17 6 -3 3 -5
-8 -3 -41 5 -27 47 43 123 34 39 29 61 -7 25 -10 -10 -49 -28 -87 -41 -38 -12
-74 -26 -81 -31 -7 -7 -13 -5 -16 3 -3 9 -7 7 -12 -5 -9 -22 -74 -87 -87 -87
-4 0 -8 5 -8 10 0 6 -14 10 -31 10 -16 0 -28 -4 -25 -9 3 -5 16 -7 28 -3 15 3
19 2 14 -7 -4 -7 -17 -11 -29 -9 -14 2 -22 -2 -22 -11 0 -16 52 -25 60 -10 8
12 45 12 45 0 0 -5 -6 -12 -12 -14 -10 -4 -10 -6 0 -6 7 -1 16 10 21 22 9 24
65 77 81 77 5 0 11 -4 15 -9 7 -13 -41 -61 -61 -61 -24 0 -10 -25 16 -28 17
-3 21 0 17 12 -4 9 4 24 21 38 35 30 49 50 28 42 -9 -3 -16 -2 -16 4 0 15 26
33 57 38 19 3 23 1 14 -5 -8 -5 -11 -16 -6 -30 5 -16 1 -27 -12 -37 -17 -14
-16 -15 9 -10 21 5 32 0 54 -27 l27 -32 -6 31 c-3 18 -1 36 6 43 14 14 30 15
22 1 -3 -5 0 -10 8 -10 8 0 21 -7 28 -16 11 -14 10 -18 -6 -30 -18 -14 -18
-14 1 -14 25 0 44 31 37 60 -5 19 -2 21 23 18 18 -2 29 -9 29 -18 0 -9 -8 -14
-20 -12 -15 2 -13 -2 8 -13 15 -9 25 -21 21 -27 -5 -7 12 -8 52 -4 81 8 92 10
106 24 8 8 16 6 30 -10 13 -15 18 -17 18 -6 0 18 35 50 77 72 41 21 55 20 51
-1 -2 -10 -8 -18 -15 -18 -16 0 -28 -14 -28 -33 0 -11 -10 -17 -29 -19 -45 -3
-44 -13 2 -13 23 0 42 5 42 10 0 6 18 36 41 66 31 42 46 55 60 51 10 -3 22 -1
25 4 8 13 -80 4 -126 -12 -19 -7 -46 -21 -60 -31 -15 -12 -33 -17 -46 -14 -13
4 -26 2 -29 -4 -3 -5 0 -10 7 -10 9 0 9 -3 -2 -10 -23 -15 -30 -12 -39 12 -10
24 -11 23 -27 -29 -5 -18 -34 -16 -34 2 0 9 7 18 16 22 11 4 14 13 10 29 -5
18 0 27 18 39 14 9 23 22 21 28 -3 7 0 19 5 27 8 12 13 13 30 2 17 -10 20 -10
20 3 0 8 -4 15 -9 15 -10 0 -24 30 -17 37 2 2 16 1 30 -3 20 -5 24 -9 16 -19
-8 -9 -6 -14 6 -19 24 -9 27 -8 22 12 -5 18 -4 18 31 0 19 -10 45 -18 56 -18
12 0 25 -3 28 -7 4 -3 21 -8 38 -10 17 -2 40 -13 51 -26 11 -12 17 -16 13 -9
-3 6 -1 12 4 12 25 0 8 19 -21 25 -18 4 -42 15 -52 24 -15 13 -18 13 -11 1 7
-12 5 -12 -11 1 -10 9 -29 20 -42 24 -12 3 -19 11 -16 17 4 7 2 8 -5 4 -16
-10 -83 13 -75 26 4 7 2 8 -5 4 -16 -10 -83 13 -75 26 4 7 2 8 -5 4 -14 -9
-53 2 -46 14 3 4 -5 6 -17 2 -14 -3 -19 -1 -14 6 5 8 1 10 -10 5 -11 -4 -15
-3 -11 4 5 7 -1 9 -15 5 -13 -3 -19 -1 -15 5 5 7 -1 9 -15 5 -14 -3 -19 -1
-14 6 5 8 1 10 -10 5 -11 -4 -15 -3 -11 4 5 7 -1 9 -15 5 -14 -3 -19 -1 -14 6
5 8 1 10 -10 5 -12 -5 -15 -3 -9 6 6 10 2 11 -15 6 -15 -5 -20 -4 -16 4 5 7 1
8 -10 4 -10 -4 -15 -2 -11 4 3 5 -1 22 -9 37 -13 27 -13 28 6 23 11 -3 18 -1
14 4 -3 5 0 9 6 9 6 0 13 -6 16 -14 6 -15 73 -46 102 -46 9 -1 31 -8 47 -16
17 -8 22 -12 13 -9 -36 9 -17 -12 22 -25 21 -7 37 -16 35 -21 -3 -4 5 -5 17
-1 14 3 19 1 14 -6 -5 -8 -2 -10 8 -6 9 3 16 1 16 -5 0 -6 7 -8 15 -5 8 4 15
1 15 -6 0 -7 7 -10 16 -6 10 4 13 2 8 -6 -5 -7 0 -9 14 -6 14 4 20 2 15 -5 -4
-6 2 -8 15 -5 12 4 20 3 18 -1 -8 -12 229 -92 250 -85 12 4 15 3 7 -3 -15 -11
222 -97 244 -89 8 3 29 -1 48 -8 27 -12 34 -12 39 -1 3 9 -11 17 -42 24 -93
24 -158 44 -201 63 -24 11 -56 22 -70 24 -14 3 -73 23 -131 44 -58 22 -129 47
-157 55 -29 9 -53 20 -53 25 0 6 -9 10 -19 10 -11 0 -32 5 -48 12 -15 6 -37
13 -47 15 -25 5 -34 13 -14 13 9 0 18 12 21 27 5 25 4 26 -8 9 -17 -23 -49
-17 -53 10 -6 45 59 67 73 25 4 -13 13 -17 30 -13 39 7 44 -25 9 -54 -16 -13
-24 -23 -17 -24 6 0 18 -3 27 -6 11 -4 16 -1 16 10 0 21 46 50 66 42 13 -5 14
-9 5 -20 -10 -12 -8 -15 11 -18 23 -5 22 -6 -27 -23 -17 -6 -16 -9 15 -20 48
-18 50 -18 50 10 0 34 37 53 56 28 20 -27 13 -47 -20 -53 -26 -4 -20 -8 45
-29 41 -13 79 -25 85 -28 6 -2 9 9 6 30 -5 46 18 66 53 43 14 -9 25 -25 25
-36 0 -24 -29 -53 -46 -46 -8 3 -14 1 -14 -4 0 -6 11 -10 24 -10 13 0 31 -3
39 -6 12 -4 14 0 10 16 -3 12 1 28 12 40 14 15 20 17 36 7 20 -12 27 -67 9
-67 -5 0 -10 -4 -10 -10 0 -5 5 -10 11 -10 6 0 25 -6 42 -14 18 -7 52 -19 76
-25 23 -7 50 -15 59 -18 11 -5 14 -2 9 10 -8 23 2 47 19 47 17 0 63 28 82 50
11 13 12 10 7 -15 -4 -16 -11 -31 -16 -33 -5 -2 -9 -15 -9 -28 0 -13 -9 -29
-20 -36 -19 -12 -19 -13 3 -25 15 -8 17 -13 7 -13 -8 -1 0 -7 19 -14 38 -14
45 -24 32 -45 -12 -19 -72 -4 -78 19 -4 16 -41 35 -50 26 -11 -10 14 -37 43
-48 19 -6 34 -15 34 -19 0 -4 12 -7 28 -7 15 1 38 -2 50 -6 23 -8 23 -7 7 18
-17 25 -16 25 12 23 17 -1 28 3 27 11 -1 6 -2 36 -3 65 -2 43 -4 48 -12 29 -5
-13 -7 -28 -3 -33 7 -12 -10 -11 -41 3 -30 14 -43 52 -24 74 12 15 34 15 72
-1 12 -5 17 -3 17 9 0 9 -8 16 -20 16 -24 0 -53 41 -48 71 3 22 15 32 51 43
10 3 17 15 17 31 0 23 -2 25 -22 14 -18 -10 -24 -8 -35 7 -25 34 -9 68 34 70
28 1 32 12 18 45 -9 22 29 57 75 69 20 5 49 24 65 41 29 30 29 31 5 19 -14 -7
-33 -19 -42 -27 -10 -9 -29 -14 -47 -11 -17 2 -28 1 -25 -4 3 -4 -4 -8 -15 -8
-26 0 -38 42 -22 76 9 20 16 24 34 18 41 -13 59 -9 68 13 6 18 5 21 -8 16 -31
-12 -68 -8 -85 11 -16 16 -16 21 -3 47 9 16 25 37 36 48 13 12 17 21 10 26 -6
3 -11 19 -11 35 0 33 31 60 67 60 20 0 23 5 23 40 0 22 -5 40 -11 40 -6 0 -8
-9 -4 -20 4 -14 2 -19 -7 -17 -7 2 -10 2 -5 0 13 -8 7 -23 -9 -23 -26 0 -70
-30 -87 -60 -9 -15 -14 -29 -12 -32 3 -2 -8 -3 -25 0 -40 6 -53 23 -40 56 7
20 16 26 39 26 15 0 34 6 40 14 10 12 6 14 -24 13 -45 -1 -70 22 -61 57 4 16
13 26 25 26 18 0 55 33 46 42 -3 2 5 4 18 2 33 -4 33 -4 17 -17 -9 -7 -15 -16
-14 -22 3 -28 26 -65 46 -76 22 -11 22 -11 7 7 -20 23 -32 81 -19 89 6 3 10 0
10 -8 0 -8 9 -13 23 -11 12 1 25 3 30 3 4 1 7 17 7 36 0 27 -4 35 -17 35 -15
0 -16 -2 -3 -10 13 -8 13 -11 -1 -26 -24 -23 -59 -3 -59 35 0 30 34 81 54 81
8 0 11 12 8 35 -3 21 -10 35 -18 35 -25 0 -29 49 -5 74 11 12 21 29 21 37 0
10 28 25 85 44 58 19 85 33 86 44 0 9 2 24 4 34 2 9 -1 17 -5 17 -5 0 -4 13 1
29 6 16 9 51 7 77 -3 45 -4 41 -23 -56z m-314 -44 c-12 -14 -71 -23 -196 -31
-38 -2 -101 -6 -140 -9 -38 -3 -162 -12 -275 -20 -113 -8 -235 -18 -271 -22
-45 -4 -68 -3 -73 5 -4 6 -1 13 6 16 21 7 805 72 887 74 61 1 72 -1 62 -13z
m108 -166 c9 0 1 -61 -10 -75 -5 -7 0 -16 12 -23 22 -14 25 -47 5 -55 -8 -3
-17 -18 -20 -34 -4 -17 -19 -35 -38 -46 -17 -10 -28 -20 -25 -24 14 -13 -14
-43 -38 -41 -22 2 -25 7 -25 39 0 52 37 103 78 107 18 2 32 8 32 13 0 6 -4 7
-10 4 -5 -3 -10 1 -10 10 0 9 -13 21 -30 26 -66 24 -10 122 58 103 8 -2 17 -4
21 -4z m-233 -16 c-3 -9 -6 -24 -6 -34 0 -12 -9 -20 -22 -22 -20 -3 -18 -6 15
-22 37 -18 37 -19 17 -33 -20 -14 -60 -10 -46 4 4 4 -8 14 -26 23 -24 11 -34
23 -36 43 -5 41 14 57 65 57 37 0 44 -3 39 -16z m-610 -3 c-9 -14 25 -23 39
-11 14 12 65 3 65 -10 0 -5 -11 -22 -25 -39 -28 -32 -50 -32 -60 0 -6 19 -7
18 -25 -3 -19 -24 -23 -21 -33 27 -3 15 -6 13 -12 -12 -8 -36 -41 -46 -52 -17
-10 26 10 48 58 60 24 7 45 12 47 13 2 1 1 -3 -2 -8z m354 -6 c29 -15 40 -35
21 -35 -5 0 -7 -9 -4 -20 3 -13 17 -22 42 -27 34 -6 34 -7 11 -13 -14 -4 -24
-12 -22 -18 1 -7 -2 -12 -8 -12 -5 0 -10 -9 -10 -19 0 -11 -9 -26 -20 -34 -11
-8 -17 -17 -13 -20 3 -4 -5 -7 -19 -7 -76 0 -51 86 27 92 36 3 25 22 -16 29
-19 3 -40 9 -47 13 -17 10 -15 52 4 70 19 20 18 20 54 1z m130 -30 c4 -29 11
-43 28 -50 12 -5 22 -13 22 -16 0 -12 -54 -2 -58 10 -2 6 -10 11 -17 11 -31 0
-65 24 -65 45 0 30 20 46 55 43 27 -3 31 -7 35 -43z m229 27 c6 -11 6 -24 0
-33 -13 -21 -12 -24 29 -43 33 -17 35 -19 17 -27 -32 -12 -65 -10 -65 5 0 7
-15 17 -32 22 -59 17 -48 94 13 94 17 0 32 -7 38 -18z m-831 -25 c-7 -12 -12
-24 -11 -27 4 -14 -39 -7 -44 7 -8 20 32 54 52 46 12 -4 12 -9 3 -26z m382 -4
c-17 -29 -18 -38 -8 -45 9 -6 3 -8 -16 -6 -71 7 -61 88 11 88 l35 0 -22 -37z
m-100 12 c15 -19 3 -38 -21 -32 -11 3 -17 1 -13 -4 3 -5 12 -9 20 -9 8 0 14
-4 14 -10 0 -14 -33 -13 -48 2 -16 16 -15 33 4 52 19 20 28 20 44 1z m-32 -90
c1 -1 -9 -14 -22 -28 -14 -15 -22 -27 -18 -27 4 0 -1 -5 -11 -11 -14 -8 -23
-7 -37 6 -17 16 -19 15 -32 -11 -18 -37 -35 -41 -49 -10 -17 36 12 80 47 73
13 -2 29 2 35 10 8 9 23 11 48 7 20 -4 37 -8 39 -9z m-178 -21 c0 -8 -4 -14
-9 -14 -5 0 -12 -11 -15 -25 -4 -14 -13 -25 -21 -25 -8 0 -24 -18 -35 -40 -23
-45 -26 -46 -50 -25 -15 14 -18 14 -30 0 -7 -8 -21 -15 -32 -15 -15 0 -19 6
-16 26 4 36 31 53 58 37 12 -8 21 -9 25 -3 3 6 17 10 30 10 22 0 24 3 19 29
-5 22 -1 32 21 49 27 22 55 20 55 -4z m252 4 c-6 -7 -12 -26 -14 -43 -2 -21
-8 -30 -20 -29 -10 1 -15 -3 -12 -8 4 -6 -2 -8 -12 -6 -31 5 -30 52 2 77 30
23 74 30 56 9z m288 2 c0 -5 -5 -10 -11 -10 -6 0 -9 -6 -6 -14 7 -17 -28 -56
-51 -57 -14 0 -13 -2 3 -9 18 -7 19 -8 2 -15 -10 -4 -24 -2 -33 6 -21 17 -10
58 24 86 28 23 72 31 72 13z m196 4 c16 -4 20 -11 16 -30 -2 -13 -9 -24 -16
-24 -13 -1 -51 -50 -38 -50 4 0 13 5 20 12 7 7 12 8 12 2 0 -6 -16 -19 -34
-29 -34 -19 -35 -19 -56 0 -15 14 -19 26 -15 44 6 25 6 25 -14 7 -12 -11 -21
-25 -21 -32 0 -19 -18 -27 -46 -20 -34 9 -31 47 7 85 36 36 44 38 65 12 16
-18 17 -18 52 5 38 26 38 26 68 18z m-417 -34 c-6 -17 -18 -30 -27 -30 -14 0
-14 -2 -3 -9 8 -5 9 -11 3 -15 -11 -7 -42 19 -42 35 0 16 39 49 59 49 18 0 19
-3 10 -30z m-326 -96 c-6 -38 -44 -62 -63 -38 -16 19 11 61 42 66 13 2 24 4
24 3 1 0 -1 -14 -3 -31z m157 27 c0 -5 -13 -20 -29 -34 -17 -14 -27 -28 -24
-31 4 -3 -1 -6 -11 -6 -9 0 -19 7 -23 16 -6 15 -7 15 -19 -1 -7 -10 -20 -15
-29 -12 -17 7 -20 38 -4 54 13 13 49 5 49 -10 0 -6 7 -1 16 11 15 22 74 32 74
13z m200 -9 c0 -5 -9 -18 -20 -30 -23 -24 -26 -37 -7 -26 8 5 8 2 -2 -9 -16
-20 -42 -22 -59 -5 -30 30 3 78 55 78 18 0 33 -4 33 -8z m84 0 c9 -14 -13 -80
-28 -85 -23 -9 -54 3 -59 23 -6 24 2 36 38 54 34 18 42 19 49 8z m-198 -24 c3
-25 -44 -60 -75 -56 -35 4 -40 36 -10 60 30 23 81 20 85 -4z m281 -23 c-7 -14
-15 -25 -19 -25 -5 0 -8 -9 -8 -20 0 -27 -14 -25 -29 4 -19 35 -10 60 24 67
40 7 45 3 32 -26z m220 -20 c-2 -54 -3 -55 -35 -61 -35 -7 -62 8 -62 34 0 19
29 52 45 52 7 0 18 7 25 15 22 27 29 16 27 -40z m-97 31 c0 -8 -5 -16 -10 -18
-6 -2 -12 -17 -14 -33 -4 -33 -20 -43 -41 -25 -12 10 -15 10 -15 0 0 -10 -3
-10 -15 0 -18 15 -19 39 -2 61 21 28 97 39 97 15z m-780 -43 c0 -5 -7 -17 -15
-27 -8 -10 -12 -23 -9 -27 3 -5 -6 -9 -20 -9 -19 0 -27 7 -32 26 -4 17 -2 29
7 35 17 11 69 12 69 2z m62 -5 c-7 -7 -12 -20 -12 -30 0 -20 -34 -25 -45 -7
-10 15 24 49 49 49 15 0 17 -3 8 -12z m71 -17 c4 -4 -2 -19 -13 -34 -33 -41
-64 -15 -44 37 6 16 38 14 57 -3z m87 14 c0 -18 -27 -56 -43 -61 -29 -9 -43
10 -29 41 9 19 19 25 42 25 16 0 30 -2 30 -5z m54 -32 c-9 -36 -19 -47 -38
-40 -20 8 -20 31 0 51 26 26 45 20 38 -11z m159 5 c15 -11 16 -17 5 -45 -14
-38 -42 -43 -58 -12 -9 16 -8 26 5 45 18 27 24 29 48 12z m86 -47 c-27 -34
-41 -38 -58 -17 -27 32 38 89 68 61 12 -11 10 -18 -10 -44z m-156 32 c-10 -28
-24 -43 -34 -37 -5 3 -9 2 -8 -3 3 -20 -2 -25 -16 -13 -15 13 -20 51 -8 63 3
4 21 7 39 7 28 0 32 -3 27 -17z m275 -8 c2 -1 -5 -21 -15 -44 -22 -51 -50 -62
-75 -31 -24 29 -23 36 8 66 19 20 31 24 52 19 15 -4 28 -8 30 -10z m81 -6 c35
-12 36 -17 19 -54 -7 -15 -17 -24 -25 -21 -8 3 -11 1 -8 -4 9 -14 -39 -12 -53
2 -18 18 -15 41 8 66 24 26 19 25 59 11z m159 -15 c17 -5 15 -19 -4 -39 -12
-12 -13 -19 -5 -29 13 -16 -4 -26 -43 -26 -42 0 -73 55 -50 88 11 17 22 20 52
16 20 -3 43 -7 50 -10z m-764 -23 c10 -15 -4 -39 -25 -44 -25 -7 -36 17 -19
38 14 17 36 20 44 6z m78 -16 c-2 -11 -8 -21 -13 -23 -5 -2 -9 -10 -9 -19 0
-19 -30 -13 -44 10 -9 15 -7 22 13 38 30 24 57 21 53 -6z m86 -11 c4 -26 -22
-54 -49 -54 -24 0 -36 44 -18 66 18 22 63 14 67 -12z m92 -1 c0 -5 -9 -23 -20
-40 -21 -36 -47 -43 -57 -17 -8 22 9 47 38 55 34 10 39 10 39 2z m60 -21 c29
-23 19 -42 -21 -42 -18 0 -28 -4 -24 -10 3 -5 1 -10 -5 -10 -19 0 -23 30 -6
55 20 30 27 31 56 7z m108 -6 c15 -34 -10 -68 -46 -64 -37 4 -43 49 -10 72 31
22 43 20 56 -8z m-553 -7 c4 -6 13 -8 19 -6 22 9 34 -6 25 -31 -10 -27 -36
-39 -52 -23 -9 9 -9 16 1 31 20 32 -4 23 -28 -10 -26 -37 -50 -39 -50 -5 0 35
69 71 85 44z m783 -1 c14 -14 16 -42 2 -33 -6 3 -10 -4 -10 -17 0 -33 -18 -48
-56 -48 -68 0 -71 71 -4 95 47 17 54 17 68 3z m-118 -8 c0 -5 -4 -10 -10 -10
-5 0 -10 -8 -10 -17 -1 -41 -57 -72 -75 -42 -16 24 5 57 42 67 51 13 53 13 53
2z m-537 -6 c11 -11 -35 -75 -52 -72 -20 4 -27 44 -11 64 12 14 51 19 63 8z
m875 -46 c-10 -10 -23 -16 -27 -13 -5 3 -7 -3 -5 -12 5 -24 -37 -54 -65 -46
-12 3 -24 16 -28 31 -8 35 37 76 76 68 14 -3 33 -2 41 3 23 16 30 -9 8 -31z
m-808 22 c11 -7 12 -15 5 -36 -14 -39 -40 -53 -61 -32 -15 14 -15 21 -4 47 13
31 33 38 60 21z m680 3 c0 -19 -26 -73 -37 -77 -22 -9 -43 5 -43 29 0 25 14
40 45 48 31 7 35 7 35 0z m-590 -21 c0 -6 -10 -23 -35 -60 -1 -1 -10 0 -19 4
-19 7 -22 50 -3 57 20 8 57 8 57 -1z m75 -13 c4 -5 0 -18 -8 -27 -8 -9 -12
-23 -10 -29 7 -18 -32 -16 -47 2 -20 24 3 65 34 65 14 0 28 -5 31 -11z m90
-15 c-11 -8 -19 -20 -17 -26 2 -6 -8 -9 -23 -6 -31 6 -33 0 -2 -11 19 -8 20
-10 5 -16 -26 -11 -48 1 -48 26 0 29 28 48 70 48 34 0 34 0 15 -15z m-490 -15
c4 -5 0 -18 -9 -28 -9 -10 -16 -23 -16 -29 0 -17 -30 -15 -36 3 -13 34 43 83
61 54z m570 -9 c8 -27 -19 -70 -45 -70 -26 0 -50 27 -43 48 15 43 77 58 88 22z
m-476 -7 c-8 -10 -22 -26 -32 -35 -11 -9 -16 -22 -12 -27 9 -15 -28 -14 -43 1
-32 32 6 78 66 78 31 0 33 -2 21 -17z m591 -17 c0 -23 -38 -86 -51 -86 -45 0
-65 56 -33 91 22 25 84 21 84 -5z m-523 -6 c-4 -24 -36 -60 -53 -60 -22 0 -27
40 -8 61 23 26 65 26 61 -1z m652 -2 c-5 -9 -19 -24 -30 -32 -12 -8 -18 -19
-14 -25 3 -6 3 -11 -2 -12 -4 0 -16 -2 -27 -4 -26 -5 -43 4 -49 25 -7 29 15
52 59 60 61 11 74 9 63 -12z m-568 -7 c19 12 89 8 89 -6 0 -6 -10 -17 -22 -25
-11 -8 -28 -23 -37 -32 -20 -23 -38 -23 -53 2 -15 24 -40 27 -31 4 4 -12 2
-15 -8 -12 -8 2 -16 15 -17 28 -5 30 23 53 47 40 10 -5 23 -5 32 1z m-457 -22
c6 -5 2 -17 -9 -29 -16 -17 -16 -20 -2 -20 10 0 18 12 22 33 5 23 12 33 25 33
11 0 16 -6 13 -14 -3 -7 -2 -12 3 -11 5 1 17 -1 27 -6 10 -4 21 -5 24 -1 4 3
-2 6 -11 6 -10 0 -16 6 -13 13 2 6 15 10 28 9 32 -5 34 -9 19 -27 -8 -10 -9
-15 -1 -15 6 0 11 -11 11 -25 0 -20 -5 -25 -24 -25 -14 0 -27 -4 -31 -10 -3
-5 -13 -6 -22 -3 -11 4 -14 3 -9 -5 4 -7 17 -10 31 -6 12 3 26 1 30 -6 5 -8
13 -6 27 7 19 17 21 17 32 1 17 -23 13 -64 -5 -59 -8 2 -21 6 -31 8 -11 4 -18
-4 -23 -26 -7 -32 -26 -42 -75 -38 -34 3 -48 43 -29 86 8 17 18 31 22 31 23 0
-16 36 -49 45 -39 11 -52 31 -40 61 6 16 40 12 60 -7z m1094 15 c30 -9 28 -39
-5 -70 -36 -34 -77 -30 -81 8 -2 17 4 34 17 47 22 22 32 24 69 15z m133 -24
c-4 -13 -6 -27 -10 -73 -1 -5 -20 -7 -43 -5 -40 3 -43 5 -46 35 -2 23 3 35 20
47 29 21 85 18 79 -4z m-631 -10 c8 -15 7 -26 -7 -47 -9 -16 -17 -29 -18 -30
0 -1 -11 0 -23 4 -29 7 -29 40 0 70 26 28 34 29 48 3z m105 -21 c5 -22 3 -36
-8 -46 -22 -22 -65 -9 -73 22 -8 33 11 55 46 55 24 0 30 -5 35 -31z m-495 9
c-1 -21 -28 -51 -39 -43 -12 7 -15 38 -4 48 11 12 43 8 43 -5z m-281 -18 c8 0
11 -3 8 -6 -3 -4 -2 -15 4 -25 11 -21 45 -25 52 -6 2 6 7 9 10 6 10 -9 -13
-79 -26 -79 -7 0 -6 -4 3 -10 12 -7 12 -10 -4 -16 -24 -9 -48 21 -44 56 2 27
-8 50 -23 50 -5 0 -9 -4 -9 -10 0 -5 7 -10 15 -10 14 0 14 -3 0 -30 -19 -37
-65 -43 -65 -10 0 11 -7 23 -15 26 -23 9 -18 24 8 20 12 -1 22 -8 22 -14 0 -6
3 -14 8 -18 9 -10 9 4 -2 43 -11 37 -5 46 24 39 11 -3 26 -6 34 -6z m364 3
c-7 -2 -13 -11 -13 -19 0 -8 -4 -14 -10 -14 -5 0 -10 -7 -10 -15 0 -10 -10
-15 -30 -15 -25 0 -30 4 -30 25 0 30 24 45 70 44 19 0 29 -3 23 -6z m507 -38
c0 -32 -5 -47 -17 -53 -21 -11 -51 -8 -66 7 -14 14 9 66 36 79 40 19 47 14 47
-33z m-460 25 c12 -8 13 -13 3 -29 -7 -11 -10 -27 -7 -36 7 -17 -9 -20 -37 -5
-23 13 -24 37 -2 62 18 21 22 21 43 8z m556 -37 c-4 -16 -8 -35 -10 -42 -1 -8
-8 -17 -15 -19 -15 -5 -51 26 -51 44 0 17 39 44 63 44 16 0 18 -5 13 -27z
m111 -5 c2 -19 -4 -32 -23 -47 -32 -25 -47 -26 -68 -5 -21 21 -20 40 5 65 14
14 30 19 51 17 25 -2 32 -8 35 -30z m-581 11 c3 -6 1 -16 -5 -22 -6 -6 -11
-19 -11 -29 0 -21 -30 -24 -48 -6 -27 27 -6 68 34 68 13 0 26 -5 30 -11z m76
6 c10 -11 -27 -74 -44 -75 -21 0 -28 20 -15 45 15 30 44 45 59 30z m603 -37
c-4 -13 -9 -32 -12 -43 -3 -11 -10 -23 -15 -26 -15 -10 -59 2 -65 18 -9 23 18
62 46 66 52 8 53 8 46 -15z m-503 -11 c4 -7 11 -7 21 2 15 12 63 6 72 -9 7
-11 -15 -60 -27 -60 -4 0 -7 -5 -5 -12 3 -17 -31 -22 -48 -8 -8 7 -15 20 -15
30 0 10 -8 21 -17 25 -23 8 -29 6 -25 -10 4 -21 -29 -27 -49 -9 -19 17 -16 41
10 62 17 14 71 7 83 -11z m625 2 c-4 -16 -2 -19 11 -14 14 5 15 4 5 -6 -7 -7
-13 -21 -13 -31 0 -10 -8 -18 -17 -19 -10 -1 -31 -2 -48 -3 -29 -1 -54 17 -55
41 0 25 43 53 83 53 35 0 39 -2 34 -21z m-967 -7 c0 -5 -7 -24 -16 -42 -9 -18
-17 -42 -18 -53 -1 -23 -15 -31 -33 -19 -16 10 -5 52 13 52 11 0 12 4 3 19
-17 26 -4 51 26 51 14 0 25 -4 25 -8z m70 -30 c0 -17 -32 -52 -48 -52 -12 0
-13 -3 -5 -11 16 -16 5 -39 -18 -39 -23 0 -24 9 -3 38 8 12 12 27 9 32 -10 16
15 40 41 40 13 0 24 -3 24 -8z m462 -1 c-20 -14 -42 -58 -42 -83 0 -23 -4 -28
-25 -28 -32 0 -50 32 -34 63 21 40 37 52 74 53 19 0 32 -2 27 -5z m-399 -7
c17 -6 12 -37 -8 -54 -20 -17 -39 13 -25 39 12 23 12 23 33 15z m465 -6 c18
-23 -22 -88 -55 -88 -24 0 -43 26 -36 48 5 13 61 52 74 52 4 0 11 -6 17 -12z
m-693 -11 c16 -17 1 -49 -20 -41 -15 6 -20 35 -8 47 9 10 13 9 28 -6z m299 -3
c16 -42 -4 -71 -39 -58 -21 8 -19 51 3 63 24 14 29 13 36 -5z m508 -4 c12 0
15 -5 11 -15 -10 -27 -64 -75 -84 -75 -27 0 -24 -17 5 -27 23 -8 24 -9 11 -40
-10 -24 -21 -33 -38 -33 -49 0 -62 48 -26 94 11 14 17 31 14 36 -17 27 57 90
80 69 5 -5 17 -9 27 -9z m104 -25 c19 -14 19 -15 -2 -52 -27 -47 -64 -56 -88
-21 -20 29 -20 30 5 62 23 29 55 33 85 11z m-492 -32 c-5 -45 -15 -56 -45 -51
-15 2 -27 13 -33 29 -14 42 -2 59 43 59 l40 0 -5 -37z m616 24 c0 -2 -7 -19
-16 -37 -16 -30 -16 -35 0 -60 14 -25 14 -29 1 -40 -8 -7 -15 -20 -15 -30 0
-35 -34 -62 -82 -66 -40 -3 -46 0 -57 22 -16 35 -14 58 7 76 29 25 48 27 65 7
20 -22 27 -23 50 -6 15 11 14 12 -10 14 -15 0 -35 11 -45 23 -16 20 -16 24 -3
50 8 16 23 34 32 39 17 10 73 15 73 8z m-537 -52 c-4 -39 -19 -53 -41 -39 -37
24 -23 69 21 69 21 0 23 -4 20 -30z m147 -39 c-10 -29 -44 -27 -48 3 -4 29 15
43 39 28 12 -7 15 -17 9 -31z m-82 13 c10 -15 10 -25 3 -32 -14 -14 -41 9 -41
34 0 25 22 24 38 -2z m286 -65 c-7 -26 -24 -30 -55 -14 -23 13 -25 47 -3 72
16 17 18 17 41 -8 16 -18 21 -32 17 -50z m-315 17 c18 -33 -35 -74 -59 -46
-18 21 8 60 42 64 4 1 12 -7 17 -18z m307 -92 c4 -8 3 -9 -4 -5 -7 4 -12 3
-12 -3 0 -5 10 -11 23 -13 16 -2 22 -10 22 -28 0 -17 -5 -24 -15 -21 -8 2 -31
4 -50 3 -63 -1 -91 48 -49 87 20 18 24 19 50 6 15 -8 31 -20 35 -26z m-692
-43 c-1 -9 2 -16 6 -16 5 0 15 -7 24 -15 18 -19 10 -45 -14 -45 -23 0 -44 26
-36 45 3 9 0 15 -9 15 -18 0 -19 12 -3 28 16 16 33 9 32 -12z m-24 -161 c15
-18 5 -35 -20 -35 -22 0 -34 15 -26 35 7 19 30 19 46 0z"/>
<path d="M971 1658 c-36 -17 -41 -23 -26 -28 17 -6 17 -7 2 -13 -9 -3 -17 -12
-17 -19 0 -6 12 0 28 14 15 15 40 32 55 37 16 6 25 15 22 21 -9 14 -14 13 -64
-12z"/>
<path d="M1564 1653 c18 -17 25 -28 17 -31 -7 -2 -20 3 -30 12 -16 15 -19 15
-35 -3 -10 -11 -31 -23 -47 -26 -16 -4 -31 -11 -34 -16 -7 -10 28 -13 38 -2 4
3 19 8 34 10 62 7 176 31 156 32 -12 1 -29 11 -37 23 -9 12 -16 18 -16 12 0
-5 5 -15 12 -22 9 -9 8 -12 -4 -12 -20 0 -42 26 -33 40 4 6 -5 10 -22 10 l-28
0 29 -27z"/>
<path d="M120 1659 c0 -26 -31 -41 -70 -35 -33 5 -40 3 -40 -10 0 -14 7 -15
38 -10 20 3 44 6 53 6 9 0 21 11 27 25 15 32 15 35 2 35 -5 0 -10 -5 -10 -11z"/>
<path d="M528 1613 c-6 -17 -78 -52 -93 -47 -9 4 -15 0 -15 -9 0 -8 -21 -29
-47 -46 -63 -42 -42 -39 59 8 101 47 135 73 114 90 -8 7 -16 8 -18 4z"/>
<path d="M1236 1612 c-4 -7 54 -42 69 -42 3 0 5 10 4 23 0 12 -3 16 -6 10 -3
-10 -11 -9 -33 2 -16 8 -31 11 -34 7z"/>
<path d="M790 1595 c0 -9 6 -12 18 -8 16 6 16 5 -1 -14 -18 -21 -65 -39 -75
-29 -2 3 1 12 8 21 24 29 -1 15 -36 -20 -19 -19 -30 -35 -25 -35 5 0 16 7 25
15 8 8 17 15 20 15 3 0 6 -7 6 -15 0 -8 4 -15 8 -15 13 0 82 61 93 82 8 15 6
18 -16 18 -15 0 -25 -6 -25 -15z"/>
<path d="M2767 1593 c-14 -14 -17 -15 -17 -3 0 13 -2 13 -10 0 -7 -11 -10 -11
-10 -2 0 7 -5 10 -11 6 -8 -4 -5 -10 7 -17 24 -14 46 -18 39 -7 -3 5 7 7 22 6
16 -2 28 -5 28 -6 0 -9 56 -6 64 4 7 9 4 12 -12 13 -12 1 -23 7 -25 12 -2 7
-11 6 -23 -2 -15 -9 -21 -9 -27 0 -6 10 -12 9 -25 -4z"/>
<path d="M878 1583 c-19 -22 -38 -58 -38 -72 0 -18 22 -12 42 11 16 19 17 23
4 28 -11 3 -13 9 -6 20 8 12 12 13 19 2 6 -11 10 -10 15 3 8 23 8 25 -7 25 -8
0 -21 -8 -29 -17z"/>
<path d="M223 1576 c-28 -13 -30 -26 -3 -26 11 0 20 4 20 10 0 5 7 7 15 4 13
-5 11 -11 -10 -30 -27 -25 -45 -31 -45 -14 0 6 -4 10 -10 10 -5 0 -10 -7 -10
-15 0 -8 6 -15 13 -15 8 0 7 -4 -3 -10 -10 -7 -11 -13 -5 -17 6 -5 10 -15 10
-23 -1 -17 15 -31 27 -24 4 3 3 15 -1 28 -8 20 -5 24 23 34 18 7 46 12 63 12
32 0 73 37 73 65 0 15 -44 28 -48 15 -2 -6 -10 -10 -18 -10 -9 0 -13 -4 -10
-9 4 -5 -3 -7 -13 -4 -11 3 -22 11 -25 19 -6 16 -12 16 -43 0z"/>
<path d="M1627 1539 c-10 -6 -29 -8 -41 -5 -13 3 -26 2 -30 -1 -4 -4 -22 -6
-41 -5 l-33 3 -7 -55 c-4 -30 -4 -59 0 -65 3 -7 -2 -11 -14 -11 -27 0 -35 -17
-11 -23 11 -3 22 -1 25 3 3 5 18 11 35 15 31 7 43 28 40 73 -3 46 -1 52 24 52
38 0 86 12 86 21 0 12 -11 11 -33 -2z"/>
<path d="M790 1520 c-7 -14 -7 -20 0 -20 5 0 10 7 10 15 0 8 4 15 10 15 5 0 6
-7 3 -17 -4 -11 -3 -14 5 -9 17 10 15 36 -3 36 -8 0 -19 -9 -25 -20z"/>
<path d="M102 1473 c11 -14 10 -15 -10 -9 -14 5 -27 2 -38 -8 -8 -9 -24 -16
-34 -16 -21 0 -21 -32 1 -38 11 -3 11 -2 -1 7 -13 9 -13 10 0 15 8 2 30 9 49
15 l33 11 -8 -38 c-4 -20 -7 -47 -7 -59 1 -13 -3 -20 -8 -17 -15 9 -79 -16
-79 -30 0 -9 22 -14 78 -15 139 -4 195 -2 204 7 6 6 -11 8 -44 6 l-53 -3 50
10 c28 5 66 7 85 4 19 -2 29 -2 23 1 -7 3 -13 12 -13 20 0 17 -26 19 -33 2 -4
-10 -8 -10 -15 1 -6 8 -15 10 -22 6 -8 -5 -11 -4 -6 3 3 6 2 13 -4 17 -6 4
-10 -5 -10 -19 0 -17 -6 -26 -16 -26 -8 0 -13 4 -10 9 4 5 -3 7 -14 4 -11 -3
-20 -9 -20 -13 0 -4 -22 -7 -49 -7 -27 1 -45 5 -39 8 5 3 8 12 7 20 -2 8 3 31
10 51 7 21 10 42 6 48 -3 5 -2 10 4 10 5 0 12 -6 14 -12 4 -9 6 -9 6 -1 1 6
10 9 23 5 21 -5 20 -4 -3 19 -28 28 -80 39 -57 12z"/>
<path d="M1131 1479 c-24 -5 -47 -6 -51 -4 -11 7 -25 -15 -38 -61 -8 -29 -19
-43 -34 -47 -12 -4 -19 -9 -16 -13 14 -13 59 6 56 24 -2 11 5 18 20 20 30 5
29 -20 -4 -53 -30 -30 -26 -41 21 -49 19 -4 37 -11 40 -16 8 -13 -11 -13 -36
0 -15 9 -19 7 -19 -7 -1 -17 -1 -17 -14 0 -12 15 -46 15 -46 0 0 -14 22 -43
33 -43 8 0 8 3 -2 9 -8 5 -9 11 -3 15 5 3 12 -1 15 -8 7 -17 -16 -39 -29 -28
-4 4 -3 0 4 -9 20 -27 47 -13 47 23 0 18 6 33 14 36 8 3 11 0 7 -7 -4 -6 -2
-9 7 -5 7 2 26 0 42 -6 25 -9 27 -9 15 5 -18 22 -10 26 54 28 32 1 55 6 53 12
-2 6 -25 9 -51 7 -40 -3 -47 -1 -44 14 4 25 -22 30 -29 5 -6 -22 -19 -26 -40
-13 -9 6 -9 16 0 45 11 37 14 38 50 35 l38 -4 -3 53 c-2 29 -5 53 -8 52 -3 -1
-25 -5 -49 -10z m24 -29 c-26 -11 -72 -12 -78 -2 -3 4 18 8 47 9 35 1 45 -2
31 -7z m15 -30 c0 -6 -18 -10 -40 -10 -52 0 -52 14 0 17 22 2 40 -2 40 -7z"/>
<path d="M474 1470 c-12 -5 -25 -14 -29 -20 -6 -9 -2 -9 13 -1 28 15 37 14 22
-4 -6 -8 -9 -19 -5 -25 4 -6 1 -9 -6 -8 -6 2 -14 -3 -16 -9 -3 -8 4 -13 15
-13 13 0 22 9 26 28 4 15 9 35 12 45 6 19 0 20 -32 7z"/>
<path d="M940 1451 c-18 -5 -28 -18 -37 -49 -11 -41 -7 -52 13 -32 5 5 23 10
39 12 28 2 30 5 30 40 1 39 -2 41 -45 29z"/>
<path d="M410 1434 c0 -6 -6 -11 -12 -12 -21 -1 -93 -11 -98 -13 -3 -1 -12 -1
-22 0 -16 2 -34 -16 -25 -25 8 -9 187 27 194 39 4 6 1 7 -7 2 -7 -4 -16 -2
-21 6 -5 8 -9 9 -9 3z"/>
<path d="M824 1430 c-12 -5 -25 -21 -29 -37 -3 -15 -11 -31 -17 -34 -6 -4 -3
-12 6 -21 8 -9 12 -18 9 -22 -9 -9 -34 -8 -30 2 2 8 -6 12 -28 12 -9 0 -15 -9
-15 -21 0 -14 -5 -19 -14 -16 -27 11 -112 18 -91 8 11 -5 32 -10 47 -10 20 -1
26 -5 22 -16 -4 -10 -10 -12 -18 -6 -6 5 -34 11 -62 12 l-51 4 10 -32 c6 -18
17 -33 25 -33 9 0 12 -3 9 -7 -4 -3 -2 -12 4 -19 13 -16 -7 -30 -24 -16 -13
10 -47 12 -48 3 0 -3 -2 -17 -5 -31 -3 -21 -2 -22 7 -7 14 24 26 21 44 -10 13
-23 15 -24 10 -5 -5 17 -1 24 17 31 13 5 30 5 38 1 8 -5 32 -2 53 5 36 12 42
11 88 -13 35 -17 46 -28 37 -33 -10 -7 -10 -9 -1 -9 7 0 10 -6 7 -14 -3 -8 0
-17 6 -21 6 -4 8 -16 4 -27 -4 -14 -2 -18 5 -14 6 4 11 14 11 22 0 9 7 14 17
12 10 -2 18 4 18 12 2 25 -8 35 -15 16 -6 -17 -7 -17 -23 -1 -20 19 -14 35 14
35 10 0 19 4 19 8 0 11 -29 49 -30 38 0 -5 -6 -3 -14 4 -8 6 -12 19 -9 28 6
15 5 15 -10 3 -15 -12 -17 -12 -10 4 5 15 3 17 -11 12 -10 -4 -15 -3 -11 3 12
19 -4 10 -36 -22 -28 -28 -34 -30 -37 -15 -2 9 -7 15 -12 12 -5 -3 -11 -1 -15
5 -3 5 -11 10 -18 10 -6 0 -2 -7 9 -15 16 -13 17 -16 4 -25 -19 -12 -27 -13
-35 0 -3 6 2 10 11 10 16 0 16 1 -2 15 -27 20 -33 19 -26 -7 5 -19 3 -20 -9
-8 -22 20 -21 50 1 50 10 0 22 5 25 10 10 16 25 12 25 -7 0 -15 2 -14 14 2 8
11 12 23 10 27 -3 5 0 8 6 8 6 0 10 -6 8 -12 -3 -19 12 -58 23 -58 13 0 11 28
-3 32 -7 3 -8 9 -3 19 5 8 8 25 6 38 -2 15 1 21 8 16 6 -3 9 -11 5 -16 -5 -9
44 -2 55 7 2 2 12 -1 22 -6 10 -6 20 -6 23 -1 3 5 -3 11 -14 14 -11 3 -20 13
-20 22 0 9 -5 13 -11 9 -7 -4 -10 -1 -7 7 3 8 14 15 26 17 12 2 22 4 22 5 0 1
4 17 9 35 10 34 8 36 -25 22z m16 -272 c0 -15 -21 -18 -26 -4 -3 9 -14 16 -24
16 -21 0 -34 15 -25 30 6 10 75 -29 75 -42z"/>
<path d="M1565 1420 c-7 -12 32 -12 60 0 16 7 13 9 -17 9 -20 1 -40 -3 -43 -9z"/>
<path d="M175 1410 c-3 -5 -12 -7 -19 -4 -17 7 -25 -15 -15 -41 7 -18 8 -18 9
5 2 25 2 25 15 -5 8 -16 15 -23 15 -15 1 8 4 27 6 43 5 27 0 35 -11 17z"/>
<path d="M715 1410 c-9 -14 -25 -70 -20 -70 16 0 55 26 55 36 0 7 3 19 6 28 4
11 0 16 -14 16 -12 0 -24 -5 -27 -10z"/>
<path d="M2906 1405 c-2 -7 2 -22 10 -33 12 -17 12 -22 -1 -32 -8 -7 -14 -24
-14 -39 2 -22 2 -23 6 -4 3 14 9 20 19 16 8 -3 21 0 28 6 11 9 15 9 19 -1 3
-7 6 -3 6 10 1 22 0 22 -21 8 -34 -24 -44 -19 -18 9 l23 25 -21 0 c-28 0 -29
17 -2 25 27 9 25 20 -4 21 -14 1 -27 -4 -30 -11z"/>
<path d="M645 1405 c-5 -2 -22 -6 -36 -9 -20 -4 -28 -13 -31 -36 -3 -16 -1
-30 3 -30 4 0 16 -3 26 -6 15 -5 15 -4 3 5 -12 9 -9 11 16 11 24 0 33 5 38 23
11 43 8 51 -19 42z"/>
<path d="M1554 1391 c4 -5 1 -11 -5 -13 -7 -2 5 -4 25 -5 25 -1 36 3 36 13 0
9 -11 14 -31 14 -16 0 -28 -4 -25 -9z"/>
<path d="M516 1375 c-8 -8 -23 -15 -33 -15 -15 0 -16 2 -3 11 11 8 9 9 -10 3
-14 -4 -26 -11 -28 -15 -2 -5 -11 -9 -20 -9 -15 0 -15 2 -2 10 11 8 7 9 -15 4
-49 -10 -57 -13 -53 -26 5 -13 88 -21 88 -8 0 12 49 22 71 15 36 -12 19 -25
-23 -19 l-43 7 24 -27 c24 -25 44 -29 23 -4 -8 10 0 13 36 11 26 -1 39 1 29 3
-15 5 -18 13 -15 40 4 37 -2 42 -26 19z"/>
<path d="M1245 1371 c-3 -6 -8 -22 -11 -36 -4 -23 -3 -24 21 -13 27 12 25 31
-3 21 -15 -6 -15 -5 -3 10 8 10 11 20 8 23 -3 3 -8 0 -12 -5z"/>
<path d="M1397 1373 c-4 -3 -2 -12 4 -19 7 -9 5 -14 -10 -19 -11 -3 -21 -16
-23 -28 -2 -16 -10 -22 -28 -22 -21 0 -25 5 -25 28 1 15 -3 27 -7 27 -4 0 -8
-7 -8 -15 0 -8 -4 -15 -10 -15 -5 0 -10 -5 -10 -10 0 -5 5 -9 11 -7 6 1 14 -4
17 -12 2 -8 0 -11 -5 -8 -5 3 -15 2 -23 -4 -13 -7 -13 -9 -1 -9 9 0 6 -7 -9
-20 -13 -11 -19 -20 -15 -20 4 0 0 -9 -10 -20 -23 -25 -45 -26 -45 -1 0 35
-18 32 -24 -4 -4 -19 -11 -35 -16 -35 -23 0 -7 -18 19 -22 21 -3 28 -1 24 9
-3 9 4 13 21 13 16 0 26 -6 26 -15 0 -9 -6 -12 -15 -9 -8 4 -15 3 -15 0 0 -4
11 -11 25 -16 28 -11 31 -26 10 -53 -9 -13 -20 -17 -34 -12 -27 8 -28 35 -1
30 11 -2 18 0 15 6 -4 5 -13 9 -21 9 -8 0 -14 5 -14 10 0 6 -10 10 -22 10 -20
-1 -21 -2 -7 -13 16 -13 21 -60 6 -50 -5 3 -7 0 -5 -8 3 -8 17 -14 31 -14 31
1 35 -10 10 -24 -13 -7 -23 -5 -35 6 -13 11 -16 12 -14 1 1 -7 5 -18 9 -25 4
-6 1 -14 -5 -16 -9 -4 -7 -6 3 -6 9 -1 26 8 39 19 13 12 30 18 37 16 9 -4 13
4 13 22 1 33 48 91 60 73 5 -9 9 -7 12 7 5 19 18 21 73 9 17 -4 72 -9 123 -12
93 -4 93 -4 70 15 -14 11 -27 15 -32 9 -16 -15 -23 -11 -31 18 -5 21 -1 31 21
50 15 12 36 23 47 23 13 0 17 5 13 16 -3 9 -6 21 -6 27 0 12 -53 35 -97 42
-11 1 -31 6 -43 10 -17 5 -21 4 -17 -6 2 -8 10 -13 17 -11 6 1 10 -3 7 -10 -2
-7 -13 -12 -23 -11 -10 1 -21 -3 -25 -8 -8 -14 -39 0 -39 18 0 7 11 25 25 39
29 29 31 40 9 48 -19 7 -19 7 -27 -1z m149 -96 c4 -4 18 -7 32 -7 35 0 22 -23
-19 -32 -45 -10 -59 -4 -59 25 0 17 5 23 20 22 11 -1 23 -4 26 -8z m-141 -37
c7 -23 33 -27 41 -5 8 20 23 19 46 -2 21 -19 24 -48 4 -40 -24 9 -27 -6 -4
-17 23 -12 36 -36 19 -36 -11 0 -89 55 -127 90 -22 20 -34 17 -34 -6 0 -8 6
-11 15 -8 8 4 15 1 15 -5 0 -6 7 -11 15 -11 8 0 15 -7 15 -15 0 -8 -8 -15 -17
-15 -9 0 -24 -7 -34 -16 -11 -10 -19 -12 -23 -5 -4 6 2 16 12 22 17 11 18 14
4 30 -21 24 -32 15 -32 -26 0 -38 -8 -46 -37 -39 -21 6 -40 44 -21 44 5 0 6 4
3 10 -3 5 -1 19 5 31 9 16 19 20 41 17 17 -3 30 1 33 9 8 21 54 16 61 -7z m35
-70 c0 -5 6 -10 14 -10 8 0 16 -7 19 -14 4 -10 1 -13 -9 -9 -8 3 -20 0 -28 -6
-11 -9 -15 -6 -18 14 -3 13 -3 27 0 30 9 8 22 6 22 -5z"/>
<path d="M1485 1351 c-19 -8 -19 -8 2 -15 25 -8 46 0 38 15 -7 10 -13 10 -40
0z"/>
<path d="M1547 1353 c-4 -3 -7 -15 -7 -26 0 -14 5 -17 17 -13 9 4 19 2 22 -3
4 -6 12 -6 21 0 12 8 12 12 2 16 -7 2 -19 11 -26 19 -16 16 -20 17 -29 7z"/>
<path d="M920 1339 c0 -11 28 -38 41 -39 16 0 16 30 2 42 -15 11 -16 11 -10
-4 8 -22 3 -23 -17 -2 -11 10 -16 11 -16 3z"/>
<path d="M1620 1325 c0 -17 18 -19 38 -6 11 7 10 10 -3 15 -26 10 -35 7 -35
-9z"/>
<path d="M873 1323 c-18 -6 -16 -33 1 -33 8 0 17 -6 19 -12 3 -7 6 -4 6 7 1
26 -11 43 -26 38z"/>
<path d="M373 1306 c-13 -6 -23 -16 -23 -23 0 -7 -5 -13 -11 -13 -5 0 -7 5 -4
10 11 18 -27 24 -40 7 -7 -10 -21 -17 -31 -18 -10 -1 -4 -5 15 -9 19 -5 41 -6
50 -3 13 4 13 3 -1 -6 -9 -6 -33 -9 -52 -7 -20 3 -36 0 -36 -5 0 -5 27 -8 61
-8 46 1 59 5 55 15 -4 9 2 14 15 14 11 0 17 4 14 10 -3 6 1 7 9 4 13 -5 12 -9
-7 -25 -22 -18 -22 -18 36 -13 46 4 58 2 63 -11 5 -12 10 -13 20 -4 9 8 11 16
4 29 -13 23 -47 32 -54 13 -9 -22 -25 -6 -19 20 3 12 2 19 -2 14 -5 -4 -15 -1
-24 6 -12 10 -22 10 -38 3z"/>
<path d="M2964 1285 c-3 -8 -3 -19 1 -25 4 -6 2 -16 -3 -23 -11 -13 -24 -83
-14 -72 4 4 8 11 8 16 1 5 2 14 3 19 2 17 29 11 34 -7 3 -12 5 -9 6 8 0 14 -5
31 -11 37 -10 10 -10 17 -1 31 12 19 8 31 -9 31 -5 0 -11 -7 -14 -15z"/>
<path d="M760 1280 c-12 -7 -11 -10 5 -15 11 -4 32 -11 47 -17 15 -5 32 -7 39
-2 9 5 10 2 6 -9 -7 -20 25 -63 41 -53 14 9 4 36 -14 36 -8 0 -14 5 -14 10 0
16 29 24 43 12 8 -7 18 -6 31 4 27 19 45 18 39 -4 -2 -10 3 -25 13 -33 16 -13
16 -12 6 7 -6 11 -8 30 -5 42 6 25 4 26 -31 12 -20 -7 -28 -6 -36 8 -11 16
-11 16 -6 0 5 -16 -2 -17 -51 -16 -36 2 -57 7 -61 16 -4 11 -6 11 -13 0 -7
-10 -11 -10 -17 -1 -5 8 -13 9 -22 3z"/>
<path d="M1206 1261 c-13 -14 -14 -21 -5 -26 6 -5 15 -1 21 8 5 10 15 14 25
10 11 -4 14 -2 11 8 -7 22 -32 22 -52 0z"/>
<path d="M118 1259 c-18 -10 -15 -33 8 -57 10 -10 12 -4 11 28 -1 22 -2 40 -2
40 0 0 -8 -5 -17 -11z"/>
<path d="M2890 1261 c0 -21 13 -40 23 -34 6 4 8 0 4 -10 -3 -10 -2 -17 3 -17
12 0 24 46 15 59 -8 13 -45 15 -45 2z"/>
<path d="M180 1240 c0 -6 7 -13 15 -16 8 -3 17 -14 20 -25 5 -14 15 -19 38
-18 27 2 28 2 7 6 -44 8 -49 24 -5 20 21 -2 41 -9 43 -16 2 -6 16 -11 30 -12
l27 0 -25 -10 c-14 -6 -35 -8 -48 -6 -12 2 -25 0 -28 -4 -3 -5 23 -9 58 -10
35 0 80 -2 101 -4 20 -1 37 1 37 6 0 5 9 4 20 -3 25 -16 49 2 31 24 -58 68
-57 68 -34 11 5 -12 2 -15 -10 -10 -9 3 -17 2 -17 -3 0 -14 -76 -7 -78 8 -1 6
-3 18 -4 25 -1 14 -25 16 -45 4 -6 -4 -14 -3 -17 2 -3 4 -16 9 -28 9 -19 1
-47 6 -68 12 -3 1 4 5 15 10 18 8 17 9 -7 9 -16 1 -28 -4 -28 -9z"/>
<path d="M70 1210 c11 -7 3 -10 -30 -10 -33 0 -41 -3 -30 -10 24 -16 77 -12
84 6 9 23 8 24 -16 24 -19 0 -20 -2 -8 -10z"/>
<path d="M400 1205 c7 -8 9 -15 4 -15 -4 0 -3 -5 4 -12 8 -8 15 -9 22 -2 16
16 1 44 -22 44 -17 0 -18 -3 -8 -15z"/>
<path d="M1100 1195 c-7 -8 -15 -13 -19 -11 -4 3 -13 1 -21 -4 -8 -5 -22 -4
-32 1 -14 7 -20 6 -24 -6 -5 -11 -10 -13 -19 -5 -12 10 -25 4 -25 -11 0 -10
93 -5 111 6 9 6 11 4 6 -8 -5 -14 0 -13 23 5 17 12 30 28 30 35 0 17 -15 17
-30 -2z"/>
<path d="M2899 1183 c-1 -5 0 -18 1 -31 1 -13 -3 -28 -8 -35 -5 -7 -13 -28
-17 -47 -3 -19 -9 -43 -11 -52 -4 -13 -1 -16 10 -12 9 3 16 17 16 30 0 25 19
74 30 74 3 0 11 -5 18 -12 9 -9 12 -7 12 10 0 13 6 22 15 22 8 0 15 -9 15 -21
0 -12 -4 -18 -11 -13 -7 4 -10 1 -7 -7 3 -8 11 -14 19 -14 10 0 14 13 15 43 1
43 -6 49 -40 36 -9 -3 -16 -13 -16 -22 0 -13 -3 -12 -14 3 -10 14 -11 25 -5
37 7 14 6 18 -6 18 -8 0 -15 -3 -16 -7z"/>
<path d="M90 1155 c0 -17 33 -32 63 -29 15 1 25 -2 22 -7 -4 -5 7 -9 24 -9 16
0 33 -4 36 -10 3 -5 0 -10 -8 -10 -8 0 -20 -6 -26 -14 -9 -10 -8 -15 4 -20 9
-3 15 0 15 8 0 17 27 29 35 16 4 -6 16 -10 28 -9 22 0 22 0 -1 10 -35 14 -67
42 -67 59 0 11 -16 16 -63 20 -38 3 -62 1 -62 -5z"/>
<path d="M227 1158 c4 -7 8 -17 8 -23 0 -5 17 -11 38 -13 20 -2 37 -8 37 -14
0 -6 -11 -8 -27 -4 -21 5 -24 4 -13 -4 8 -5 23 -10 33 -10 9 0 16 -5 15 -12
-2 -7 13 -13 42 -14 25 -1 45 -3 45 -4 0 -2 11 -4 25 -5 14 -2 35 -6 48 -10
25 -8 30 6 7 25 -11 9 -15 9 -15 1 0 -12 -47 -5 -67 11 -7 5 -14 5 -18 -2 -3
-5 -12 -10 -18 -10 -7 0 -4 6 5 14 10 7 14 17 10 21 -4 5 -1 5 6 1 7 -4 12 -2
12 7 0 8 -9 14 -22 13 -16 -1 -23 -7 -23 -20 0 -11 -6 -21 -13 -24 -9 -3 -10
2 -2 22 11 31 4 36 -44 32 -28 -3 -40 1 -49 15 -6 10 -15 19 -20 19 -4 0 -5
-6 0 -12z"/>
<path d="M906 1157 c-19 -14 -19 -15 1 -25 11 -6 23 -9 26 -6 3 3 5 -1 4 -8
-1 -31 4 -48 14 -48 7 0 8 11 4 31 -5 22 -4 29 4 25 6 -4 11 -16 11 -27 0 -25
15 -25 17 1 1 13 -8 25 -27 35 -15 8 -30 19 -32 25 -2 7 -10 6 -22 -3z"/>
<path d="M610 1119 c8 -14 4 -18 -20 -21 -16 -2 -28 0 -27 5 1 5 -4 12 -10 14
-7 3 -13 0 -13 -6 0 -6 -8 -11 -17 -12 -14 0 -12 -3 5 -10 18 -7 22 -14 17
-29 -4 -12 -2 -20 5 -20 6 0 8 5 4 12 -4 6 -3 8 4 5 11 -7 5 -47 -7 -47 -4 0
-12 5 -19 12 -7 7 -12 8 -12 3 0 -20 16 -32 37 -30 27 2 43 16 25 22 -6 3 -9
9 -6 14 3 6 11 6 20 -2 7 -6 11 -15 8 -20 -3 -5 -1 -9 5 -9 5 0 11 5 13 12 3
7 7 5 11 -6 4 -10 3 -15 -3 -11 -6 3 -10 1 -10 -5 0 -7 -8 -9 -22 -4 -26 7
-24 5 15 -19 15 -10 27 -14 26 -10 -1 4 0 11 1 16 9 28 3 67 -12 76 -10 6 -18
7 -18 2 0 -5 6 -12 13 -14 8 -4 7 -6 -4 -6 -8 -1 -26 11 -40 26 -18 20 -20 25
-6 20 9 -4 17 -2 17 4 0 7 7 8 18 4 9 -4 28 -8 41 -9 13 -1 30 -10 37 -22 12
-18 11 -23 -6 -42 -20 -21 -20 -21 -1 -31 14 -8 22 -7 30 3 9 11 9 15 -1 19
-10 3 -11 8 0 26 15 25 15 34 2 26 -5 -3 -10 3 -10 14 0 10 -3 26 -6 34 -3 10
1 17 13 19 13 3 11 5 -9 10 -16 3 -25 1 -22 -4 4 -5 -2 -8 -12 -7 -11 2 -25
-1 -33 -5 -11 -7 -13 -5 -9 6 4 8 0 15 -7 15 -10 0 -11 -5 -5 -18z"/>
<path d="M410 1108 c0 -24 17 -31 25 -10 6 16 7 16 16 0 6 -10 17 -14 29 -11
21 5 21 6 2 23 -24 23 -72 21 -72 -2z"/>
<path d="M775 1120 c3 -5 1 -10 -4 -10 -19 0 -12 -18 9 -25 22 -7 27 -30 8
-41 -7 -4 -8 -3 -4 4 5 8 0 12 -13 12 -15 0 -21 6 -21 21 0 18 -2 19 -15 9
-13 -11 -12 -16 12 -36 16 -13 31 -24 35 -24 4 0 9 -9 13 -20 3 -11 9 -19 13
-19 20 3 31 -3 37 -21 8 -24 25 -27 25 -4 0 8 -5 12 -11 9 -6 -4 -9 0 -7 11 2
11 -2 18 -9 17 -7 -2 -13 1 -13 7 0 6 -7 10 -15 10 -8 0 -15 7 -15 15 0 8 5
15 10 15 18 0 11 29 -10 40 -11 6 -17 16 -14 25 4 8 1 15 -6 15 -6 0 -8 -4 -5
-10z"/>
<path d="M1040 1121 l-25 -7 22 -12 c31 -17 43 -15 43 8 0 21 -2 22 -40 11z"/>
<path d="M1140 1120 c-1 -8 -2 -18 -1 -22 0 -5 -8 -17 -20 -29 -14 -14 -18
-24 -11 -31 23 -23 52 23 41 67 -3 17 -8 23 -9 15z"/>
<path d="M112 1090 c-6 -11 -12 -28 -11 -37 0 -11 3 -13 6 -5 2 6 9 10 14 6 5
-3 9 -1 9 5 0 5 -6 11 -12 13 -7 3 -2 7 11 11 19 5 22 2 18 -14 -6 -22 -4 -23
38 -33 30 -8 30 -7 10 12 -14 13 -22 16 -27 8 -5 -6 -8 -3 -8 10 0 19 -17 44
-30 44 -3 0 -11 -9 -18 -20z"/>
<path d="M4 1076 c0 -14 7 -26 14 -26 7 0 11 4 8 8 -2 4 11 6 30 4 21 -3 34 0
34 7 0 6 -3 11 -7 12 -10 1 -32 6 -59 14 -19 6 -22 3 -20 -19z"/>
<path d="M1540 1081 c-8 -6 -17 -8 -21 -5 -4 2 -11 -1 -15 -7 -4 -8 -3 -9 4
-5 12 7 17 -6 6 -17 -10 -9 -34 4 -34 19 0 23 -26 16 -38 -11 -10 -21 -9 -25
3 -25 8 0 15 8 15 17 0 15 1 15 13 -1 8 -10 12 -29 9 -42 -5 -30 -44 -32 -71
-5 -10 10 -33 22 -50 26 -17 4 -29 11 -25 16 3 5 3 9 0 9 -2 0 -11 3 -20 6
-10 4 -16 1 -16 -9 0 -8 -7 -20 -15 -27 -8 -7 -15 -23 -15 -36 0 -13 -6 -24
-12 -24 -8 0 -9 -3 -3 -8 18 -13 15 -30 -4 -25 -29 7 -46 -30 -25 -52 12 -11
20 -13 27 -6 16 16 27 13 20 -6 -4 -11 -3 -14 6 -9 7 5 10 14 7 21 -3 8 2 19
11 26 13 11 18 10 29 -6 16 -21 10 -54 -14 -72 -19 -16 -48 -17 -57 -3 -3 6
-15 10 -26 10 -22 0 -49 22 -49 39 0 6 6 11 13 11 8 0 8 3 -2 9 -8 5 -20 7
-27 4 -20 -7 -27 16 -10 33 9 8 16 12 16 7 0 -4 9 -14 20 -21 18 -11 20 -10
17 8 -4 27 -17 38 -47 42 -19 2 -25 9 -24 26 0 17 -5 22 -23 22 -13 0 -23 4
-23 9 0 5 -16 1 -35 -7 -27 -13 -32 -19 -23 -29 8 -10 13 -11 18 -2 6 8 9 8
14 0 4 -6 12 -11 18 -11 7 0 6 5 -1 14 -8 10 -9 16 -1 21 5 3 10 1 10 -4 0 -6
6 -11 14 -11 8 0 17 -7 20 -15 3 -10 1 -15 -7 -14 -6 1 -20 -1 -31 -6 -10 -4
-21 -4 -25 1 -12 18 -40 14 -46 -6 -8 -26 -29 -25 -48 3 l-16 22 -1 -30 c-1
-16 -4 -24 -7 -17 -2 6 -11 12 -19 12 -15 0 -31 47 -19 58 3 4 13 -2 21 -12 8
-11 14 -15 14 -9 0 6 -7 16 -15 23 -28 24 -15 29 64 27 68 -2 81 1 91 16 6 11
9 22 5 25 -3 4 -10 0 -15 -8 -12 -19 -59 -23 -79 -7 -8 7 -12 7 -9 2 4 -7 -6
-11 -28 -11 -32 0 -39 6 -35 31 1 6 -6 2 -16 -9 -12 -12 -14 -20 -7 -23 13 -4
7 -43 -6 -43 -5 0 -6 9 -3 20 5 21 -11 28 -22 10 -3 -5 -1 -10 5 -10 6 0 8 -5
5 -10 -4 -6 1 -23 11 -37 12 -19 13 -28 6 -31 -7 -2 -12 -8 -12 -14 0 -5 8 -7
19 -3 10 3 23 -1 30 -9 10 -12 17 -13 31 -4 25 16 50 3 50 -27 0 -17 5 -25 17
-25 28 0 103 -41 103 -56 0 -8 5 -14 10 -14 6 0 10 4 10 10 0 5 9 14 21 20 25
14 49 -2 49 -33 0 -19 1 -19 19 -3 19 18 61 15 61 -4 0 -14 54 -6 68 10 10 11
15 12 18 3 8 -18 5 -28 -6 -28 -5 0 -10 -3 -10 -7 0 -5 0 -10 0 -13 0 -3 11 2
25 11 14 9 25 24 25 33 0 13 -2 13 -9 2 -7 -11 -10 -9 -16 8 -5 17 -10 19 -25
11 -26 -14 -27 -13 -24 13 4 33 4 33 14 17 5 -8 12 -11 16 -8 3 4 -4 21 -16
38 -16 23 -21 39 -16 61 4 21 2 29 -8 29 -9 0 -12 -7 -9 -21 5 -17 2 -20 -18
-17 -20 2 -24 9 -25 38 0 19 6 41 14 49 13 13 20 12 61 -10 44 -23 46 -25 43
-64 -2 -22 -11 -48 -19 -57 -14 -15 -11 -16 31 -15 25 1 46 5 46 9 0 3 8 5 18
4 21 -4 19 -18 -4 -26 -16 -6 -16 -7 1 -14 11 -4 22 -2 27 6 6 10 10 10 18 -2
5 -8 11 -19 13 -24 5 -14 47 4 47 20 0 9 -11 14 -29 14 -20 0 -36 8 -50 28
-11 15 -21 22 -21 17 0 -6 -12 -11 -27 -10 -20 0 -28 6 -34 27 -6 22 -3 30 17
43 25 16 60 20 66 6 2 -4 28 -5 58 -1 30 4 57 3 58 -1 2 -5 8 -9 13 -9 6 0 6
6 0 18 -7 13 -23 17 -68 17 -54 0 -58 2 -61 25 -3 21 -2 22 12 11 13 -11 16
-11 16 2 0 22 24 39 38 25 15 -15 42 -3 42 19 -1 17 -1 17 -14 0 -13 -16 -14
-16 -27 3 -10 14 -18 17 -29 11z m-480 -140 c0 -6 12 -6 31 -1 22 7 29 6 26
-3 -2 -7 -18 -12 -35 -12 -38 -1 -44 -19 -7 -23 14 -2 25 -10 25 -18 0 -8 5
-12 10 -9 8 5 8 11 0 20 -8 10 -8 15 0 20 6 4 12 5 14 4 31 -43 47 -71 36 -64
-10 6 -12 4 -7 -7 8 -22 -2 -29 -25 -17 -11 6 -17 13 -14 17 7 7 -65 33 -75
26 -13 -8 -27 50 -15 63 13 14 36 17 36 4z"/>
<path d="M1379 1073 c-1 -5 -1 -11 0 -15 0 -5 -7 -8 -16 -8 -17 -1 -17 -1 -1
-10 9 -6 25 -7 35 -3 18 8 18 9 1 26 -10 9 -19 14 -19 10z"/>
<path d="M248 1053 c12 -2 22 -9 22 -14 0 -5 -12 -6 -27 -3 -16 4 -25 3 -20
-2 4 -4 18 -10 30 -12 12 -2 29 -5 37 -7 8 -2 17 -4 20 -4 10 -2 6 -41 -4 -41
-5 0 0 -9 12 -20 12 -11 31 -20 43 -20 11 0 32 -9 46 -20 19 -15 21 -20 9 -20
-9 0 -16 4 -16 9 0 9 -78 27 -84 19 -2 -1 -7 -14 -10 -28 -5 -16 -4 -20 2 -12
7 10 18 8 55 -8 26 -12 47 -25 47 -30 0 -6 5 -10 10 -10 6 0 10 11 10 25 0 16
6 25 15 25 9 0 15 -9 15 -25 0 -19 8 -28 36 -40 22 -9 33 -19 28 -26 -4 -8 -3
-9 5 -5 21 13 53 -4 48 -26 -4 -12 -1 -18 6 -15 7 3 11 10 9 17 -2 7 5 9 19 5
15 -5 20 -3 17 6 -3 8 -35 26 -71 40 -37 14 -70 28 -73 32 -12 11 13 8 53 -7
59 -22 93 -28 93 -16 0 6 -4 9 -9 5 -5 -3 -12 -1 -16 5 -4 6 -11 8 -16 5 -5
-4 -9 3 -9 15 0 11 -6 23 -14 26 -8 3 -12 13 -9 22 4 15 3 15 -6 2 -9 -13 -13
-13 -33 -1 -21 13 -22 13 -10 -1 7 -9 24 -19 38 -22 14 -4 24 -12 22 -18 -7
-21 -23 -19 -50 6 -14 14 -29 22 -32 19 -12 -12 -35 31 -24 44 10 12 4 17 -16
14 -5 -1 -13 4 -18 11 -7 10 -11 10 -21 -3 -12 -16 -42 -15 -32 1 3 4 -6 11
-20 14 -14 4 -25 11 -25 16 0 14 33 13 47 -1 6 -6 30 -13 52 -14 36 -3 41 -1
42 18 0 12 3 16 6 9 2 -6 9 -10 14 -6 5 3 9 -2 9 -10 0 -8 -4 -18 -10 -21 -12
-7 -13 -25 -2 -25 5 0 13 16 19 35 6 19 7 33 2 30 -4 -3 -17 3 -28 14 -20 20
-20 20 -26 1 -4 -11 -3 -25 1 -31 4 -8 3 -9 -4 -5 -7 4 -12 20 -12 35 0 40
-43 49 -65 15 -9 -13 -23 -24 -33 -23 -14 0 -14 2 -2 6 31 12 34 43 4 43 -8 0
-14 -7 -14 -15 0 -10 -9 -14 -25 -13 -31 3 -33 18 -2 19 21 1 21 1 -3 9 -14 4
-36 8 -50 8 -23 -1 -23 -1 -2 -5z"/>
<path d="M12 1023 c0 -5 -2 -16 -7 -26 -4 -10 -5 -21 -1 -24 3 -4 6 1 6 10 0
10 5 17 11 17 6 0 8 -8 5 -17 -5 -15 -4 -15 9 1 21 27 19 46 -5 46 -11 0 -19
-3 -18 -7z"/>
<path d="M730 1010 c24 -18 44 -17 38 2 -2 6 -17 12 -33 14 l-30 3 25 -19z"/>
<path d="M64 988 c-4 -18 -7 -43 -7 -55 0 -22 -20 -32 -30 -15 -2 4 -2 1 0 -7
2 -9 -2 -11 -14 -7 -11 4 -8 -1 7 -14 19 -15 21 -20 9 -20 -20 0 -33 -27 -18
-36 6 -3 16 -1 22 6 9 10 9 11 -1 6 -6 -4 -12 -3 -12 2 0 14 34 25 38 13 2 -6
9 -11 16 -11 6 0 27 -13 46 -30 19 -16 39 -29 44 -30 5 0 18 -7 28 -17 17 -15
18 -15 18 2 0 12 5 15 18 10 9 -4 25 -10 34 -12 10 -3 15 -10 11 -17 -3 -6 -3
-8 2 -4 4 4 14 1 22 -7 8 -8 19 -15 25 -15 17 0 -44 50 -69 56 -13 4 -23 11
-23 16 0 6 -11 8 -24 4 -16 -4 -32 2 -52 19 -16 14 -23 25 -16 25 8 0 12 12
10 34 -1 19 -6 32 -11 29 -5 -3 -6 -16 -3 -29 6 -23 4 -24 -21 -18 -67 16 -98
36 -45 29 15 -2 21 -2 15 1 -7 3 -13 15 -13 27 0 15 3 18 8 9 6 -9 12 -6 20
13 7 15 8 25 2 25 -6 0 -10 -5 -10 -11 0 -5 -5 -7 -11 -3 -20 12 7 24 39 18
24 -5 32 -12 32 -28 0 -16 2 -18 9 -7 8 12 19 10 69 -12 69 -31 73 -32 66 -13
-3 8 2 16 13 19 10 3 4 5 -14 6 -18 0 -33 6 -33 13 0 6 -8 20 -17 30 -17 19
-16 19 12 12 17 -4 26 -3 22 2 -11 12 -57 16 -57 5 0 -5 7 -17 16 -26 9 -9 14
-18 12 -21 -8 -8 -68 8 -62 17 3 5 -3 6 -12 2 -12 -5 -15 -3 -9 6 6 10 2 11
-15 6 -14 -5 -20 -3 -16 3 4 7 -41 32 -59 32 -1 0 -6 -15 -11 -32z"/>
<path d="M960 1000 c0 -16 34 -43 43 -33 9 9 -5 33 -15 27 -6 -4 -14 0 -19 7
-7 12 -9 11 -9 -1z"/>
<path d="M1324 983 c4 -5 13 -8 19 -8 7 0 11 -13 10 -28 -1 -17 3 -27 11 -27
20 0 16 49 -5 60 -21 12 -46 13 -35 3z"/>
<path d="M520 961 c-14 -27 -13 -28 14 -35 13 -3 32 -9 41 -13 13 -4 16 -2 13
8 -3 8 -10 15 -16 15 -7 1 -19 2 -28 3 -11 1 -13 7 -9 21 8 26 -1 26 -15 1z"/>
<path d="M755 970 c-4 -6 -9 -8 -13 -6 -4 2 -8 -9 -9 -24 -1 -18 4 -30 14 -34
13 -5 14 -1 10 24 -5 25 -3 30 12 30 11 0 21 -5 23 -12 6 -16 28 0 28 20 0 15
-2 15 -10 2 -7 -12 -12 -12 -22 -2 -15 15 -25 15 -33 2z"/>
<path d="M2870 951 c0 -5 7 -12 16 -15 8 -3 12 -10 9 -16 -3 -5 -1 -10 4 -10
17 0 13 37 -5 44 -21 8 -24 8 -24 -3z"/>
<path d="M2930 950 c-13 -8 -12 -10 3 -10 10 0 15 -4 12 -10 -3 -5 1 -10 9
-10 9 0 14 8 13 20 -1 22 -14 25 -37 10z"/>
<path d="M667 928 c-14 -22 -15 -22 -34 -5 -11 9 -23 14 -26 10 -13 -12 -7
-23 12 -23 10 0 24 -7 32 -16 8 -10 21 -13 36 -9 12 3 31 1 40 -4 10 -5 33
-16 51 -23 20 -8 39 -26 49 -45 15 -33 33 -44 33 -20 0 6 11 -1 23 -17 23 -29
24 -29 29 -8 5 17 2 22 -12 22 -10 0 -23 7 -30 15 -7 8 -19 15 -26 15 -8 0
-14 5 -14 10 0 9 8 12 26 9 13 -2 22 25 15 40 -5 9 -6 21 -4 28 2 6 -1 14 -6
18 -6 3 -11 1 -11 -5 0 -6 -5 -8 -11 -5 -6 4 -8 14 -4 24 5 12 4 13 -6 4 -10
-10 -9 -15 0 -27 7 -8 10 -20 6 -26 -4 -6 -1 -9 6 -8 6 2 14 -3 16 -9 6 -16
-23 -17 -33 -2 -4 8 -9 7 -15 -2 -8 -12 -11 -11 -19 1 -5 8 -8 21 -5 28 7 18
-13 14 -24 -5 -10 -17 -12 -17 -25 0 -8 10 -20 15 -30 11 -9 -3 -16 -1 -16 5
0 21 4 26 18 23 8 -2 11 1 7 7 -10 18 -32 13 -48 -11z"/>
<path d="M197 906 c-4 -10 -6 -19 -5 -20 2 -1 13 -6 24 -13 21 -12 34 -8 34 9
0 4 -9 8 -19 8 -11 0 -21 8 -23 18 -3 15 -4 15 -11 -2z"/>
<path d="M2817 881 c-17 -18 -17 -19 5 -25 34 -9 57 -6 33 4 -19 8 -19 9 2 9
30 1 37 17 10 25 -29 8 -29 8 -50 -13z"/>
<path d="M251 861 c-10 -17 -9 -20 5 -14 11 4 22 -1 30 -12 8 -10 17 -16 20
-12 4 4 12 3 18 -3 7 -5 18 -5 26 0 10 6 3 10 -23 15 -21 4 -44 16 -51 27 -14
20 -14 20 -25 -1z"/>
<path d="M635 850 c-16 -6 -15 -8 10 -13 17 -3 39 -9 50 -13 18 -7 18 -6 5 7
-21 21 -42 27 -65 19z"/>
<path d="M930 840 c0 -5 -10 -10 -22 -11 -13 0 6 -10 42 -22 54 -18 65 -25 63
-42 -1 -11 0 -14 3 -7 7 14 34 17 34 3 0 -5 -6 -12 -12 -14 -10 -4 -9 -8 2
-16 10 -7 17 -6 22 2 6 9 13 7 25 -8 14 -18 15 -18 9 -2 -3 10 -6 22 -6 27 0
4 -8 10 -19 13 -21 5 -34 60 -17 77 7 7 6 10 -2 10 -10 0 -15 -11 -14 -30 0
-3 -18 -6 -40 -8 -33 -2 -41 1 -45 18 -5 20 -23 28 -23 10z"/>
<path d="M32 820 c-12 -5 -22 -11 -22 -13 0 -8 70 1 71 9 0 13 -22 15 -49 4z"/>
<path d="M1410 820 c0 -5 9 -10 20 -10 11 0 20 -7 20 -15 0 -8 -4 -15 -10 -15
-5 0 -10 -5 -10 -11 0 -8 4 -8 15 1 8 6 19 8 26 4 7 -4 9 -2 5 7 -3 8 -9 22
-12 32 -7 18 -54 25 -54 7z"/>
<path d="M2790 815 c0 -8 9 -24 19 -34 17 -17 20 -17 25 -4 7 16 -12 47 -31
51 -7 1 -13 -5 -13 -13z"/>
<path d="M653 814 c-8 -4 -6 -17 8 -47 27 -61 25 -71 -10 -52 -34 17 -92 10
-84 -10 2 -8 11 -16 20 -19 10 -4 13 -2 10 8 -13 32 62 20 83 -13 4 -8 18 -7
46 4 l39 15 -38 -6 c-27 -3 -37 -2 -32 6 3 5 10 8 15 5 5 -3 11 -1 15 4 3 6
15 7 28 2 68 -25 72 -17 7 16 -41 21 -76 45 -76 53 -1 8 -2 21 -3 28 -1 12 -8
14 -28 6z"/>
<path d="M0 782 c0 -5 11 -18 25 -30 14 -12 25 -17 25 -12 0 6 5 9 11 8 6 -2
13 2 16 8 2 6 -3 11 -12 11 -8 0 -15 -4 -15 -8 0 -5 -7 -6 -15 -3 -12 5 -13
10 -4 20 9 11 7 14 -10 14 -11 0 -21 -4 -21 -8z"/>
<path d="M462 759 c-13 -17 -29 -26 -37 -22 -8 3 -15 1 -15 -5 0 -15 31 -24
45 -12 6 5 14 7 17 4 3 -2 8 2 11 11 4 8 1 15 -5 15 -7 0 -6 5 2 15 7 9 11 17
9 19 -2 2 -14 -9 -27 -25z"/>
<path d="M1181 767 c7 -15 17 -27 23 -27 11 0 -25 -29 -37 -30 -5 0 -5 9 -2
20 4 11 2 20 -4 20 -6 0 -8 7 -5 15 4 8 1 15 -5 15 -6 0 -11 -9 -11 -19 0 -10
-7 -21 -15 -25 -8 -3 -12 -12 -9 -21 4 -10 0 -15 -12 -15 -16 0 -17 -2 -4 -10
8 -5 18 -10 21 -10 12 0 17 39 6 43 -6 2 -4 6 5 10 12 4 16 1 13 -12 -4 -22 5
-36 27 -37 11 -1 14 4 11 13 -5 11 -1 14 13 9 14 -4 22 1 31 21 7 14 10 23 6
19 -10 -9 -34 15 -26 28 3 6 3 8 -2 4 -4 -4 -14 -3 -22 4 -12 10 -12 7 -2 -15z"/>
<path d="M128 758 c3 -13 -1 -18 -16 -18 -33 0 -51 -11 -45 -26 3 -8 9 -14 14
-14 4 0 6 7 2 15 -3 9 -2 15 3 14 21 -4 41 3 63 20 l24 18 -25 5 c-21 4 -24 1
-20 -14z"/>
<path d="M950 771 c0 -6 5 -11 12 -11 6 0 8 -3 5 -6 -4 -4 -13 -1 -22 6 -9 7
-18 11 -21 8 -2 -3 6 -12 20 -21 22 -15 25 -15 41 3 10 11 13 20 7 20 -6 0
-17 3 -26 6 -9 3 -16 1 -16 -5z"/>
<path d="M528 756 c-20 -15 -14 -26 15 -26 11 0 17 3 14 7 -4 3 -2 12 4 20 15
18 -9 17 -33 -1z"/>
<path d="M1270 760 c0 -5 5 -10 10 -10 6 0 10 -5 10 -11 0 -6 -8 -9 -19 -6
-14 3 -17 0 -14 -14 5 -19 11 -18 52 10 12 8 12 12 -2 25 -18 18 -37 21 -37 6z"/>
<path d="M374 745 c19 -14 19 -15 -7 -15 -15 0 -27 -4 -27 -8 0 -5 14 -7 31
-4 34 5 38 35 4 40 -20 3 -20 3 -1 -13z"/>
<path d="M168 731 c-15 -13 -13 -16 19 -32 20 -10 40 -16 44 -13 5 3 9 0 9 -5
0 -6 -10 -11 -22 -11 -19 0 -20 -2 -8 -10 8 -5 22 -7 32 -4 9 2 19 0 23 -5 3
-6 0 -8 -8 -5 -8 3 -18 0 -23 -7 -4 -8 -3 -10 4 -5 7 4 12 3 12 -3 0 -6 7 -8
15 -5 8 4 15 1 15 -5 0 -6 7 -11 15 -11 8 0 15 -5 15 -11 0 -18 53 -6 56 13 1
10 -2 20 -7 24 -5 3 -9 -2 -9 -10 0 -21 -13 -20 -33 2 -20 22 -23 39 -4 24 14
-12 57 -5 57 8 0 10 -20 8 -37 -3 -8 -5 -13 -3 -13 4 0 6 -8 9 -20 6 -11 -3
-18 -1 -15 3 3 5 -1 11 -7 13 -10 4 -10 7 -1 14 18 13 -4 39 -37 47 -14 3 -19
3 -12 0 13 -6 7 -24 -8 -24 -5 0 -15 6 -22 13 -11 11 -16 10 -30 -2z"/>
<path d="M5 709 c-6 -27 -2 -36 31 -70 21 -21 47 -39 58 -39 16 0 17 3 8 12
-9 9 -5 18 19 40 34 32 22 46 -25 29 -22 -9 -26 -15 -21 -38 3 -16 2 -21 -2
-13 -3 8 -14 22 -25 31 -10 9 -18 23 -18 30 0 11 -2 11 -11 -1 -8 -11 -9 -7
-4 18 8 41 -1 42 -10 1z"/>
<path d="M497 706 c4 -5 0 -7 -9 -4 -8 4 -21 2 -29 -4 -11 -8 -10 -9 4 -4 9 3
17 1 17 -4 0 -6 -7 -10 -15 -10 -8 0 -15 -4 -15 -10 0 -15 16 -12 30 5 7 8 18
15 25 15 7 0 18 7 25 15 11 13 9 15 -13 13 -14 -1 -23 -7 -20 -12z"/>
<path d="M405 690 c-19 -5 -23 -8 -10 -9 15 -1 16 -4 7 -13 -17 -17 -15 -24
10 -25 17 -2 19 0 8 7 -12 7 -11 12 4 29 11 12 17 20 15 20 -2 -1 -17 -5 -34
-9z"/>
<path d="M495 626 c12 -18 22 -22 38 -18 21 6 21 6 2 10 -11 2 -24 10 -28 18
-4 8 -12 14 -18 14 -5 0 -2 -11 6 -24z"/>
<path d="M175 630 c-4 -6 -10 -8 -15 -5 -5 3 -11 1 -15 -5 -3 -5 2 -10 12 -10
12 -1 8 -5 -12 -15 -16 -7 -24 -14 -17 -14 7 -1 10 -6 6 -13 -4 -7 -3 -8 5 -4
6 4 9 11 6 16 -5 8 31 21 68 25 29 4 29 4 13 20 -17 17 -42 20 -51 5z"/>
<path d="M0 601 c0 -12 9 -30 20 -41 11 -11 20 -23 20 -28 0 -4 14 -22 30 -40
17 -18 30 -35 30 -38 0 -6 140 -186 161 -207 15 -14 16 -22 8 -44 -7 -19 -6
-29 2 -37 9 -8 10 -8 5 1 -4 7 -3 19 1 27 6 11 29 -11 91 -89 l82 -105 47 0
c25 0 43 3 39 8 -4 4 -17 7 -29 7 -15 0 -65 54 -183 200 -151 186 -181 227
-153 209 29 -17 -18 43 -91 117 -62 63 -80 76 -80 60z"/>
<path d="M586 605 c-11 -8 -16 -15 -10 -15 5 0 2 -5 -6 -10 -8 -5 -19 -10 -25
-10 -5 0 -3 4 5 10 8 5 11 12 7 16 -4 4 -15 0 -25 -9 -17 -16 -20 -16 -38 1
-23 21 -54 25 -54 6 0 -17 -24 -18 -51 -4 -14 8 -19 7 -19 -3 0 -19 20 -36 35
-30 7 2 16 -4 19 -14 6 -20 46 -49 46 -34 0 6 -8 15 -17 20 -10 6 -13 11 -6
11 10 0 28 -19 76 -82 13 -17 20 -20 26 -10 9 15 21 3 36 -33 7 -18 9 -18 12
-2 3 9 9 15 14 12 5 -3 6 1 3 9 -3 9 -1 16 5 16 6 0 11 -3 11 -8 0 -4 14 -13
30 -20 37 -17 38 -27 5 -27 -16 0 -23 5 -20 13 2 6 2 12 -1 12 -9 0 -29 -24
-32 -39 -3 -12 0 -12 12 -1 15 11 20 7 17 -12 0 -5 4 -8 9 -8 6 0 10 7 10 15
0 8 5 15 11 15 5 0 7 -6 3 -12 -6 -10 -5 -10 8 -1 18 15 28 7 27 -21 0 -12 -3
-16 -5 -9 -3 7 -12 9 -20 6 -11 -4 -13 -14 -8 -36 5 -25 4 -29 -11 -24 -9 4
-19 7 -21 7 -2 0 -2 11 2 24 l5 23 -75 -26 c-41 -14 -71 -30 -67 -34 5 -5 26
1 47 12 21 12 48 21 59 20 16 -1 15 -3 -7 -12 -30 -12 -37 -27 -14 -27 8 0 27
-5 43 -12 15 -6 33 -11 38 -10 6 1 11 -7 12 -18 1 -11 -3 -20 -8 -20 -6 0 -7
5 -3 12 5 7 3 8 -6 3 -19 -11 18 -37 42 -29 10 3 18 1 18 -4 0 -5 -11 -12 -25
-14 -16 -3 -22 -1 -19 6 3 6 0 4 -8 -5 -15 -18 -73 -40 -82 -32 -3 4 -6 1 -6
-5 0 -19 47 -14 92 9 22 11 55 21 73 22 18 1 31 5 28 9 -2 5 1 8 6 8 6 0 11
-4 11 -10 0 -5 5 -10 12 -10 6 0 5 7 -5 18 -12 13 -14 21 -6 29 9 9 22 5 50
-13 50 -31 53 -9 4 25 -20 13 -33 26 -31 28 6 7 76 -47 76 -58 0 -5 6 -9 13
-9 7 0 21 -19 32 -42 28 -62 29 -64 14 -51 -18 18 -27 16 -34 -7 -6 -20 -7
-20 -27 5 -26 34 -34 26 -13 -14 14 -27 14 -31 0 -31 -8 0 -15 -7 -15 -16 0
-9 -7 -14 -17 -12 -13 3 -18 13 -17 35 1 23 -2 30 -12 26 -8 -3 -14 -8 -14
-13 0 -4 -10 -12 -22 -19 -23 -11 -23 -11 2 -5 l25 6 -23 -17 c-12 -9 -26 -14
-31 -11 -5 3 -12 -1 -15 -10 -4 -10 -14 -14 -26 -11 -11 3 -20 1 -20 -5 0 -6
16 -8 43 -3 23 3 59 7 79 8 21 2 43 8 50 15 6 6 15 12 20 12 4 0 18 11 32 25
38 37 118 27 131 -16 7 -22 -2 -42 -16 -34 -5 4 -17 1 -26 -5 -14 -8 -8 -10
27 -8 42 3 45 5 47 33 3 26 -5 36 -60 75 -37 28 -61 52 -59 62 2 13 -38 43
-171 130 -7 4 -6 12 3 22 14 18 8 32 -9 21 -12 -7 -15 -48 -4 -59 4 -3 8 -14
9 -24 3 -20 -48 -62 -54 -44 -2 7 -13 12 -24 12 -21 0 -21 1 -3 20 10 12 24
19 31 16 7 -3 10 2 7 15 -3 10 1 27 8 36 13 15 11 16 -13 9 -23 -5 -28 -3 -28
13 0 10 9 21 20 24 30 8 25 30 -5 25 -14 -3 -28 -1 -31 3 -5 9 17 13 44 10 19
-3 14 7 -9 20 -15 8 -19 8 -15 0 4 -6 2 -11 -3 -11 -6 0 -11 4 -11 9 0 5 -10
7 -22 3 -16 -3 -9 5 21 29 40 31 62 69 41 69 -5 0 -15 3 -24 6 -10 4 -16 1
-16 -9 0 -10 -9 -14 -25 -13 -16 0 -23 6 -20 14 3 9 0 10 -15 2 -11 -6 -20
-13 -20 -16 0 -3 5 -2 10 1 6 3 13 -1 16 -10 5 -12 9 -13 14 -5 4 7 13 9 20 5
10 -6 9 -10 -3 -17 -9 -5 -14 -15 -11 -23 4 -10 -1 -15 -16 -15 -14 0 -24 8
-27 20 -5 19 -7 20 -23 5 -16 -14 -22 -15 -42 -4 -13 7 -26 13 -30 14 -12 0
-41 46 -34 53 4 3 12 7 19 8 42 6 85 34 89 58 6 30 1 32 -26 11z m-92 -30 c10
-8 24 -12 30 -8 6 3 3 -2 -6 -12 -15 -17 -20 -17 -43 -5 -26 14 -34 40 -12 40
6 0 21 -7 31 -15z m246 -284 c0 -3 -9 -12 -21 -19 -12 -8 -18 -9 -15 -4 3 6 0
12 -6 15 -10 3 -10 7 1 20 10 13 17 15 27 6 8 -6 14 -14 14 -18z"/>
<path d="M786 594 c-7 -18 21 -31 36 -16 7 7 4 13 -10 21 -16 8 -21 7 -26 -5z"/>
<path d="M260 590 c0 -16 -46 -35 -95 -39 -5 -1 -4 -5 3 -10 7 -4 34 -2 60 4
34 9 49 9 54 1 4 -6 2 -14 -5 -18 -6 -4 -8 -10 -4 -15 5 -4 12 -1 17 7 8 13
12 12 27 -3 16 -16 16 -17 2 -12 -10 4 -20 2 -24 -4 -4 -7 4 -11 19 -11 14 0
28 -5 32 -11 3 -6 19 -9 35 -5 20 4 27 2 23 -7 -2 -7 -24 -14 -47 -16 -46 -2
-52 -6 -61 -36 -4 -14 1 -24 15 -33 20 -13 21 -12 17 21 -4 33 -2 34 20 26 16
-6 21 -6 16 2 -4 7 1 10 12 7 13 -2 18 -10 16 -26 -2 -16 1 -20 12 -16 12 5
13 11 6 24 -11 21 -8 24 31 34 23 5 28 2 33 -19 5 -18 11 -23 24 -18 13 5 14
3 5 -7 -6 -7 -9 -19 -6 -26 9 -24 -6 -16 -42 23 -19 20 -35 33 -35 28 0 -16
14 -31 33 -38 9 -3 17 -11 17 -16 0 -16 -22 -24 -30 -11 -12 20 -27 4 -28 -31
-1 -30 0 -31 13 -12 16 22 90 39 109 25 17 -13 84 -14 91 -2 4 7 -3 10 -22 8
-23 -2 -27 0 -25 17 4 20 4 20 -12 0 -9 -12 -15 -15 -16 -7 0 7 -4 10 -10 7
-5 -3 -10 -1 -10 4 0 6 4 11 8 11 5 0 9 7 9 15 0 13 -2 13 -17 0 -21 -19 -36
-20 -21 -1 9 11 5 20 -20 46 -24 24 -34 28 -40 18 -8 -12 -10 -11 -13 11 0 6
-7 16 -15 23 -10 10 -12 10 -7 1 4 -7 3 -13 -3 -13 -5 0 -11 4 -13 10 -1 5
-13 7 -25 4 -13 -4 -20 -11 -16 -17 4 -6 1 -7 -7 -2 -10 6 -9 12 6 24 20 16
20 16 -3 39 -22 22 -39 30 -29 13 3 -5 -1 -12 -10 -15 -23 -9 -24 -8 -24 14 0
13 -5 18 -15 14 -11 -5 -13 -2 -9 10 3 9 3 16 0 16 -3 0 -6 -4 -6 -10z"/>
<path d="M1015 580 c-4 -6 -1 -10 4 -10 6 0 11 -6 11 -13 0 -8 -7 -14 -15 -14
-8 0 -15 5 -15 10 0 5 -16 7 -36 4 -33 -6 -35 -5 -18 8 11 8 14 15 7 15 -7 0
-18 -9 -25 -20 -13 -20 -29 -27 -27 -12 4 23 -4 23 -31 -3 -24 -23 -33 -27
-39 -17 -6 11 -15 8 -36 -12 -15 -14 -23 -26 -16 -26 6 0 14 7 17 15 4 8 12
15 20 15 25 0 3 -29 -31 -40 -35 -12 -62 -35 -48 -43 4 -2 22 -7 38 -11 29 -6
29 -6 7 7 -17 10 -20 15 -10 25 7 7 18 12 25 12 7 0 21 10 33 22 11 12 20 18
20 13 0 -4 9 0 20 10 11 10 22 16 25 13 11 -11 -71 -73 -93 -70 -12 2 -22 -1
-22 -6 0 -12 38 -23 45 -12 9 15 45 -2 45 -21 0 -16 -4 -17 -26 -8 -15 5 -28
8 -29 7 -1 -2 -7 -13 -14 -25 -10 -19 -8 -24 9 -33 11 -6 24 -9 28 -6 4 3 14
1 21 -4 10 -5 4 -10 -18 -15 -32 -7 -53 -25 -28 -25 8 0 35 -16 60 -35 37 -28
46 -32 51 -19 7 19 -34 56 -49 44 -6 -4 -16 -2 -23 6 -7 8 -11 14 -10 15 35 9
53 7 60 -5 5 -9 24 -18 43 -22 20 -3 38 -10 41 -15 3 -5 18 -2 34 8 21 12 26
19 17 25 -7 5 -3 8 13 8 14 0 37 8 50 17 14 10 31 18 39 18 8 0 16 6 18 13 3
6 0 12 -6 12 -6 0 -11 5 -11 12 0 9 3 9 11 1 8 -8 24 -2 57 21 74 49 107 58
154 39 30 -12 36 -18 26 -25 -9 -7 -7 -8 10 -5 14 3 22 0 22 -8 0 -15 -57 -75
-64 -68 -2 3 -12 -7 -21 -21 -10 -14 -24 -26 -31 -26 -8 0 -19 -12 -24 -26 -6
-14 -14 -22 -20 -19 -5 3 -10 1 -10 -4 0 -6 2 -11 5 -11 8 0 69 43 77 55 4 6
8 6 8 1 0 -4 11 -1 25 8 13 9 32 16 42 16 15 0 15 -1 -1 -13 -16 -12 -16 -14
-2 -14 9 0 16 4 16 9 0 5 6 6 13 2 9 -6 9 -5 0 8 -7 8 -9 18 -5 22 4 4 -7 4
-23 0 l-30 -7 25 24 c22 21 28 23 50 13 14 -7 36 -15 50 -18 14 -3 4 4 -22 16
-44 20 -48 25 -48 56 0 51 -17 75 -47 67 -16 -4 -22 -2 -18 4 3 7 0 8 -9 5 -9
-3 -16 -1 -16 5 0 6 -7 8 -17 4 -11 -4 -14 -3 -9 5 4 7 2 10 -6 7 -8 -3 -47 8
-87 25 -41 16 -76 30 -80 30 -14 0 39 -28 102 -54 37 -16 66 -30 64 -33 -8 -8
-89 10 -101 23 -8 7 -16 10 -20 7 -3 -3 -14 2 -25 11 -10 10 -25 16 -33 14 -7
-1 -27 6 -43 18 -40 27 -63 35 -70 24z m55 -45 c7 -8 19 -15 26 -15 8 0 14 -6
14 -13 0 -8 -7 -14 -15 -14 -8 0 -15 6 -15 13 0 7 -8 10 -20 7 -15 -4 -20 0
-20 16 0 25 12 27 30 6z m-105 -5 c3 -5 15 -10 26 -10 26 0 25 -37 -1 -45 -23
-7 -24 -14 -6 -38 8 -10 20 -15 29 -11 10 3 18 -2 22 -15 9 -29 -2 -43 -24
-31 -18 9 -31 4 -31 -11 0 -5 7 -6 15 -3 8 4 15 1 15 -5 0 -6 -9 -11 -21 -11
-17 0 -20 4 -15 24 4 17 1 26 -11 30 -21 9 -31 -3 -13 -14 17 -11 20 -10 -52
-15 -34 -2 -36 -1 -27 16 10 20 29 26 29 9 0 -5 7 -10 16 -10 10 0 14 5 10 16
-3 8 -2 13 2 11 4 -3 12 1 19 8 9 10 9 14 -1 18 -8 3 -18 1 -24 -5 -7 -7 -16
-4 -28 10 -14 17 -22 19 -38 11 -12 -6 -1 8 23 31 25 22 51 38 58 36 8 -3 11
-1 8 4 -3 6 -2 10 4 10 5 0 13 -4 16 -10z m82 -60 c1 -14 -4 -20 -18 -20 -22
0 -24 11 -7 28 17 17 24 15 25 -8z m104 -7 c7 -16 15 -31 16 -34 2 -3 -3 -6
-12 -6 -8 0 -14 7 -13 15 3 16 -27 40 -37 30 -4 -3 0 -16 7 -27 11 -18 11 -23
-2 -31 -10 -6 -11 -10 -2 -10 6 0 12 -4 12 -10 0 -5 -6 -7 -14 -4 -9 4 -16 -2
-18 -17 -2 -12 -9 -24 -15 -27 -18 -5 -16 33 2 48 19 16 20 41 1 34 -8 -3 -17
-1 -21 5 -3 6 1 11 9 11 9 0 16 7 16 15 0 14 26 34 46 35 6 0 17 -12 25 -27z
m-173 -131 c6 -18 -29 -27 -42 -11 -6 8 -22 20 -36 27 -24 11 -23 12 9 6 27
-5 32 -3 25 7 -6 10 -1 9 16 -2 13 -9 26 -21 28 -27z m45 -12 c-6 -22 -21 -35
-29 -27 -7 7 15 47 25 47 5 0 7 -9 4 -20z"/>
<path d="M946 501 c-3 -5 -15 -7 -25 -4 -10 3 -22 0 -26 -6 -10 -17 36 -30 68
-19 22 8 25 13 16 24 -13 16 -25 18 -33 5z"/>
<path d="M2953 530 c-13 -5 -23 -7 -23 -4 0 3 -16 -12 -35 -33 -37 -41 -41
-48 -25 -58 18 -11 -1 -78 -36 -126 -19 -26 -34 -52 -34 -58 0 -6 -4 -11 -10
-11 -5 0 -10 -7 -10 -15 0 -8 -3 -15 -7 -15 -10 0 -33 -49 -33 -69 0 -9 6 -4
14 11 8 15 19 33 25 40 6 7 30 42 52 78 51 81 46 76 68 63 17 -11 19 -9 14 26
-3 23 -1 41 6 45 6 4 11 14 11 22 0 11 -6 13 -21 9 -19 -6 -20 -5 -8 17 19 35
41 49 72 43 25 -4 28 -2 25 17 -4 25 -15 30 -45 18z"/>
<path d="M1 512 c-1 -15 50 -94 57 -87 3 2 -6 19 -20 37 -14 18 -27 40 -31 48
-3 10 -6 10 -6 2z"/>
<path d="M191 481 c-11 -7 13 -40 105 -143 214 -241 306 -338 321 -338 8 0 21
7 29 15 9 8 24 15 34 15 10 0 21 9 25 19 3 10 19 24 36 31 39 16 32 22 -11 10
-54 -16 -21 7 42 29 46 16 56 17 51 5 -4 -10 0 -12 11 -8 9 3 16 11 16 16 0 6
8 17 18 24 16 13 16 13 0 14 -11 0 -15 5 -12 15 4 9 0 15 -9 15 -11 0 -14 -7
-11 -24 3 -19 -1 -25 -21 -28 -14 -3 -25 -1 -25 4 0 5 -6 8 -12 5 -7 -2 -12
-10 -10 -17 2 -7 -3 -10 -12 -7 -21 8 -80 -15 -84 -32 -1 -7 3 -20 9 -27 10
-12 8 -18 -7 -29 -27 -21 -36 -18 -28 7 6 20 5 21 -10 9 -12 -10 -13 -17 -6
-26 8 -9 8 -15 0 -20 -19 -12 -31 7 -28 43 2 28 -1 37 -14 40 -12 2 -18 -3
-18 -14 0 -16 -1 -16 -20 1 -11 10 -18 21 -15 25 2 3 -5 13 -16 20 -10 8 -19
20 -19 28 0 7 -5 10 -11 6 -8 -4 -9 0 -4 15 5 17 2 21 -17 21 -20 0 -24 5 -22
29 1 16 5 34 9 40 8 15 -8 14 -23 -1 -8 -8 -9 -15 -1 -25 9 -10 8 -13 -4 -13
-9 0 -19 9 -22 20 -3 11 -10 20 -15 20 -4 0 -22 19 -39 42 -17 23 -31 39 -31
35 0 -4 -15 9 -32 29 -18 21 -32 41 -31 46 2 4 -4 8 -12 8 -17 0 -34 29 -28
48 5 14 -6 15 -26 3z"/>
<path d="M2970 450 c13 -9 13 -11 0 -20 -13 -8 -13 -10 2 -10 9 0 19 -6 21
-12 3 -7 6 -4 6 8 1 21 -16 44 -33 44 -6 0 -4 -5 4 -10z"/>
<path d="M0 433 c0 -21 55 -114 72 -121 5 -2 8 -9 8 -16 0 -7 25 -50 55 -95
30 -45 49 -79 42 -76 -6 4 -3 -1 8 -10 11 -9 19 -19 17 -23 -6 -15 31 -68 56
-80 14 -6 27 -11 28 -9 1 1 -41 70 -94 152 -53 83 -118 184 -144 225 -34 53
-47 69 -48 53z"/>
<path d="M1269 423 c-1 -5 -2 -12 -4 -18 -1 -5 -3 -16 -3 -23 -1 -7 -6 -11
-11 -8 -5 3 -11 -4 -14 -16 -5 -17 0 -15 28 12 27 26 32 37 24 47 -13 15 -18
16 -20 6z"/>
<path d="M1279 360 c-23 -22 -46 -37 -52 -33 -6 3 -7 1 -3 -5 3 -6 -7 -16 -24
-24 -16 -7 -30 -16 -30 -20 0 -11 2 -11 53 12 31 14 47 28 51 45 4 15 17 30
31 35 14 5 25 14 25 20 0 16 -7 12 -51 -30z"/>
<path d="M344 377 c3 -10 6 -25 6 -34 0 -9 6 -13 14 -10 11 4 13 1 9 -11 -4
-10 -2 -13 3 -9 5 5 9 22 10 39 1 20 -1 26 -7 17 -7 -11 -11 -10 -24 6 -15 18
-16 18 -11 2z"/>
<path d="M1190 367 c-25 -16 -30 -23 -18 -25 11 -2 15 -9 11 -20 -3 -9 -3 -14
1 -10 4 3 9 13 10 22 1 8 10 24 21 36 23 25 18 25 -25 -3z"/>
<path d="M459 333 c-1 -4 -1 -12 0 -17 1 -5 -5 -6 -13 -3 -10 4 -13 1 -9 -9 3
-8 12 -13 20 -10 8 3 11 1 8 -4 -3 -6 -2 -10 4 -10 6 0 15 9 21 20 8 15 6 21
-10 30 -11 6 -21 7 -21 3z"/>
<path d="M2872 301 c-6 -14 -30 -57 -52 -96 -28 -47 -39 -74 -33 -84 8 -12
103 -54 103 -45 0 2 23 -5 52 -16 28 -11 54 -18 56 -15 9 9 -8 36 -19 29 -7
-4 -7 2 1 17 l13 24 -22 -19 c-15 -14 -25 -16 -32 -9 -8 8 -8 13 0 17 6 4 11
11 11 16 0 5 -16 0 -36 -12 -27 -16 -38 -18 -47 -9 -9 9 -8 11 6 6 9 -4 17 -3
17 3 0 6 -15 16 -34 22 -42 14 -48 26 -29 64 12 23 17 26 24 15 7 -10 8 -8 7
8 -2 12 1 22 6 21 5 0 13 7 18 16 5 9 15 16 23 16 16 0 10 26 -10 46 -9 9 -14
5 -23 -15z"/>
<path d="M1075 300 c-4 -6 1 -7 11 -3 12 4 15 3 10 -5 -5 -8 1 -12 18 -12 26
0 35 14 16 25 -5 3 -10 1 -10 -6 0 -10 -3 -10 -12 -1 -15 15 -25 15 -33 2z"/>
<path d="M2941 298 c0 -9 -4 -23 -7 -31 -4 -12 1 -13 28 -8 25 5 34 13 36 31
l4 25 -25 -23 -25 -24 -5 24 c-2 12 -5 15 -6 6z"/>
<path d="M10 285 c0 -18 121 -249 141 -270 22 -22 24 -30 -24 85 -6 14 -10 28
-9 33 1 4 -2 7 -7 7 -5 0 -21 24 -35 53 -30 57 -65 108 -66 92z"/>
<path d="M1221 271 c-11 -11 -22 -17 -25 -13 -3 3 -6 0 -6 -7 0 -7 -4 -10 -8
-7 -5 3 -9 -1 -9 -9 0 -18 1 -18 36 0 16 8 31 23 34 35 6 25 2 25 -22 1z"/>
<path d="M1335 268 c-22 -12 -42 -24 -45 -28 -6 -8 -46 -30 -55 -30 -3 0 -3 4
0 10 4 6 -3 6 -21 0 -29 -11 -68 -4 -59 11 4 5 -1 9 -9 9 -9 0 -15 -3 -13 -8
1 -4 -9 -18 -22 -31 -23 -23 -23 -25 -6 -38 13 -8 14 -13 5 -13 -7 0 -11 -2
-8 -5 8 -9 38 6 32 16 -3 5 1 6 9 3 8 -3 19 2 26 9 10 12 7 14 -17 12 -16 -1
-34 -5 -40 -9 -8 -5 -10 -2 -6 8 4 11 20 16 49 16 24 0 51 3 61 7 11 4 15 3
10 -5 -4 -7 3 -10 21 -8 16 2 35 4 43 5 13 1 13 3 1 10 -11 7 -7 14 20 30 19
12 40 19 47 16 7 -3 11 -1 7 4 -3 5 1 11 7 14 7 2 11 7 8 10 -3 3 -23 -4 -45
-15z"/>
<path d="M558 272 c11 -7 10 -10 -3 -16 -23 -8 -27 -8 -20 4 8 13 -5 13 -25 0
-13 -8 -12 -10 3 -10 9 0 17 -4 17 -10 0 -5 7 -10 15 -10 8 0 15 4 15 9 0 5
12 14 28 19 15 6 20 11 10 11 -9 1 -25 4 -35 7 -13 4 -14 3 -5 -4z"/>
<path d="M943 263 c-18 -7 -16 -43 1 -43 8 0 18 5 21 10 3 6 1 10 -6 10 -7 0
-4 7 7 15 14 11 15 14 4 14 -8 0 -21 -3 -27 -6z"/>
<path d="M1077 263 c-12 -11 -8 -25 5 -17 7 4 8 3 4 -4 -4 -6 -13 -9 -21 -5
-10 3 -15 -2 -15 -17 0 -28 17 -22 48 18 23 30 23 32 5 32 -11 0 -23 -3 -26
-7z"/>
<path d="M1036 251 c-3 -5 -15 -7 -25 -4 -20 5 -49 -32 -35 -45 4 -4 9 -1 11
6 3 6 9 9 14 6 6 -3 21 6 34 20 13 14 20 26 15 26 -5 0 -11 -4 -14 -9z"/>
<path d="M615 240 c-3 -5 -17 -10 -31 -10 -13 0 -24 -4 -24 -10 0 -5 -9 -10
-19 -10 -14 0 -18 -7 -17 -24 1 -18 4 -22 13 -14 7 6 10 15 6 21 -4 6 0 8 8 5
8 -3 32 7 54 23 21 16 34 29 27 29 -6 0 -14 -4 -17 -10z"/>
<path d="M2918 223 c-10 -2 -18 -11 -18 -19 0 -8 -5 -14 -11 -14 -5 0 -7 -4
-4 -10 9 -15 25 -12 25 5 0 23 13 18 42 -15 27 -31 48 -39 48 -17 0 7 -15 21
-34 31 -21 11 -32 24 -29 32 3 8 4 13 2 13 -2 -1 -12 -3 -21 -6z"/>
<path d="M196 205 c4 -11 32 -54 62 -95 31 -41 55 -83 55 -92 -1 -11 5 -18 17
-18 15 0 8 15 -38 81 -31 44 -62 90 -68 101 -7 11 -17 25 -23 31 -9 9 -11 7
-5 -8z"/>
<path d="M1032 174 c-9 -8 -12 -14 -6 -14 5 0 16 6 23 13 11 10 13 9 8 -5 -4
-12 -1 -18 8 -18 8 0 15 8 15 18 0 22 -23 24 -48 6z"/>
<path d="M986 172 c-3 -6 21 -30 54 -53 54 -38 64 -49 62 -70 -1 -4 8 -5 18
-2 14 4 20 0 20 -10 0 -9 9 -21 21 -27 18 -10 19 -9 11 7 -5 10 -8 23 -6 28 3
6 -18 24 -46 40 -27 16 -50 35 -50 43 0 7 -6 12 -12 9 -7 -2 -25 7 -39 20 -16
14 -29 20 -33 15z"/>
<path d="M1913 153 c-39 -16 -63 -33 -66 -45 -5 -18 -4 -18 26 2 18 11 49 28
70 36 20 9 37 20 37 25 0 5 -1 9 -2 8 -2 0 -31 -12 -65 -26z"/>
<path d="M2200 100 c-8 -5 -18 -6 -24 -3 -5 3 -6 1 -2 -5 4 -7 2 -12 -4 -12
-7 0 -10 -6 -7 -12 2 -7 -2 -25 -10 -40 -13 -27 -13 -28 14 -28 26 1 27 2 10
14 -12 9 -14 16 -8 21 14 8 51 -3 51 -16 0 -5 13 -9 30 -9 22 0 28 4 24 15 -4
8 -10 13 -14 10 -5 -3 -11 -1 -14 4 -10 16 68 10 87 -7 20 -17 30 -12 21 11
-10 26 -71 37 -129 22 -30 -8 -30 -8 -12 13 19 21 11 37 -13 22z"/>
<path d="M2126 86 c8 -21 -24 -60 -40 -47 -7 6 -11 1 -12 -15 -2 -32 12 -30
47 7 33 36 35 42 14 59 -13 11 -14 10 -9 -4z"/>
<path d="M2770 78 c0 -10 -6 -18 -13 -18 -7 0 -22 -7 -33 -16 -10 -8 -13 -12
-6 -9 9 5 12 1 10 -10 -2 -10 4 -20 12 -22 13 -4 13 -3 0 7 -12 9 -9 10 15 6
22 -5 26 -4 15 4 -21 14 -1 12 56 -5 70 -21 90 -17 24 5 -30 10 -46 19 -35 20
19 1 19 2 -2 10 -12 5 -26 17 -32 27 -10 17 -10 17 -11 1z"/>
<path d="M2467 73 c-12 -11 -8 -29 12 -51 26 -30 31 -28 30 16 -1 33 -2 34 -9
12 -5 -17 -8 -19 -9 -7 -1 9 -7 17 -13 17 -9 0 -8 4 2 10 8 5 10 10 4 10 -6 0
-14 -3 -17 -7z"/>
<path d="M1458 35 c-11 -12 3 -35 22 -35 10 0 20 7 24 15 3 8 1 15 -4 15 -6 0
-10 -4 -10 -10 0 -16 -18 -11 -22 6 -2 9 -6 13 -10 9z"/>
<path d="M2380 10 c-11 -7 -5 -10 23 -10 23 0 36 4 32 10 -8 13 -35 13 -55 0z"/>
</g>
</svg>
