<svg xmlns="http://www.w3.org/2000/svg" version="1.1" xmlns:xlink="http://www.w3.org/1999/xlink" xmlns:svgjs="http://svgjs.dev/svgjs" width="1000" height="464" viewBox="0 0 1000 464"><g transform="matrix(1,0,0,1,-0.6060606060606233,-0.38232678940897813)"><svg viewBox="0 0 396 184" data-background-color="#ffffff" preserveAspectRatio="xMidYMid meet" height="464" width="1000" xmlns="http://www.w3.org/2000/svg" xmlns:xlink="http://www.w3.org/1999/xlink"><g id="tight-bounds" transform="matrix(1,0,0,1,0.2400000000000091,0.15161234752424946)"><svg viewBox="0 0 395.52 183.6967753049515" height="183.6967753049515" width="395.52"><g><svg viewBox="0 0 491.27343729720474 228.1688567568664" height="183.6967753049515" width="395.52"><g><rect width="8.49840041684571" height="228.1688567568664" x="189.649798027755" y="0" fill="#152232" opacity="1" stroke-width="0" stroke="transparent" fill-opacity="1" class="rect-qz-0" data-fill-palette-color="primary" rx="1%" id="qz-0" data-palette-color="#152232"></rect></g><g transform="matrix(1,0,0,1,220.395319954668,0.5675842207882198)"><svg viewBox="0 0 270.8781173425367 227.03368831528996" height="227.03368831528996" width="270.8781173425367"><g id="textblocktransform"><svg viewBox="0 0 270.8781173425367 227.03368831528996" height="227.03368831528996" width="270.8781173425367" id="textblock"><g><svg viewBox="0 0 270.8781173425367 198.764" height="198.764" width="270.8781173425367"><g transform="matrix(1,0,0,1,0,0)"><svg width="270.8781173425367" viewBox="7.050000000000006 -36.900000000000006 157.94999999999996 112.9" height="198.764" data-palette-color="#152232"><svg></svg><svg></svg><g class="wordmark-text-0" data-fill-palette-color="primary" id="text-0"><path d="M32.75-15.9v0c0.867 0 1.55 0.3 2.05 0.9 0.5 0.6 0.75 1.433 0.75 2.5v0c0 0.267-0.017 0.54-0.05 0.82-0.033 0.287-0.083 0.53-0.15 0.73v0c-0.7-0.167-1.467-0.267-2.3-0.3v0c-0.2 1.467-0.733 3.007-1.6 4.62-0.867 1.62-1.917 3.137-3.15 4.55-1.233 1.42-2.583 2.663-4.05 3.73-1.467 1.067-2.917 1.783-4.35 2.15v0c-4.467-0.1-7.723-1.257-9.77-3.47-2.053-2.22-3.08-5.68-3.08-10.38v0c0-3.433 0.633-6.76 1.9-9.98 1.267-3.213 2.95-6.07 5.05-8.57 2.1-2.5 4.51-4.51 7.23-6.03 2.713-1.513 5.537-2.27 8.47-2.27v0c2.3 0 4.093 0.483 5.38 1.45 1.28 0.967 1.92 2.333 1.92 4.1v0c0 1.167-0.273 2.25-0.82 3.25-0.553 1-1.463 2.083-2.73 3.25v0c-0.767-0.233-1.433-0.643-2-1.23-0.567-0.58-0.917-1.253-1.05-2.02v0c1.133-0.833 1.933-1.6 2.4-2.3 0.467-0.7 0.7-1.533 0.7-2.5v0c0-1.533-0.917-2.3-2.75-2.3v0c-1.5 0-3.107 0.56-4.82 1.68-1.72 1.113-3.447 2.72-5.18 4.82v0c-2.467 2.967-4.267 6.023-5.4 9.17-1.133 3.153-1.7 6.697-1.7 10.63v0c0 1.467 0.15 2.8 0.45 4 0.3 1.2 0.7 2.25 1.2 3.15 0.5 0.9 1.09 1.617 1.77 2.15 0.687 0.533 1.43 0.833 2.23 0.9v0c1.067-0.233 2.133-0.777 3.2-1.63 1.067-0.847 2.043-1.847 2.93-3 0.88-1.147 1.63-2.38 2.25-3.7 0.613-1.313 0.987-2.57 1.12-3.77v0c-0.933 0.2-1.823 0.39-2.67 0.57-0.853 0.187-1.663 0.28-2.43 0.28v0c-1 0-1.873-0.25-2.62-0.75-0.753-0.5-1.263-1.183-1.53-2.05v0c0.6-0.333 1.477-0.683 2.63-1.05 1.147-0.367 2.37-0.71 3.67-1.03 1.3-0.313 2.577-0.57 3.83-0.77 1.247-0.2 2.27-0.3 3.07-0.3zM43.25 1.75v0c-1.9-0.2-3.417-1.033-4.55-2.5-1.133-1.467-1.7-3.333-1.7-5.6v0c0-1.333 0.2-2.717 0.6-4.15 0.4-1.433 0.967-2.827 1.7-4.18 0.733-1.347 1.6-2.62 2.6-3.82 1-1.2 2.083-2.233 3.25-3.1v0c1.833-1.367 3.55-2.05 5.15-2.05v0c1.067 0.567 2.117 1.75 3.15 3.55v0c0.167 0 0.317-0.01 0.45-0.03 0.133-0.013 0.283-0.02 0.45-0.02v0c1.767 0 2.65 1.567 2.65 4.7v0c0 2.1-0.34 4.093-1.02 5.98-0.687 1.88-1.637 3.587-2.85 5.12-1.22 1.533-2.67 2.823-4.35 3.87-1.687 1.053-3.53 1.797-5.53 2.23zM45.8-14v0c-0.567 0.767-1.1 1.6-1.6 2.5-0.5 0.9-0.933 1.807-1.3 2.72-0.367 0.92-0.65 1.803-0.85 2.65-0.2 0.853-0.3 1.613-0.3 2.28v0c0 0.8 0.133 1.567 0.4 2.3 0.267 0.733 0.567 1.15 0.9 1.25v0c1.5-0.333 2.873-0.96 4.12-1.88 1.253-0.913 2.337-2.053 3.25-3.42 0.92-1.367 1.64-2.917 2.16-4.65 0.513-1.733 0.77-3.583 0.77-5.55v0c0-0.867-0.05-1.55-0.15-2.05-0.1-0.5-0.267-0.933-0.5-1.3v0c-1.467 0.433-2.773 1.133-3.92 2.1-1.153 0.967-2.147 1.983-2.98 3.05zM64.7-19.15h-2.85c-0.167-0.2-0.317-0.627-0.45-1.28-0.133-0.647-0.2-1.203-0.2-1.67v0c0.867 0.067 1.7 0.123 2.5 0.17 0.8 0.053 1.533 0.097 2.2 0.13v0c0.5-1 1.043-1.993 1.63-2.98 0.58-0.98 1.143-1.88 1.69-2.7 0.553-0.813 1.073-1.503 1.56-2.07 0.48-0.567 0.853-0.933 1.12-1.1v0c0.333 0 0.757 0.057 1.27 0.17 0.52 0.12 1.047 0.27 1.58 0.45 0.533 0.187 1.017 0.38 1.45 0.58 0.433 0.2 0.733 0.4 0.9 0.6v0c-1 1.267-1.857 2.44-2.57 3.52-0.72 1.087-1.497 2.33-2.33 3.73v0c0.667 0 1.34-0.017 2.02-0.05 0.687-0.033 1.38-0.083 2.08-0.15v0c0.167 0.167 0.3 0.373 0.4 0.62 0.1 0.253 0.15 0.513 0.15 0.78v0c-1.633 0.6-3.617 0.933-5.95 1v0c-0.833 1.6-1.577 3.19-2.23 4.77-0.647 1.587-1.193 3.113-1.64 4.58-0.453 1.467-0.807 2.85-1.06 4.15-0.247 1.3-0.37 2.467-0.37 3.5v0c0 1.467 0.55 2.283 1.65 2.45v0c1-0.133 1.95-0.383 2.85-0.75 0.9-0.367 1.7-0.833 2.4-1.4v0c0.2 0.3 0.317 0.55 0.35 0.75v0c-0.2 0.3-0.54 0.65-1.02 1.05-0.487 0.4-1.013 0.793-1.58 1.18-0.567 0.38-1.117 0.703-1.65 0.97-0.533 0.267-0.933 0.417-1.2 0.45v0c-0.833-0.033-1.667-0.217-2.5-0.55-0.833-0.333-1.59-0.75-2.27-1.25-0.687-0.5-1.247-1.06-1.68-1.68-0.433-0.613-0.65-1.22-0.65-1.82v0c0-0.8 0.11-1.81 0.33-3.03 0.213-1.213 0.52-2.537 0.92-3.97 0.4-1.433 0.867-2.933 1.4-4.5 0.533-1.567 1.117-3.117 1.75-4.65zM82.4 1.75v0c-1.9-0.2-3.417-1.033-4.55-2.5-1.133-1.467-1.7-3.333-1.7-5.6v0c0-1.333 0.2-2.717 0.6-4.15 0.4-1.433 0.967-2.827 1.7-4.18 0.733-1.347 1.6-2.62 2.6-3.82 1-1.2 2.083-2.233 3.25-3.1v0c1.833-1.367 3.55-2.05 5.15-2.05v0c1.067 0.567 2.117 1.75 3.15 3.55v0c0.167 0 0.317-0.01 0.45-0.03 0.133-0.013 0.283-0.02 0.45-0.02v0c1.767 0 2.65 1.567 2.65 4.7v0c0 2.1-0.34 4.093-1.02 5.98-0.687 1.88-1.637 3.587-2.85 5.12-1.22 1.533-2.67 2.823-4.35 3.87-1.687 1.053-3.53 1.797-5.53 2.23zM84.95-14v0c-0.567 0.767-1.1 1.6-1.6 2.5-0.5 0.9-0.933 1.807-1.3 2.72-0.367 0.92-0.65 1.803-0.85 2.65-0.2 0.853-0.3 1.613-0.3 2.28v0c0 0.8 0.133 1.567 0.4 2.3 0.267 0.733 0.567 1.15 0.9 1.25v0c1.5-0.333 2.877-0.96 4.13-1.88 1.247-0.913 2.33-2.053 3.25-3.42 0.913-1.367 1.63-2.917 2.15-4.65 0.513-1.733 0.77-3.583 0.77-5.55v0c0-0.867-0.05-1.55-0.15-2.05-0.1-0.5-0.267-0.933-0.5-1.3v0c-1.467 0.433-2.773 1.133-3.92 2.1-1.153 0.967-2.147 1.983-2.98 3.05z" fill="#152232" fill-rule="nonzero" stroke="none" stroke-width="1" stroke-linecap="butt" stroke-linejoin="miter" stroke-miterlimit="10" stroke-dasharray="" stroke-dashoffset="0" font-family="none" font-weight="none" font-size="none" text-anchor="none" style="mix-blend-mode: normal" data-fill-palette-color="primary" opacity="1"></path><path transform="translate(0,57.95)" d="M32.75-15.9v0c0.867 0 1.55 0.3 2.05 0.9 0.5 0.6 0.75 1.433 0.75 2.5v0c0 0.267-0.017 0.54-0.05 0.82-0.033 0.287-0.083 0.53-0.15 0.73v0c-0.7-0.167-1.467-0.267-2.3-0.3v0c-0.2 1.467-0.733 3.007-1.6 4.62-0.867 1.62-1.917 3.137-3.15 4.55-1.233 1.42-2.583 2.663-4.05 3.73-1.467 1.067-2.917 1.783-4.35 2.15v0c-4.467-0.1-7.723-1.257-9.77-3.47-2.053-2.22-3.08-5.68-3.08-10.38v0c0-3.433 0.633-6.76 1.9-9.98 1.267-3.213 2.95-6.07 5.05-8.57 2.1-2.5 4.51-4.51 7.23-6.03 2.713-1.513 5.537-2.27 8.47-2.27v0c2.3 0 4.093 0.483 5.38 1.45 1.28 0.967 1.92 2.333 1.92 4.1v0c0 1.167-0.273 2.25-0.82 3.25-0.553 1-1.463 2.083-2.73 3.25v0c-0.767-0.233-1.433-0.643-2-1.23-0.567-0.58-0.917-1.253-1.05-2.02v0c1.133-0.833 1.933-1.6 2.4-2.3 0.467-0.7 0.7-1.533 0.7-2.5v0c0-1.533-0.917-2.3-2.75-2.3v0c-1.5 0-3.107 0.56-4.82 1.68-1.72 1.113-3.447 2.72-5.18 4.82v0c-2.467 2.967-4.267 6.023-5.4 9.17-1.133 3.153-1.7 6.697-1.7 10.63v0c0 1.467 0.15 2.8 0.45 4 0.3 1.2 0.7 2.25 1.2 3.15 0.5 0.9 1.09 1.617 1.77 2.15 0.687 0.533 1.43 0.833 2.23 0.9v0c1.067-0.233 2.133-0.777 3.2-1.63 1.067-0.847 2.043-1.847 2.93-3 0.88-1.147 1.63-2.38 2.25-3.7 0.613-1.313 0.987-2.57 1.12-3.77v0c-0.933 0.2-1.823 0.39-2.67 0.57-0.853 0.187-1.663 0.28-2.43 0.28v0c-1 0-1.873-0.25-2.62-0.75-0.753-0.5-1.263-1.183-1.53-2.05v0c0.6-0.333 1.477-0.683 2.63-1.05 1.147-0.367 2.37-0.71 3.67-1.03 1.3-0.313 2.577-0.57 3.83-0.77 1.247-0.2 2.27-0.3 3.07-0.3zM36.15-1v0c0.167-0.967 0.457-2.243 0.87-3.83 0.42-1.58 0.913-3.263 1.48-5.05 0.567-1.78 1.167-3.57 1.8-5.37 0.633-1.8 1.25-3.417 1.85-4.85v0c0.433-1.033 0.817-1.843 1.15-2.43 0.333-0.58 0.7-1.07 1.1-1.47v0c0.467 0.067 0.95 0.183 1.45 0.35 0.5 0.167 0.983 0.367 1.45 0.6 0.467 0.233 0.883 0.473 1.25 0.72 0.367 0.253 0.65 0.497 0.85 0.73v0c-0.9 1.067-1.693 2.283-2.38 3.65-0.68 1.367-1.37 3.117-2.07 5.25v0c1.8-1.6 3.393-3.133 4.78-4.6 1.38-1.467 2.67-3.1 3.87-4.9v0c0.2-0.167 0.55-0.25 1.05-0.25v0c0.467 0 0.917 0.073 1.35 0.22 0.433 0.153 0.733 0.363 0.9 0.63v0c-0.6 1.6-0.9 3.183-0.9 4.75v0c0 1.467 0.217 2.567 0.65 3.3v0c-0.033 0.2-0.257 0.583-0.67 1.15-0.42 0.567-0.88 1.1-1.38 1.6v0c-0.9-0.467-1.7-1.11-2.4-1.93-0.7-0.813-1.217-1.703-1.55-2.67v0c-1.567 1.1-2.9 2.173-4 3.22-1.1 1.053-2.04 2.22-2.82 3.5-0.787 1.287-1.453 2.763-2 4.43-0.553 1.667-1.08 3.65-1.58 5.95v0c-0.3-0.033-0.66-0.14-1.08-0.32-0.413-0.187-0.83-0.413-1.25-0.68-0.413-0.267-0.787-0.55-1.12-0.85-0.333-0.3-0.55-0.583-0.65-0.85zM63.4 1.75v0c-1.9-0.2-3.417-1.033-4.55-2.5-1.133-1.467-1.7-3.333-1.7-5.6v0c0-1.333 0.2-2.717 0.6-4.15 0.4-1.433 0.967-2.827 1.7-4.18 0.733-1.347 1.6-2.62 2.6-3.82 1-1.2 2.083-2.233 3.25-3.1v0c1.833-1.367 3.55-2.05 5.15-2.05v0c1.067 0.567 2.117 1.75 3.15 3.55v0c0.167 0 0.317-0.01 0.45-0.03 0.133-0.013 0.283-0.02 0.45-0.02v0c1.767 0 2.65 1.567 2.65 4.7v0c0 2.1-0.34 4.093-1.02 5.98-0.687 1.88-1.637 3.587-2.85 5.12-1.22 1.533-2.67 2.823-4.35 3.87-1.687 1.053-3.53 1.797-5.53 2.23zM65.95-14v0c-0.567 0.767-1.1 1.6-1.6 2.5-0.5 0.9-0.933 1.807-1.3 2.72-0.367 0.92-0.65 1.803-0.85 2.65-0.2 0.853-0.3 1.613-0.3 2.28v0c0 0.8 0.133 1.567 0.4 2.3 0.267 0.733 0.567 1.15 0.9 1.25v0c1.5-0.333 2.877-0.96 4.13-1.88 1.247-0.913 2.33-2.053 3.25-3.42 0.913-1.367 1.63-2.917 2.15-4.65 0.513-1.733 0.77-3.583 0.77-5.55v0c0-0.867-0.05-1.55-0.15-2.05-0.1-0.5-0.267-0.933-0.5-1.3v0c-1.467 0.433-2.773 1.133-3.92 2.1-1.153 0.967-2.147 1.983-2.98 3.05zM79.85-8.8v0c0-1.9 0.393-3.743 1.18-5.53 0.78-1.78 1.813-3.36 3.1-4.74 1.28-1.387 2.747-2.507 4.4-3.36 1.647-0.847 3.353-1.27 5.12-1.27v0c1.733 0 3.067 0.433 4 1.3 0.933 0.867 1.4 2.1 1.4 3.7v0c0 0.767-0.107 1.507-0.32 2.22-0.22 0.72-0.503 1.363-0.85 1.93-0.353 0.567-0.763 1.023-1.23 1.37-0.467 0.353-0.933 0.53-1.4 0.53v0c-0.4 0-0.807-0.127-1.22-0.38-0.42-0.247-0.763-0.57-1.03-0.97v0c2.233-2.033 3.35-3.883 3.35-5.55v0c0-0.967-0.383-1.45-1.15-1.45v0c-0.667 0-1.5 0.317-2.5 0.95-1 0.633-1.967 1.467-2.9 2.5v0c-1.433 1.6-2.523 3.373-3.27 5.32-0.753 1.953-1.13 3.997-1.13 6.13v0c0 2.7 0.6 4.317 1.8 4.85v0c0.5-0.067 1.083-0.217 1.75-0.45 0.667-0.233 1.383-0.543 2.15-0.93 0.767-0.38 1.56-0.82 2.38-1.32 0.813-0.5 1.603-1.033 2.37-1.6v0c0.133 0.1 0.25 0.25 0.35 0.45 0.1 0.2 0.15 0.383 0.15 0.55v0c-0.567 0.7-1.217 1.383-1.95 2.05-0.733 0.667-1.5 1.273-2.3 1.82-0.8 0.553-1.573 1.023-2.32 1.41-0.753 0.38-1.413 0.62-1.98 0.72v0c-1.1-0.1-2.133-0.44-3.1-1.02-0.967-0.587-1.81-1.347-2.53-2.28-0.713-0.933-1.277-2-1.69-3.2-0.42-1.2-0.63-2.45-0.63-3.75zM118.45-20.7v0c-0.133 2.067-0.5 3.84-1.1 5.32-0.6 1.487-1.457 2.787-2.57 3.9-1.12 1.12-2.48 2.13-4.08 3.03-1.6 0.9-3.467 1.767-5.6 2.6v0c0 0.2-0.007 0.407-0.02 0.62-0.02 0.22-0.03 0.447-0.03 0.68v0c0 0.433 0.033 0.883 0.1 1.35 0.067 0.467 0.183 0.9 0.35 1.3 0.167 0.4 0.4 0.723 0.7 0.97 0.3 0.253 0.683 0.38 1.15 0.38v0c0.9 0 1.783-0.2 2.65-0.6 0.867-0.4 1.693-0.893 2.48-1.48 0.78-0.58 1.513-1.213 2.2-1.9 0.68-0.68 1.287-1.303 1.82-1.87v0c0.333 0.3 0.617 0.583 0.85 0.85v0c-1.5 2-3.14 3.657-4.92 4.97-1.787 1.32-3.48 2.163-5.08 2.53v0c-2.3-0.267-4.09-1.11-5.37-2.53-1.287-1.413-1.93-3.12-1.93-5.12v0c0-1.367 0.193-2.76 0.58-4.18 0.38-1.413 0.913-2.78 1.6-4.1 0.68-1.313 1.48-2.553 2.4-3.72 0.913-1.167 1.897-2.183 2.95-3.05 1.047-0.867 2.13-1.55 3.25-2.05 1.113-0.5 2.22-0.75 3.32-0.75v0c1.533 0.2 2.967 1.15 4.3 2.85zM115-19.05v0c-0.9 0.133-1.833 0.5-2.8 1.1-0.967 0.6-1.873 1.4-2.72 2.4-0.853 1-1.63 2.167-2.33 3.5-0.7 1.333-1.25 2.767-1.65 4.3v0c2.667-1.333 4.883-2.977 6.65-4.93 1.767-1.947 2.717-4.07 2.85-6.37zM119.55-1v0c0.167-0.967 0.46-2.243 0.88-3.83 0.413-1.58 0.903-3.263 1.47-5.05 0.567-1.78 1.167-3.57 1.8-5.37 0.633-1.8 1.25-3.417 1.85-4.85v0c0.433-1.033 0.817-1.843 1.15-2.43 0.333-0.58 0.7-1.07 1.1-1.47v0c0.467 0.067 0.95 0.183 1.45 0.35 0.5 0.167 0.983 0.367 1.45 0.6 0.467 0.233 0.883 0.473 1.25 0.72 0.367 0.253 0.65 0.497 0.85 0.73v0c-0.9 1.067-1.69 2.283-2.37 3.65-0.687 1.367-1.38 3.117-2.08 5.25v0c1.8-1.6 3.393-3.133 4.78-4.6 1.38-1.467 2.67-3.1 3.87-4.9v0c0.2-0.167 0.55-0.25 1.05-0.25v0c0.467 0 0.917 0.073 1.35 0.22 0.433 0.153 0.733 0.363 0.9 0.63v0c-0.6 1.6-0.9 3.183-0.9 4.75v0c0 1.467 0.217 2.567 0.65 3.3v0c-0.033 0.2-0.257 0.583-0.67 1.15-0.42 0.567-0.88 1.1-1.38 1.6v0c-0.9-0.467-1.7-1.11-2.4-1.93-0.7-0.813-1.217-1.703-1.55-2.67v0c-1.567 1.1-2.9 2.173-4 3.22-1.1 1.053-2.04 2.22-2.82 3.5-0.787 1.287-1.453 2.763-2 4.43-0.553 1.667-1.08 3.65-1.58 5.95v0c-0.3-0.033-0.657-0.14-1.07-0.32-0.42-0.187-0.837-0.413-1.25-0.68-0.42-0.267-0.797-0.55-1.13-0.85-0.333-0.3-0.55-0.583-0.65-0.85zM159.7-7.75v0c-0.767 2.433-1.533 4.65-2.3 6.65-0.767 2-1.583 3.84-2.45 5.52-0.867 1.687-1.8 3.24-2.8 4.66-1 1.413-2.1 2.753-3.3 4.02v0c-1.533 1.6-3.117 2.827-4.75 3.68-1.633 0.847-3.267 1.27-4.9 1.27v0c-0.833 0-1.657-0.09-2.47-0.27-0.82-0.187-1.587-0.437-2.3-0.75-0.72-0.32-1.353-0.687-1.9-1.1-0.553-0.42-0.947-0.863-1.18-1.33v0c0-0.4 0.233-0.75 0.7-1.05v0c0.4 0.367 0.733 0.65 1 0.85 0.267 0.2 0.527 0.367 0.78 0.5 0.247 0.133 0.513 0.217 0.8 0.25 0.28 0.033 0.603 0.05 0.97 0.05v0c1.9 0 3.76-0.557 5.58-1.67 1.813-1.12 3.53-2.703 5.15-4.75 1.613-2.053 3.087-4.537 4.42-7.45 1.333-2.92 2.467-6.18 3.4-9.78v0c-0.433 0.667-0.967 1.483-1.6 2.45-0.633 0.967-1.333 1.923-2.1 2.87-0.767 0.953-1.557 1.813-2.37 2.58-0.82 0.767-1.613 1.283-2.38 1.55v0c-0.533-0.033-1.09-0.14-1.67-0.32-0.587-0.187-1.137-0.447-1.65-0.78-0.52-0.333-0.98-0.733-1.38-1.2-0.4-0.467-0.667-1-0.8-1.6v0c0-0.967 0.033-1.743 0.1-2.33 0.067-0.58 0.183-1.22 0.35-1.92v0c0.3-1.267 0.743-2.7 1.33-4.3 0.58-1.6 1.263-3.177 2.05-4.73 0.78-1.547 1.647-2.997 2.6-4.35 0.947-1.347 1.937-2.403 2.97-3.17v0c0.267 0 0.6 0.023 1 0.07 0.4 0.053 0.817 0.147 1.25 0.28 0.433 0.133 0.85 0.29 1.25 0.47 0.4 0.187 0.75 0.43 1.05 0.73v0c-0.367 0.333-1.167 1.45-2.4 3.35-1.233 1.9-2.6 4.633-4.1 8.2v0c-0.167 0.367-0.367 0.9-0.6 1.6-0.233 0.7-0.457 1.433-0.67 2.2-0.22 0.767-0.413 1.517-0.58 2.25-0.167 0.733-0.25 1.317-0.25 1.75v0c0 0.267 0.043 0.467 0.13 0.6 0.08 0.133 0.153 0.233 0.22 0.3v0c0.6-0.1 1.4-0.593 2.4-1.48 1-0.88 2.133-2.253 3.4-4.12v0c0.8-1.2 1.533-2.393 2.2-3.58 0.667-1.18 1.327-2.37 1.98-3.57 0.647-1.2 1.32-2.433 2.02-3.7 0.7-1.267 1.45-2.567 2.25-3.9v0c0.433 0 0.9 0.05 1.4 0.15 0.5 0.1 0.983 0.223 1.45 0.37 0.467 0.153 0.877 0.32 1.23 0.5 0.347 0.187 0.603 0.38 0.77 0.58v0c-1.033 2.2-2 4.35-2.9 6.45-0.9 2.1-1.7 4.25-2.4 6.45z" fill="#152232" fill-rule="nonzero" stroke="none" stroke-width="1" stroke-linecap="butt" stroke-linejoin="miter" stroke-miterlimit="10" stroke-dasharray="" stroke-dashoffset="0" font-family="none" font-weight="none" font-size="none" text-anchor="none" style="mix-blend-mode: normal" data-fill-palette-color="primary" opacity="1"></path></g></svg></g></svg></g><g transform="matrix(1,0,0,1,0,221.0111215100673)"><svg viewBox="0 0 159.0325426918033 6.022566805222662" height="6.022566805222662" width="159.0325426918033"><g transform="matrix(1,0,0,1,0,0)"><svg width="159.0325426918033" viewBox="-12.05 -32 864.7299999999999 32.75" height="6.022566805222662" data-palette-color="#5ebc67"><path d="M12.05-2.4L11.65-0.15-9.5-2.4 12.05-2.4ZM12.85-7.25L12.5-5-8.65-7.25 12.85-7.25ZM12.4-12.05L12.85-9.8-8.35-12.05 12.4-12.05ZM11.45-16.85L11.9-14.6-9.3-16.85 11.45-16.85ZM-11.15-26.45L9.55-26.45 10-24.2-11.15-26.45ZM-10.2-21.65L10.5-21.65 10.95-19.4-10.2-21.65ZM8.65-31.25L9.1-29-12.05-31.25 8.65-31.25ZM10.15-31.25L20.65-31.25 21.3-20.25 21.65-20.25 26.25-31.25 36.75-31.25 24.15-8.5 22.7 0 13.2 0 14.65-8.5 10.15-31.25ZM58.15-26.95L58.15-26.95Q63.55-26.95 65.85-24.88 68.15-22.8 68.15-18.4L68.15-18.4Q68.15-16.25 67.6-13.2L67.6-13.2Q66.35-6 63.2-2.7 60.05 0.6 53.3 0.6L53.3 0.6Q48 0.6 45.75-1.48 43.5-3.55 43.5-7.9L43.5-7.9Q43.5-10.15 44.05-13.2L44.05-13.2Q45.3-20.4 48.4-23.68 51.5-26.95 58.15-26.95ZM51.8-7L54.75-7Q56.2-7 56.92-7.35 57.65-7.7 57.9-8.9L57.9-8.9 59.8-19.35 56.75-19.35Q55.35-19.35 54.57-19 53.8-18.65 53.65-17.5L53.65-17.5 51.8-7ZM22.35-12.05L42.3-12.05Q42.1-10.5 42.05-9.95L42.05-9.95 22.35-12.05ZM23.25-16.85L43.25-16.85 42.8-14.75 23.25-16.85ZM22.55-7.25L42-7.25Q42-6.45 42.2-5.15L42.2-5.15 22.55-7.25ZM25.25-21.65L45-21.65Q44.4-20.35 44.15-19.65L44.15-19.65 25.25-21.65ZM26.9-2.4L43.05-2.4Q43.65-1.2 44.35-0.55L44.35-0.55 26.9-2.4ZM31.95-26.45L49.35-26.45Q48.15-25.75 47.3-24.8L47.3-24.8 31.95-26.45ZM81.3-12.05L80.9-9.8 59.7-12.05 81.3-12.05ZM82.15-16.85L81.75-14.6 60.55-16.85 82.15-16.85ZM83-21.65L82.6-19.4 61.4-21.65 83-21.65ZM83.8-26.45L83.45-24.2 62.25-26.45 83.8-26.45ZM59.55-7.25L80.7-7.25 80.7-6.25Q80.7-5.4 80.75-5L80.75-5 59.55-7.25ZM82.65-0.15L82.65-0.15 61.45-2.4 81.2-2.4Q81.75-1 82.65-0.15ZM90.4-7L92.9-7Q94.25-7 94.77-7.33 95.3-7.65 95.5-8.9L95.5-8.9 98.65-26.45 107.05-26.45 104.45-11.55Q103.25-4.55 100.57-1.98 97.9 0.6 91.45 0.6L91.45 0.6Q86.3 0.6 84.25-0.93 82.2-2.45 82.2-6.25L82.2-6.25Q82.2-8.35 82.75-11.55L82.75-11.55 85.4-26.45 93.8-26.45 90.4-7ZM121.79-26.45L134.49-26.45Q141.79-26.45 141.79-19.85L141.79-19.85Q141.79-16.85 140.59-13.63 139.39-10.4 136.54-8.8L136.54-8.8 139.39 0 130.04 0 128.14-7.7 126.94-7.7 125.59 0 117.19 0 121.79-26.45ZM132.34-16.05L132.64-17.8Q132.64-17.85 132.69-18.3L132.69-18.3Q132.69-19.15 130.04-19.15L130.04-19.15 128.94-19.15 128.14-14.55 129.74-14.55Q132.04-14.55 132.34-16.05L132.34-16.05ZM115.94-2.4L115.54-0.15 94.34-2.4 115.94-2.4ZM117.64-12.05L117.24-9.8 96.04-12.05 117.64-12.05ZM118.49-16.85L118.09-14.6 96.89-16.85 118.49-16.85ZM119.34-21.65L118.94-19.4 97.74-21.65 119.34-21.65ZM120.14-26.45L119.79-24.2 98.59-26.45 120.14-26.45ZM116.79-7.25L116.39-5 95.19-7.25 116.79-7.25ZM172.84-7.8L176.79-7.8Q178.74-7.8 179.69-8.28 180.64-8.75 180.94-10.45L180.94-10.45 183.24-23.45 179.24-23.45Q177.34-23.45 176.39-22.98 175.44-22.5 175.14-20.8L175.14-20.8 172.84-7.8ZM180.89-32L180.89-32Q187.24-32 189.94-29.53 192.64-27.05 192.64-21.9 192.64-16.75 191.01-11.13 189.39-5.5 185.86-2.38 182.34 0.75 175.56 0.75 168.79 0.75 166.09-1.73 163.39-4.2 163.39-9.35L163.39-9.35Q163.39-11.8 164.09-15.83 164.79-19.85 165.94-22.78 167.09-25.7 169.04-27.85L169.04-27.85Q172.79-32 180.89-32ZM162.79-16.85L162.64-15.85Q162.54-15.45 162.44-14.75L162.44-14.75 142.79-16.85 162.79-16.85ZM142.24-12.05L162.09-12.05Q161.94-10.9 161.94-9.95L161.94-9.95 142.24-12.05ZM143.99-21.65L163.99-21.65 163.39-19.6 143.99-21.65ZM142.89-7.25L161.99-7.25Q162.19-5.85 162.34-5.15L162.34-5.15 142.89-7.25ZM146.34-26.45L166.04-26.45Q165.34-25.15 165.04-24.45L165.04-24.45 146.34-26.45ZM147.69-2.4L163.49-2.4Q164.14-1.25 164.99-0.55L164.99-0.55 147.69-2.4ZM153.24-31.25L170.79-31.25Q169.34-30.35 168.54-29.6L168.54-29.6 153.24-31.25ZM226.29 0L219.49 0 214.34-9.9 214.14-9.9 212.39 0 203.99 0 208.59-26.45 215.39-26.45 220.59-16.6 220.89-16.6 222.59-26.45 230.94-26.45 226.29 0ZM202.74-2.4L202.34-0.15 181.14-2.4 202.74-2.4ZM204.44-12.05L204.04-9.8 182.84-12.05 204.44-12.05ZM205.29-16.85L204.89-14.6 183.69-16.85 205.29-16.85ZM206.14-21.65L205.74-19.4 184.54-21.65 206.14-21.65ZM206.94-26.45L206.59-24.2 185.39-26.45 206.94-26.45ZM203.59-7.25L203.19-5 181.99-7.25 203.59-7.25ZM261.03-15.55L260.18-10.75 252.73-10.75 252.13-7.35 261.38-7.35 260.08 0 242.43 0 247.03-26.45 264.63-26.45 262.28-18.95 254.13-18.95 253.53-15.55 261.03-15.55ZM241.18-2.4L240.78-0.15 219.58-2.4 241.18-2.4ZM242.88-12.05L242.48-9.8 221.28-12.05 242.88-12.05ZM243.73-16.85L243.33-14.6 222.13-16.85 243.73-16.85ZM244.58-21.65L244.18-19.4 222.98-21.65 244.58-21.65ZM245.38-26.45L245.03-24.2 223.83-26.45 245.38-26.45ZM242.03-7.25L241.63-5 220.43-7.25 242.03-7.25ZM287.93-19.4L287.93-19.4 266.73-21.65 288.28-21.65Q288.03-20.65 287.93-19.4ZM268.13-26.45L289.63-26.45 288.88-24.25 268.13-26.45ZM267.18-16.85L287.93-16.85Q288.03-15.5 288.33-14.6L288.33-14.6 267.18-16.85ZM294.93-9.8L294.93-9.8 268.48-12.05 290.03-12.05Q291.68-10.45 294.93-9.8ZM271.88-31.25L293.38-31.25Q292.23-30.5 291.18-29.2L291.18-29.2 271.88-31.25ZM285.58-5.05L267.63-7.25 286.33-7.25 285.58-5.05ZM283.98-0.2L266.78-2.4 284.73-2.4 283.98-0.2ZM285.68-0.55L288.48-8.8Q292.68-7.65 296.15-7.65 299.63-7.65 301.83-7.95L301.83-7.95 302.23-10.45 298.08-10.85Q293.33-11.3 291.35-13 289.38-14.7 289.38-17.8L289.38-17.8Q289.38-19.15 289.68-20.8L289.68-20.8Q290.83-27.2 293.88-29.6 296.93-32 303.25-32 309.58-32 314.43-30.75L314.43-30.75 311.83-22.75Q307.48-23.5 304.85-23.5 302.23-23.5 300.33-23.25L300.33-23.25 299.93-20.8 303.28-20.45Q308.38-19.9 310.53-18.03 312.68-16.15 312.68-13L312.68-13Q312.68-9.8 311.33-6.4L311.33-6.4Q310.58-4.65 309.75-3.48 308.93-2.3 307.65-1.48 306.38-0.65 305.33-0.23 304.28 0.2 302.63 0.4L302.63 0.4Q300.33 0.75 296.93 0.75L296.93 0.75Q290.73 0.75 285.68-0.55L285.68-0.55ZM347.63-26.45L346.28-18.95 340.88-18.95 337.57 0 328.78 0 332.07-18.95 326.53-18.95 327.88-26.45 347.63-26.45ZM327.68-2.4L327.28-0.15 306.07-2.4 327.68-2.4ZM329.38-12.05L328.98-9.8 307.78-12.05 329.38-12.05ZM330.23-16.85L329.82-14.6 308.63-16.85 330.23-16.85ZM325.43-21.65L325.03-19.4 303.82-21.65 325.43-21.65ZM326.23-26.45L325.88-24.2 304.68-26.45 326.23-26.45ZM328.53-7.25L328.13-5 306.93-7.25 328.53-7.25ZM371.52-26.95L371.52-26.95Q376.92-26.95 379.22-24.88 381.52-22.8 381.52-18.4L381.52-18.4Q381.52-16.25 380.97-13.2L380.97-13.2Q379.72-6 376.57-2.7 373.42 0.6 366.67 0.6L366.67 0.6Q361.37 0.6 359.12-1.48 356.87-3.55 356.87-7.9L356.87-7.9Q356.87-10.15 357.42-13.2L357.42-13.2Q358.67-20.4 361.77-23.68 364.87-26.95 371.52-26.95ZM365.17-7L368.12-7Q369.57-7 370.3-7.35 371.02-7.7 371.27-8.9L371.27-8.9 373.17-19.35 370.12-19.35Q368.72-19.35 367.95-19 367.17-18.65 367.02-17.5L367.02-17.5 365.17-7ZM335.72-12.05L355.67-12.05Q355.47-10.5 355.42-9.95L355.42-9.95 335.72-12.05ZM336.62-16.85L356.62-16.85 356.17-14.75 336.62-16.85ZM335.92-7.25L355.37-7.25Q355.37-6.45 355.57-5.15L355.57-5.15 335.92-7.25ZM338.62-21.65L358.37-21.65Q357.77-20.35 357.52-19.65L357.52-19.65 338.62-21.65ZM340.27-2.4L356.42-2.4Q357.02-1.2 357.72-0.55L357.72-0.55 340.27-2.4ZM345.32-26.45L362.72-26.45Q361.52-25.75 360.67-24.8L360.67-24.8 345.32-26.45ZM408.57-6.2L408.57-6.2 403.72-6.2 402.62 0 394.22 0 398.82-26.45 411.52-26.45Q418.77-26.45 418.77-19.6L418.77-19.6Q418.77-16.5 417.87-13.9 416.97-11.3 415.92-9.8 414.87-8.3 412.94-7.25 411.02-6.2 408.57-6.2ZM409.07-14.4L409.67-17.8Q409.67-17.85 409.72-18.1L409.72-18.1Q409.72-19.15 407.57-19.15L407.57-19.15 405.97-19.15 404.92-12.95 406.47-12.95Q407.62-12.95 408.27-13.23 408.92-13.5 409.07-14.4L409.07-14.4ZM392.97-2.4L392.57-0.15 371.37-2.4 392.97-2.4ZM394.67-12.05L394.27-9.8 373.07-12.05 394.67-12.05ZM395.52-16.85L395.12-14.6 373.92-16.85 395.52-16.85ZM396.37-21.65L395.97-19.4 374.77-21.65 396.37-21.65ZM397.17-26.45L396.82-24.2 375.62-26.45 397.17-26.45ZM393.82-7.25L393.42-5 372.22-7.25 393.82-7.25ZM465.87-18.2L462.91-1.5Q456.81 0.75 450.66 0.75 444.51 0.75 441.79-1.7 439.06-4.15 439.06-9.25L439.06-9.25Q439.06-11.4 439.76-15.6L439.76-15.6Q441.26-24.3 445.06-28.15 448.87-32 457.66-32L457.66-32Q459.56-32 462.41-31.6 465.26-31.2 466.62-30.7L466.62-30.7 463.87-23.05Q460.12-23.75 456.99-23.75 453.87-23.75 452.51-23.25 451.16-22.75 450.91-21.25L450.91-21.25 448.46-7.1 451.62-7.1Q453.31-7.1 454.14-7.48 454.96-7.85 455.21-9.2L455.21-9.2 455.46-10.55 453.06-10.55 454.41-18.2 465.87-18.2ZM438.51-16.85L438.37-15.85Q438.26-15.45 438.16-14.75L438.16-14.75 418.51-16.85 438.51-16.85ZM417.96-12.05L437.81-12.05Q437.66-10.9 437.66-9.95L437.66-9.95 417.96-12.05ZM419.71-21.65L439.71-21.65 439.12-19.6 419.71-21.65ZM418.62-7.25L437.71-7.25Q437.91-5.85 438.06-5.15L438.06-5.15 418.62-7.25ZM422.06-26.45L441.76-26.45Q441.06-25.15 440.76-24.45L440.76-24.45 422.06-26.45ZM423.41-2.4L439.21-2.4Q439.87-1.25 440.71-0.55L440.71-0.55 423.41-2.4ZM428.96-31.25L446.51-31.25Q445.06-30.35 444.26-29.6L444.26-29.6 428.96-31.25ZM481.91-26.45L494.61-26.45Q501.91-26.45 501.91-19.85L501.91-19.85Q501.91-16.85 500.71-13.63 499.51-10.4 496.66-8.8L496.66-8.8 499.51 0 490.16 0 488.26-7.7 487.06-7.7 485.71 0 477.31 0 481.91-26.45ZM492.46-16.05L492.76-17.8Q492.76-17.85 492.81-18.3L492.81-18.3Q492.81-19.15 490.16-19.15L490.16-19.15 489.06-19.15 488.26-14.55 489.86-14.55Q492.16-14.55 492.46-16.05L492.46-16.05ZM476.06-2.4L475.66-0.15 454.46-2.4 476.06-2.4ZM477.76-12.05L477.36-9.8 456.16-12.05 477.76-12.05ZM478.61-16.85L478.21-14.6 457.01-16.85 478.61-16.85ZM479.46-21.65L479.06-19.4 457.86-21.65 479.46-21.65ZM480.26-26.45L479.91-24.2 458.71-26.45 480.26-26.45ZM476.91-7.25L476.51-5 455.31-7.25 476.91-7.25ZM528.61-26.95L528.61-26.95Q534.01-26.95 536.31-24.88 538.61-22.8 538.61-18.4L538.61-18.4Q538.61-16.25 538.06-13.2L538.06-13.2Q536.81-6 533.66-2.7 530.51 0.6 523.76 0.6L523.76 0.6Q518.46 0.6 516.21-1.48 513.96-3.55 513.96-7.9L513.96-7.9Q513.96-10.15 514.51-13.2L514.51-13.2Q515.76-20.4 518.86-23.68 521.96-26.95 528.61-26.95ZM522.26-7L525.21-7Q526.66-7 527.38-7.35 528.11-7.7 528.36-8.9L528.36-8.9 530.26-19.35 527.21-19.35Q525.81-19.35 525.04-19 524.26-18.65 524.11-17.5L524.11-17.5 522.26-7ZM492.81-12.05L512.76-12.05Q512.56-10.5 512.51-9.95L512.51-9.95 492.81-12.05ZM493.71-16.85L513.71-16.85 513.26-14.75 493.71-16.85ZM493.01-7.25L512.46-7.25Q512.46-6.45 512.66-5.15L512.66-5.15 493.01-7.25ZM495.71-21.65L515.46-21.65Q514.86-20.35 514.61-19.65L514.61-19.65 495.71-21.65ZM497.36-2.4L513.51-2.4Q514.11-1.2 514.81-0.55L514.81-0.55 497.36-2.4ZM502.41-26.45L519.81-26.45Q518.61-25.75 517.76-24.8L517.76-24.8 502.41-26.45ZM568.86-8.05L568.06-0.55Q565.36 0.6 560.56 0.6 555.76 0.6 553.48-1.43 551.21-3.45 551.21-7.8L551.21-7.8Q551.21-9.75 551.81-13.2L551.81-13.2Q553.06-20.45 556.13-23.7 559.21-26.95 565.96-26.95L565.96-26.95Q570.81-26.95 572.61-25.85L572.61-25.85 570.06-18.9Q567.56-19.6 565.51-19.6 563.46-19.6 562.63-19.25 561.81-18.9 561.61-17.9L561.61-17.9 559.66-7.2Q560.71-6.95 563.28-6.95 565.86-6.95 568.86-8.05L568.86-8.05ZM530.11-12.05L550.06-12.05Q549.86-10.5 549.81-9.95L549.81-9.95 530.11-12.05ZM531.01-16.85L551.01-16.85 550.56-14.75 531.01-16.85ZM530.31-7.25L549.76-7.25Q549.76-6.45 549.96-5.15L549.96-5.15 530.31-7.25ZM533.01-21.65L552.76-21.65Q552.16-20.35 551.91-19.65L551.91-19.65 533.01-21.65ZM534.66-2.4L550.81-2.4Q551.41-1.2 552.11-0.55L552.11-0.55 534.66-2.4ZM539.71-26.45L557.11-26.45Q555.91-25.75 555.06-24.8L555.06-24.8 539.71-26.45ZM600.9-15.55L600.05-10.75 592.6-10.75 592-7.35 601.25-7.35 599.95 0 582.3 0 586.9-26.45 604.5-26.45 602.15-18.95 594-18.95 593.4-15.55 600.9-15.55ZM581.05-2.4L580.65-0.15 559.45-2.4 581.05-2.4ZM582.75-12.05L582.35-9.8 561.15-12.05 582.75-12.05ZM583.6-16.85L583.2-14.6 562-16.85 583.6-16.85ZM584.45-21.65L584.05-19.4 562.85-21.65 584.45-21.65ZM585.25-26.45L584.9-24.2 563.7-26.45 585.25-26.45ZM581.9-7.25L581.5-5 560.3-7.25 581.9-7.25ZM619.7-26.45L632.4-26.45Q639.7-26.45 639.7-19.85L639.7-19.85Q639.7-16.85 638.5-13.63 637.3-10.4 634.45-8.8L634.45-8.8 637.3 0 627.95 0 626.05-7.7 624.85-7.7 623.5 0 615.1 0 619.7-26.45ZM630.25-16.05L630.55-17.8Q630.55-17.85 630.6-18.3L630.6-18.3Q630.6-19.15 627.95-19.15L627.95-19.15 626.85-19.15 626.05-14.55 627.65-14.55Q629.95-14.55 630.25-16.05L630.25-16.05ZM613.85-2.4L613.45-0.15 592.25-2.4 613.85-2.4ZM615.55-12.05L615.15-9.8 593.95-12.05 615.55-12.05ZM616.4-16.85L616-14.6 594.8-16.85 616.4-16.85ZM617.25-21.65L616.85-19.4 595.65-21.65 617.25-21.65ZM618.05-26.45L617.7-24.2 596.5-26.45 618.05-26.45ZM614.7-7.25L614.3-5 593.1-7.25 614.7-7.25ZM653.05-2.4L652.65-0.15 631.45-2.4 653.05-2.4ZM653.9-7.25L653.5-5 632.3-7.25 653.9-7.25ZM651.05-21.65L651.5-19.4 630.3-21.65 651.05-21.65ZM650.05-26.45L650.5-24.2 629.3-26.45 650.05-26.45ZM652.05-16.85L652.5-14.6 631.3-16.85 652.05-16.85ZM653-12.05L653.5-9.8 632.3-12.05 653-12.05ZM651.55-26.45L660.15-26.45 661.25-16.85 661.55-16.85 665.7-26.45 674.45-26.45 663.85-7.55 662.6 0 654.15 0 655.45-7.55 651.55-26.45ZM713.84-19.05L712.49-11.6 704.39-11.6 702.39 0 692.89 0 698.39-31.25 717.89-31.25 715.24-23.25 706.44-23.25 705.74-19.05 713.84-19.05ZM691.79-2.4L691.39-0.15 670.19-2.4 691.79-2.4ZM693.49-12.05L693.09-9.8 671.89-12.05 693.49-12.05ZM694.34-16.85L693.94-14.6 672.74-16.85 694.34-16.85ZM695.19-21.65L694.79-19.4 673.59-21.65 695.19-21.65ZM695.99-26.45L695.64-24.2 674.44-26.45 695.99-26.45ZM692.64-7.25L692.24-5 671.04-7.25 692.64-7.25ZM696.84-31.25L696.44-29 675.29-31.25 696.84-31.25ZM734.94 0L726.19 0 730.79-26.45 739.59-26.45 734.94 0ZM724.94-2.4L724.54-0.15 703.34-2.4 724.94-2.4ZM726.64-12.05L726.24-9.8 705.04-12.05 726.64-12.05ZM727.49-16.85L727.09-14.6 705.89-16.85 727.49-16.85ZM728.34-21.65L727.94-19.4 706.74-21.65 728.34-21.65ZM729.14-26.45L728.79-24.2 707.59-26.45 729.14-26.45ZM725.79-7.25L725.39-5 704.19-7.25 725.79-7.25ZM772.94 0L766.14 0 760.99-9.9 760.79-9.9 759.04 0 750.64 0 755.24-26.45 762.04-26.45 767.24-16.6 767.54-16.6 769.24-26.45 777.59-26.45 772.94 0ZM749.39-2.4L748.99-0.15 727.79-2.4 749.39-2.4ZM751.09-12.05L750.69-9.8 729.49-12.05 751.09-12.05ZM751.94-16.85L751.54-14.6 730.34-16.85 751.94-16.85ZM752.79-21.65L752.39-19.4 731.19-21.65 752.79-21.65ZM753.59-26.45L753.24-24.2 732.04-26.45 753.59-26.45ZM750.24-7.25L749.84-5 728.64-7.25 750.24-7.25ZM793.69-26.45L804.94-26.45Q810.39-26.45 812.74-24.5 815.09-22.55 815.09-18.25L815.09-18.25Q815.09-16.2 814.54-13.2L814.54-13.2Q813.29-6.1 810.21-3.05 807.14 0 800.29 0L800.29 0 789.09 0 793.69-26.45ZM803.74-19.15L803.74-19.15 800.84-19.15 798.74-7.15 801.64-7.15Q803.09-7.15 803.86-7.53 804.64-7.9 804.84-9.05L804.84-9.05 806.29-17.3Q806.34-17.5 806.34-18.1L806.34-18.1Q806.34-19.15 803.74-19.15ZM787.84-2.4L787.44-0.15 766.24-2.4 787.84-2.4ZM789.54-12.05L789.14-9.8 767.94-12.05 789.54-12.05ZM790.39-16.85L789.99-14.6 768.79-16.85 790.39-16.85ZM791.24-21.65L790.84-19.4 769.64-21.65 791.24-21.65ZM792.04-26.45L791.69-24.2 770.49-26.45 792.04-26.45ZM788.69-7.25L788.29-5 767.09-7.25 788.69-7.25ZM826.63-0.15L805.73-2.4 827.33-2.4 826.63-0.15ZM809.58-21.65L831.13-21.65Q830.83-20.85 830.48-19.4L830.48-19.4 809.58-21.65ZM829.88-15L829.88-15 829.88-14.6 808.68-16.85 829.98-16.85Q829.88-15.65 829.88-15ZM828.93-7.25L828.23-5.05 807.38-7.25 828.93-7.25ZM813.03-26.45L834.58-26.45Q833.23-25.45 832.53-24.35L832.53-24.35 813.03-26.45ZM810.63-12.05L830.33-12.05Q830.78-10.75 831.78-9.8L831.78-9.8 810.63-12.05ZM852.68-25.9L850.28-18.6Q846.88-19.4 844.48-19.4 842.08-19.4 840.93-19.25L840.93-19.25 840.68-17.8 843.18-17.5Q851.23-16.45 851.23-10.85L851.23-10.85Q851.23-10.2 850.93-8.43 850.63-6.65 849.93-5 849.23-3.35 848.16-2.33 847.08-1.3 846.06-0.68 845.03-0.05 843.43 0.2L843.43 0.2Q840.93 0.6 836.76 0.6 832.58 0.6 828.33-0.55L828.33-0.55 830.78-7.95Q834.68-6.85 837.61-6.85 840.53-6.85 841.73-7L841.73-7 841.98-8.6 838.83-8.95Q834.78-9.4 833.08-10.85 831.38-12.3 831.38-15L831.38-15Q831.38-16 831.63-17.5L831.63-17.5Q832.63-22.85 835.23-24.9 837.83-26.95 843.16-26.95 848.48-26.95 852.68-25.9L852.68-25.9Z" opacity="1" transform="matrix(1,0,0,1,0,0)" fill="#5ebc67" class="slogan-text-1" data-fill-palette-color="secondary" id="text-1"></path></svg></g></svg></g></svg></g></svg></g><g transform="matrix(1,0,0,1,0,10.50502291276051)"><svg viewBox="0 0 167.4026765176877 207.15881093134539" height="207.15881093134539" width="167.4026765176877"><g><svg xmlns="http://www.w3.org/2000/svg" xmlns:xlink="http://www.w3.org/1999/xlink" version="1.1" x="0" y="0" viewBox="10.68369304113706 0.7970453998735058 71.53843218191167 88.52795460012648" style="enable-background:new 0 0 91 91;" xml:space="preserve" height="207.15881093134539" width="167.4026765176877" class="icon-icon-0" data-fill-palette-color="accent" id="icon-0"><g fill="#5ebc67" data-fill-palette-color="accent"><path d="M10.7 43.3c0.9 7.7 1.4 14.3 2.3 21.4 0.7 5.9 0.6 12.8 2.7 18.4s7 6 12.3 6.1c7.7 0.2 15.5 0.1 23.3 0.1 3.7 0 7.3 0 11 0 2.9 0 5.8-0.2 8.1-2.2 2.5-2.1 4.4-5.6 5.1-8.8 1.3-5.7 1.8-11.7 2.7-17.5 0.9-5.6 1.8-11.2 2.7-16.7 0.3-1.7-1.2-2.8-2.8-2.1-1 0.4-2 0.7-3.1 0.9 2.9-8.3 5.1-16.9 6.5-25.6C82.4 11.5 84 1 75.1 0.8c-8.2-0.2-12.9 9.8-15.9 15.9-1.2 2.4-2.3 4.9-3.3 7.3-1.6-1.3-3.6-2.3-4.4-3.7 0.3-0.2 0.7-0.5 1.1-0.7 0.6-0.4 1.1-1.3 0.8-2-0.8-2.4-1.7-4.7-2.5-7.1-0.3-1-1.1-1.3-2.1-1.2-5.8 0.9-11.1 3.2-16.4 5.6-0.7 0.3-1 1.3-0.8 2 0.6 2.4 1.4 4.7 2.1 7.1 0.3 1 1.3 1.5 2.3 1.3 0.3-0.1 0.7-0.2 1.1-0.3 0.2 1 0.1 1.8-0.4 3-0.6 1.4-1 2.8-1.3 4.2-1.5-2.5-4-4.4-7.4-5.2-2.3-0.5-4.7-0.5-7 0.1-1.3-1.4-2.8-2.6-4.5-3.2-1.8-0.6-3.4 2-1.9 3.2 0.8 0.6 1.6 1.1 2.4 1.7-0.4 0.3-0.8 0.6-1.2 0.9-3.2 2.7-5.1 7.5-3.3 11.5C12.2 41.4 10.5 42 10.7 43.3zM60.2 23.1c1.4-3.2 3-6.3 4.7-9.3 1.9-3.3 4.2-7.5 8-8.8 7.2-2.5 5.8 7.4 4.5 13.5-3.9-0.8-8.3-0.6-11.5 2-1.2 1 0.1 2.6 1.4 2.4 3.3-0.5 6-1.4 9.3-0.7 0 0.1 0 0.1 0 0.2-0.3 1.5-0.7 3-1 4.5-4-0.6-8.3-0.4-11.8 1.8-1.2 0.8-0.5 2.7 1 2.3 3.4-0.9 6.6-1.2 10-0.8-0.5 1.7-1 3.4-1.6 5.1-4-1.1-9.3-1.1-12.2 1.6-0.7 0.7-0.1 1.7 0.7 1.8 2 0.1 4-0.4 6-0.4 1.4 0 2.8 0.3 4.2 0.6-0.5 1.4-1.1 2.8-1.6 4.2-3.3-0.4-6.6-1.3-9.7-1.8-2.4-0.3-4.6-0.3-6.8 0C55.6 35.1 57.6 29 60.2 23.1zM52 25.2c1 0.6 1.8 1.4 2.6 2.1-0.4 1.1-0.8 2.2-1.2 3.2-1.1 1.2-1.9 2.2-3.8 2.3-1.9 0.1-3.7-0.5-5.6-0.4-1.8 0.2-3.5 0.8-5 1.9 0.2-1.6 0.6-3.3 1.3-5.1 0.6-1.4 1.1-2.8 0.8-4.3-0.1-0.7-0.5-1.2-0.6-1.9 0-0.2-0.1-0.4-0.1-0.5 0.4-0.1 0.8-0.2 1.2-0.4 0.9-0.3 5.3-2.3 5.9-1.9 0.5 0.3 0.7 2.2 1.2 2.8C49.6 24.1 51 24.6 52 25.2zM51.5 36.3c-0.5 1.8-1 3.7-1.5 5.6-1.8 0.4-3.6 0.9-5.5 1.4-1.4 0.4-2.9 0.7-4.3 0.8-0.5-1.7-0.9-3.3-1.1-4.9 1.5-1.8 3.1-3.2 5.7-3.2 1.8 0 3.6 0.6 5.4 0.5C50.6 36.5 51.1 36.4 51.5 36.3zM36.4 21.2L36.4 21.2c-0.4-1.2-0.9-2.4-1.2-3.7 4.1-2 8.2-3.7 12.7-4.5 0.4 1.3 0.9 2.6 1.3 3.9C49.2 16.9 37 19.3 36.4 21.2zM19.4 32.6c0.1-0.1 0.2-0.1 0.3-0.2 0.3 0.6 0.6 1.2 0.9 1.9 0.7 1.4 3.2 0.8 3-0.8-0.1-0.8-0.2-1.5-0.5-2.3 1.6-0.3 3.4-0.2 4.9 0.3 5.2 1.6 6.6 7.4 5.2 12.1-2.4-0.6-4.7-1.5-7-2.2-3.3-0.9-6.8-1.7-10.1-1.2C16.2 37.1 16.5 34.5 19.4 32.6zM14.2 45c5.1-2.7 11.9 0.6 17 2.1 5.8 1.6 10.8 1 16.5-0.6 2.9-0.8 5.8-1.7 8.8-1.7 2.9 0 5.7 0.6 8.6 1.2 4 0.8 7.8 1.3 11.6 0.4-1.4 9.1-4.7 30.1-5 31.4-0.4 1.5-1.2 3.2-2.1 4.5-2.4 3.3-6.2 2.7-9.8 2.6-6.7-0.2-13.5-0.2-20.2-0.1-3.3 0-6.5 0-9.8 0-2.6 0-7.8 1.1-9.6-1.3-1.8-2.4-1.8-6.3-2.1-9.1-0.5-3.6-0.9-7.1-1.4-10.7-0.8-6.2-1.6-12.4-2.6-18.5C14.1 45 14.1 45 14.2 45z" fill="#5ebc67" data-fill-palette-color="accent"></path><path d="M20.6 38.9c0.6 0 1.2-0.6 1.2-1.2 0-0.7-0.5-1.2-1.2-1.2-0.6 0-1.2 0.6-1.2 1.2C19.4 38.3 19.9 38.9 20.6 38.9z" fill="#5ebc67" data-fill-palette-color="accent"></path><path d="M26.6 36.4c0.6 0 1.2-0.6 1.2-1.2 0-0.7-0.5-1.2-1.2-1.2-0.6 0-1.2 0.6-1.2 1.2C25.4 35.9 25.9 36.4 26.6 36.4z" fill="#5ebc67" data-fill-palette-color="accent"></path><path d="M30.1 40.1c0.6 0 1.2-0.6 1.2-1.2 0-0.7-0.5-1.2-1.2-1.2-0.6 0-1.2 0.6-1.2 1.2S29.4 40.1 30.1 40.1z" fill="#5ebc67" data-fill-palette-color="accent"></path><path d="M27.6 65.7c2.4-0.5 4.5-2.8 6.7-4 2.5-1.4 5.2-2.4 8-2.9 0.9-0.2 1.6-0.6 2.1 0.2 0.6 0.9-0.2 1.5-0.7 2.3-0.8 1.3-1.6 2.7-2.3 4-1.1 2.2-2.7 4.7-2.9 7.2-0.1 1.7 0.3 3.3 1.8 4.2 2 1.3 4.4 0.2 6.4-0.5 5.9-2.1 11.5-4.9 16.7-8.2 2.4-1.5 0.2-5.4-2.3-3.9-2.7 1.7-11.8 6.4-13.5 7.1-0.8 0.3-3.5 1.8-4.2 1.6-1.4-0.5 0.3-2.9 0.8-3.9 0.7-1.4 5.3-8.5 4.9-11-1.4-9-21.6 0.8-22.9 6.4C26.1 65.3 26.8 65.9 27.6 65.7z" fill="#5ebc67" data-fill-palette-color="accent"></path></g></svg></g></svg></g></svg></g><defs></defs></svg><rect width="395.52" height="183.6967753049515" fill="none" stroke="none" visibility="hidden"></rect></g></svg></g></svg>