<svg id="goto_gro_single" data-name="goto gro single" xmlns="http://www.w3.org/2000/svg" width="242.851" height="300.525" viewBox="0 0 242.851 300.525">
  <g id="Group_20" data-name="Group 20">
    <g id="tight-bounds" transform="translate(0 0)">
      <g id="Group_19" data-name="Group 19">
        <g id="Group_18" data-name="Group 18">
          <g id="Group_17" data-name="Group 17">
            <g id="Group_16" data-name="Group 16" transform="translate(0 0)">
              <g id="Group_15" data-name="Group 15" transform="translate(0 0)">
                <g id="Group_14" data-name="Group 14">
                  <g id="icon-0">
                    <g id="Group_13" data-name="Group 13">
                      <path id="Path_2" data-name="Path 2" d="M10.739,145.081c3.055,26.139,4.753,48.544,7.808,72.646,2.376,20.029,2.037,43.452,9.166,62.462S51.475,300.558,69.467,300.9c26.139.679,52.618.339,79.1.339H185.9c9.845,0,19.689-.679,27.5-7.468,8.487-7.129,14.937-19.01,17.313-29.873,4.413-19.35,6.11-39.718,9.166-59.407,3.055-19.01,6.11-38.02,9.166-56.691,1.018-5.771-4.074-9.505-9.505-7.129a53.743,53.743,0,0,1-10.524,3.055,509.515,509.515,0,0,0,22.065-86.9C254.138,37.13,259.569,1.486,229.357.807,201.52.128,185.565,34.075,175.381,54.783c-4.074,8.147-7.808,16.634-11.2,24.781-5.431-4.413-12.221-7.808-14.937-12.56a35.779,35.779,0,0,1,3.734-2.376c2.037-1.358,3.734-4.413,2.716-6.789-2.716-8.147-5.771-15.955-8.487-24.1-1.018-3.395-3.734-4.413-7.129-4.074C120.387,32.717,102.4,40.525,84.4,48.672c-2.376,1.018-3.395,4.413-2.716,6.789,2.037,8.147,4.753,15.955,7.129,24.1a6.57,6.57,0,0,0,7.808,4.413c1.018-.339,2.376-.679,3.734-1.018.679,3.395.339,6.11-1.358,10.184A76.488,76.488,0,0,0,94.588,107.4C89.5,98.913,81.009,92.464,69.467,89.748a51.121,51.121,0,0,0-23.763.339c-4.413-4.753-9.505-8.826-15.276-10.863-6.11-2.037-11.542,6.789-6.45,10.863,2.716,2.037,5.431,3.734,8.147,5.771l-4.074,3.055c-10.863,9.166-17.313,25.46-11.2,39.039C15.831,138.631,10.06,140.668,10.739,145.081ZM178.776,76.509a343.458,343.458,0,0,1,15.955-31.571c6.45-11.2,14.258-25.46,27.157-29.873,24.442-8.487,19.689,25.121,15.276,45.828-13.239-2.716-28.176-2.037-39.039,6.789-4.074,3.395.339,8.826,4.753,8.147,11.2-1.7,20.368-4.753,31.571-2.376v.679c-1.018,5.092-2.376,10.184-3.395,15.276-13.579-2.037-28.176-1.358-40.057,6.11-4.074,2.716-1.7,9.166,3.395,7.808a88.7,88.7,0,0,1,33.947-2.716c-1.7,5.771-3.395,11.542-5.432,17.313-13.579-3.734-31.571-3.734-41.415,5.431-2.376,2.376-.339,5.771,2.376,6.11,6.789.339,13.579-1.358,20.368-1.358,4.753,0,9.505,1.018,14.258,2.037-1.7,4.753-3.734,9.505-5.432,14.258-11.2-1.358-22.4-4.413-32.928-6.11a87.545,87.545,0,0,0-23.084,0C163.16,117.245,169.95,96.537,178.776,76.509ZM150.94,83.637c3.395,2.037,6.11,4.753,8.826,7.129-1.358,3.734-2.716,7.468-4.074,10.863-3.734,4.074-6.45,7.468-12.9,7.808s-12.56-1.7-19.01-1.358a34.757,34.757,0,0,0-16.973,6.45,72.169,72.169,0,0,1,4.413-17.313c2.037-4.753,3.734-9.505,2.716-14.6-.339-2.376-1.7-4.074-2.037-6.45a14.7,14.7,0,0,0-.339-1.7,19.138,19.138,0,0,0,4.074-1.358c3.055-1.018,17.992-7.808,20.029-6.45,1.7,1.018,2.376,7.468,4.074,9.505C142.792,79.9,147.545,81.6,150.94,83.637Zm-1.7,37.681c-1.7,6.11-3.395,12.56-5.092,19.01-6.11,1.358-12.221,3.055-18.671,4.753a73.575,73.575,0,0,1-14.6,2.716,105.488,105.488,0,0,1-3.734-16.634c5.092-6.11,10.524-10.863,19.35-10.863,6.11,0,12.221,2.037,18.331,1.7A19.867,19.867,0,0,0,149.242,121.318Zm-51.26-51.26h0c-1.358-4.074-3.055-8.147-4.074-12.56,13.918-6.789,27.836-12.56,43.113-15.276,1.358,4.413,3.055,8.826,4.413,13.239C141.434,55.462,100.019,63.609,97.982,70.059Zm-57.71,38.7c.339-.339.679-.339,1.018-.679,1.018,2.037,2.037,4.074,3.055,6.45,2.376,4.753,10.863,2.716,10.184-2.716a32.2,32.2,0,0,0-1.7-7.808,34.4,34.4,0,0,1,16.634,1.018c17.652,5.431,22.4,25.121,17.652,41.076-8.147-2.037-15.955-5.092-23.763-7.468-11.2-3.055-23.084-5.771-34.286-4.074C29.41,124.034,30.428,115.208,40.273,108.758ZM22.62,150.852c17.313-9.166,40.4,2.037,57.71,7.129,19.689,5.431,36.663,3.395,56.012-2.037,9.845-2.716,19.689-5.771,29.873-5.771,9.845,0,19.35,2.037,29.194,4.074,13.579,2.716,26.479,4.413,39.378,1.358-4.753,30.892-15.955,102.18-16.973,106.593a52.24,52.24,0,0,1-7.129,15.276c-8.147,11.2-21.047,9.166-33.268,8.826-22.744-.679-45.828-.679-68.573-.34H75.578c-8.826,0-26.479,3.734-32.589-4.413s-6.11-21.387-7.129-30.892c-1.7-12.221-3.055-24.1-4.753-36.323-2.716-21.047-5.431-42.094-8.826-62.8C22.281,150.852,22.281,150.852,22.62,150.852Z" transform="translate(-10.684 -0.797)" fill="#5ebc67"/>
                      <path id="Path_3" data-name="Path 3" d="M23.474,44.647a4.381,4.381,0,0,0,4.074-4.074A3.922,3.922,0,0,0,23.474,36.5,4.381,4.381,0,0,0,19.4,40.574,4.128,4.128,0,0,0,23.474,44.647Z" transform="translate(10.189 84.7)" fill="#5ebc67"/>
                      <path id="Path_4" data-name="Path 4" d="M29.474,42.147a4.381,4.381,0,0,0,4.074-4.074A3.922,3.922,0,0,0,29.474,34,4.381,4.381,0,0,0,25.4,38.074,3.922,3.922,0,0,0,29.474,42.147Z" transform="translate(24.557 78.714)" fill="#5ebc67"/>
                      <path id="Path_5" data-name="Path 5" d="M32.974,45.847a4.381,4.381,0,0,0,4.074-4.074A3.922,3.922,0,0,0,32.974,37.7,4.381,4.381,0,0,0,28.9,41.774,4.128,4.128,0,0,0,32.974,45.847Z" transform="translate(32.939 87.574)" fill="#5ebc67"/>
                      <path id="Path_6" data-name="Path 6" d="M30.975,93.114c8.147-1.7,15.276-9.505,22.744-13.579A87,87,0,0,1,80.877,69.69c3.055-.679,5.431-2.037,7.129.679,2.037,3.055-.679,5.092-2.376,7.808-2.716,4.413-5.432,9.166-7.808,13.579-3.734,7.468-9.166,15.955-9.845,24.442-.339,5.771,1.018,11.2,6.11,14.258,6.789,4.413,14.937.679,21.726-1.7a283.531,283.531,0,0,0,56.691-27.836c8.147-5.092.679-18.331-7.808-13.239-9.166,5.771-40.057,21.726-45.828,24.1-2.716,1.018-11.881,6.11-14.258,5.431-4.753-1.7,1.018-9.845,2.716-13.239,2.376-4.753,17.992-28.855,16.634-37.342-4.753-30.552-73.325,2.716-77.738,21.726C25.883,91.756,28.26,93.793,30.975,93.114Z" transform="translate(26.45 127.211)" fill="#5ebc67"/>
                    </g>
                  </g>
                </g>
              </g>
            </g>
          </g>
        </g>
      </g>
    </g>
  </g>
</svg>
